CommissionerFlair-BoldItalic.ufo
<glyph name="numbersign" format="2">
  <advance width="699.2894736842105"/>
  <unicode hex="0023"/>
  <outline>
    <contour>
      <point x="-13.105263157894738" y="123.60526315789474" type="line"/>
      <point x="56.736842105263165" y="128.89473684210526"/>
      <point x="122.92105263157893" y="129.55263157894737"/>
      <point x="179.78947368421052" y="129.55263157894737" type="curve"/>
      <point x="419.2631578947368" y="129.55263157894737" type="line"/>
      <point x="476.13157894736844" y="129.55263157894737"/>
      <point x="541.0" y="128.89473684210526"/>
      <point x="609.5263157894738" y="123.60526315789474" type="curve"/>
      <point x="635.921052631579" y="250.3421052631579" type="line"/>
      <point x="566.078947368421" y="245.05263157894737"/>
      <point x="500.5526315789474" y="244.39473684210526"/>
      <point x="443.6842105263158" y="244.39473684210526" type="curve"/>
      <point x="204.21052631578948" y="244.39473684210526" type="line"/>
      <point x="147.3421052631579" y="244.39473684210526"/>
      <point x="81.81578947368422" y="245.05263157894737"/>
      <point x="13.289473684210527" y="250.3421052631579" type="curve"/>
    </contour>
    <contour>
      <point x="38.81578947368421" y="0.0" type="curve"/>
      <point x="183.05263157894737" y="0.0" type="line"/>
      <point x="199.55263157894737" y="68.65789473684211"/>
      <point x="223.21052631578948" y="131.26315789473685"/>
      <point x="256.2368421052632" y="215.57894736842104" type="curve"/>
      <point x="346.6578947368421" y="447.5263157894737" type="line"/>
      <point x="382.0263157894737" y="538.5"/>
      <point x="404.7368421052632" y="593.5263157894736"/>
      <point x="441.9736842105263" y="666.1578947368421" type="curve"/>
      <point x="299.05263157894734" y="666.1578947368421" type="line"/>
      <point x="279.60526315789474" y="590.8947368421053"/>
      <point x="259.2105263157895" y="535.8421052631579"/>
      <point x="224.8421052631579" y="447.52631578947364" type="curve"/>
      <point x="134.42105263157893" y="215.57894736842104" type="line"/>
      <point x="101.39473684210527" y="131.60526315789474"/>
      <point x="73.42105263157895" y="66.02631578947368"/>
    </contour>
    <contour>
      <point x="97.68421052631578" y="412.81578947368416" type="line"/>
      <point x="168.1842105263158" y="418.10526315789474"/>
      <point x="233.71052631578948" y="418.7631578947368"/>
      <point x="290.57894736842104" y="418.7631578947368" type="curve"/>
      <point x="530.0526315789474" y="418.7631578947368" type="line"/>
      <point x="586.921052631579" y="418.7631578947368"/>
      <point x="652.4473684210527" y="418.10526315789474"/>
      <point x="720.3157894736843" y="412.81578947368416" type="curve"/>
      <point x="747.3684210526316" y="539.5526315789474" type="line"/>
      <point x="676.8684210526317" y="534.2631578947369"/>
      <point x="611.3421052631579" y="533.6052631578948"/>
      <point x="554.4736842105264" y="533.6052631578948" type="curve"/>
      <point x="315.0" y="533.6052631578948" type="line"/>
      <point x="258.13157894736844" y="533.6052631578948"/>
      <point x="192.60526315789474" y="534.2631578947369"/>
      <point x="124.73684210526315" y="539.5526315789474" type="curve"/>
    </contour>
    <contour>
      <point x="288.5526315789474" y="0.0" type="curve"/>
      <point x="432.7894736842105" y="0.0" type="line"/>
      <point x="449.2894736842105" y="68.65789473684211"/>
      <point x="472.94736842105266" y="131.26315789473685"/>
      <point x="505.9736842105263" y="215.57894736842104" type="curve"/>
      <point x="596.3947368421053" y="447.5263157894737" type="line"/>
      <point x="631.7631578947368" y="538.5"/>
      <point x="654.4736842105264" y="593.5263157894736"/>
      <point x="691.7105263157895" y="666.1578947368421" type="curve"/>
      <point x="548.7894736842106" y="666.1578947368421" type="line"/>
      <point x="529.3421052631579" y="590.8947368421053"/>
      <point x="508.94736842105266" y="535.8421052631579"/>
      <point x="474.57894736842104" y="447.52631578947364" type="curve"/>
      <point x="384.15789473684214" y="215.57894736842104" type="line"/>
      <point x="351.1315789473684" y="131.60526315789474"/>
      <point x="323.15789473684214" y="66.02631578947368"/>
    </contour>
  </outline>
</glyph>
<glyph name="dollar" format="2">
  <advance width="575.6842105263158"/>
  <unicode hex="0024"/>
  <outline>
    <contour>
      <point x="259.9473684210526" y="-12.947368421052632" type="curve" smooth="yes"/>
      <point x="427.5526315789474" y="-12.947368421052632"/>
      <point x="504.47368421052636" y="43.131578947368425"/>
      <point x="531.3947368421053" y="170.44736842105263" type="curve" smooth="yes"/>
      <point x="553.3421052631579" y="274.2105263157895"/>
      <point x="512.0526315789474" y="334.2368421052632"/>
      <point x="368.94736842105266" y="393.9736842105263" type="curve" smooth="yes"/>
      <point x="284.97368421052636" y="429.2631578947369"/>
      <point x="254.78947368421055" y="458.7105263157895"/>
      <point x="264.2368421052632" y="503.89473684210526" type="curve" smooth="yes"/>
      <point x="274.3684210526316" y="551.8684210526316"/>
      <point x="319.9736842105263" y="565.9736842105264"/>
      <point x="369.42105263157896" y="565.9736842105264" type="curve"/>
      <point x="401.4473684210526" y="565.9736842105264"/>
      <point x="471.07894736842104" y="544.6842105263157"/>
      <point x="549.7368421052631" y="503.3421052631579" type="curve"/>
      <point x="593.3421052631579" y="641.2631578947369" type="line"/>
      <point x="539.0526315789474" y="659.3421052631579"/>
      <point x="430.47368421052636" y="698.6315789473684"/>
      <point x="348.36842105263156" y="698.6315789473684" type="curve" smooth="yes"/>
      <point x="196.3421052631579" y="698.6315789473684"/>
      <point x="119.02631578947368" y="640.6842105263158"/>
      <point x="94.76315789473685" y="523.7105263157894" type="curve" smooth="yes"/>
      <point x="69.47368421052632" y="402.6315789473684"/>
      <point x="130.42105263157896" y="345.39473684210526"/>
      <point x="245.68421052631578" y="297.57894736842104" type="curve" smooth="yes"/>
      <point x="326.4736842105263" y="264.0263157894737"/>
      <point x="371.36842105263156" y="233.8421052631579"/>
      <point x="361.92105263157896" y="186.9736842105263" type="curve" smooth="yes"/>
      <point x="350.42105263157896" y="132.5"/>
      <point x="311.0526315789474" y="117.07894736842105"/>
      <point x="253.3684210526316" y="117.07894736842105" type="curve"/>
      <point x="196.94736842105263" y="117.07894736842105"/>
      <point x="114.07894736842104" y="148.68421052631578"/>
      <point x="47.315789473684205" y="188.39473684210526" type="curve"/>
      <point x="4.710526315789471" y="44.868421052631575" type="line"/>
      <point x="58.368421052631575" y="24.13157894736842"/>
      <point x="146.26315789473688" y="-12.947368421052632"/>
    </contour>
    <contour>
      <point x="147.1315789473684" y="-137.0" type="curve"/>
      <point x="279.1578947368421" y="-137.0" type="line"/>
      <point x="289.15789473684214" y="-66.26315789473685"/>
      <point x="299.4736842105263" y="-0.5"/>
      <point x="313.42105263157896" y="64.26315789473685" type="curve"/>
      <point x="197.89473684210526" y="64.26315789473685" type="line"/>
      <point x="183.94736842105263" y="-0.5"/>
      <point x="167.02631578947367" y="-66.26315789473685"/>
    </contour>
    <contour>
      <point x="318.18421052631584" y="628.2894736842105" type="curve"/>
      <point x="433.7105263157895" y="628.2894736842105" type="line"/>
      <point x="445.34210526315786" y="684.1052631578948"/>
      <point x="461.26315789473676" y="741.8947368421052"/>
      <point x="478.5" y="803.0" type="curve"/>
      <point x="347.13157894736844" y="803.0" type="line"/>
      <point x="338.7894736842105" y="741.8947368421052"/>
      <point x="329.8157894736842" y="684.1052631578948"/>
    </contour>
  </outline>
</glyph>
<glyph name="ampersand" format="2">
  <advance width="773.5533980582525"/>
  <unicode hex="0026"/>
  <outline>
    <contour>
      <point x="513.1747572815536" y="0.0" type="curve"/>
      <point x="718.8252427184465" y="0.0" type="line"/>
      <point x="654.1844660194174" y="71.90291262135922"/>
      <point x="599.7087378640776" y="144.4368932038835"/>
      <point x="547.1262135922331" y="215.70873786407768" type="curve"/>
      <point x="383.6116504854369" y="437.0194174757281" type="line" smooth="yes"/>
      <point x="348.14563106796123" y="484.747572815534"/>
      <point x="338.7281553398059" y="523.3203883495147"/>
      <point x="348.252427184466" y="565.9417475728155" type="curve" smooth="yes"/>
      <point x="357.03883495145635" y="604.3495145631068"/>
      <point x="383.1359223300971" y="621.873786407767"/>
      <point x="421.9126213592233" y="623.873786407767" type="curve"/>
      <point x="462.32038834951453" y="620.5048543689321"/>
      <point x="490.31067961165047" y="591.9805825242719"/>
      <point x="482.15533980582524" y="550.3106796116505" type="curve" smooth="yes"/>
      <point x="473.99999999999994" y="508.4854368932039"/>
      <point x="429.0194174757282" y="480.2233009708737"/>
      <point x="370.242718446602" y="446.80582524271847" type="curve"/>
      <point x="428.6699029126213" y="367.7378640776699" type="line"/>
      <point x="499.6116504854369" y="407.7378640776698"/>
      <point x="593.7669902912621" y="449.36893203883494"/>
      <point x="612.7669902912621" y="538.8932038834952" type="curve" smooth="yes"/>
      <point x="634.873786407767" y="644.2135922330096"/>
      <point x="545.9708737864078" y="727.7378640776699"/>
      <point x="417.11650485436894" y="727.7378640776699" type="curve" smooth="yes"/>
      <point x="314.2135922330097" y="727.7378640776699"/>
      <point x="221.78640776699032" y="686.0582524271845"/>
      <point x="199.94174757281556" y="578.7864077669904" type="curve" smooth="yes"/>
      <point x="184.3106796116505" y="502.7378640776699"/>
      <point x="210.62135922330097" y="427.7864077669903"/>
      <point x="253.30097087378638" y="369.36893203883494" type="curve" smooth="yes"/>
      <point x="424.5533980582524" y="136.0" type="line"/>
      <point x="458.4466019417476" y="91.0"/>
      <point x="492.6019417475728" y="44.36893203883495"/>
    </contour>
    <contour>
      <point x="227.88349514563103" y="-12.106796116504855" type="curve" smooth="yes"/>
      <point x="307.4563106796116" y="-12.106796116504855"/>
      <point x="374.03883495145635" y="27.35922330097088"/>
      <point x="449.4563106796117" y="84.82524271844659" type="curve"/>
      <point x="464.5631067961165" y="84.82524271844659" type="line"/>
      <point x="458.3009708737864" y="108.51456310679612" type="line"/>
      <point x="399.0776699029126" y="187.21359223300968" type="line"/>
      <point x="353.25242718446606" y="138.70873786407765"/>
      <point x="304.368932038835" y="112.3495145631068"/>
      <point x="264.17475728155335" y="112.3495145631068" type="curve"/>
      <point x="193.93203883495147" y="115.71844660194175"/>
      <point x="167.0970873786408" y="164.07766990291262"/>
      <point x="179.25242718446603" y="217.16504854368932" type="curve" smooth="yes"/>
      <point x="190.30097087378644" y="269.0388349514563"/>
      <point x="228.38834951456312" y="301.9805825242719"/>
      <point x="290.6310679611651" y="329.3980582524272" type="curve"/>
      <point x="238.0388349514563" y="417.8932038834952" type="line"/>
      <point x="140.51456310679612" y="384.15533980582524"/>
      <point x="51.25242718446601" y="327.52427184466023"/>
      <point x="27.62135922330096" y="214.47572815533982" type="curve" smooth="yes"/>
      <point x="3.514563106796108" y="99.7864077669903"/>
      <point x="72.19417475728154" y="-12.106796116504855"/>
    </contour>
    <contour>
      <point x="565.9223300970874" y="166.72815533980582" type="line"/>
      <point x="629.1359223300972" y="226.25242718446603"/>
      <point x="690.8252427184466" y="284.5145631067961"/>
      <point x="759.5145631067962" y="338.56310679611653" type="curve"/>
      <point x="632.4271844660193" y="433.33009708737865" type="line"/>
      <point x="591.2718446601942" y="369.69902912621365"/>
      <point x="543.6407766990292" y="313.0679611650486"/>
      <point x="494.1165048543689" y="254.91262135922332" type="curve"/>
    </contour>
  </outline>
</glyph>
<glyph name="quotesingle" format="2">
  <advance width="228.39473684210526"/>
  <unicode hex="0027"/>
  <outline>
    <contour>
      <point x="79.10526315789474" y="395.60526315789474" type="curve"/>
      <point x="193.60526315789474" y="396.60526315789474" type="line"/>
      <point x="224.1315789473684" y="513.9473684210526"/>
      <point x="256.0263157894737" y="629.9736842105264"/>
      <point x="295.86842105263156" y="744.6578947368421" type="curve"/>
      <point x="126.73684210526314" y="741.0263157894736" type="line"/>
      <point x="116.39473684210525" y="627.0"/>
      <point x="99.10526315789475" y="511.9736842105263"/>
    </contour>
  </outline>
</glyph>
<glyph name="parenleft" format="2">
  <advance width="414.6578947368421"/>
  <unicode hex="0028"/>
  <outline>
    <contour>
      <point x="197.8421052631579" y="-133.71052631578948" type="curve"/>
      <point x="323.63157894736844" y="-90.47368421052632" type="line"/>
      <point x="240.81578947368422" y="31.52631578947368"/>
      <point x="182.68421052631578" y="153.73684210526318"/>
      <point x="221.02631578947367" y="333.10526315789474" type="curve" smooth="yes"/>
      <point x="259.36842105263156" y="513.4736842105265"/>
      <point x="368.8684210526317" y="630.8421052631579"/>
      <point x="497.0" y="732.4736842105264" type="curve"/>
      <point x="374.1842105263158" y="780.3947368421053" type="line"/>
      <point x="255.28947368421052" y="696.7631578947369"/>
      <point x="109.28947368421052" y="560.2894736842104"/>
      <point x="65.34210526315789" y="351.89473684210526" type="curve" smooth="yes"/>
      <point x="21.39473684210526" y="143.8421052631579"/>
      <point x="116.73684210526314" y="-30.710526315789476"/>
    </contour>
  </outline>
</glyph>
<glyph name="asterisk" format="2">
  <advance width="494.1842105263158"/>
  <unicode hex="002A"/>
  <outline>
    <contour>
      <point x="436.65789473684214" y="318.7368421052631" type="curve"/>
      <point x="509.6842105263158" y="399.3421052631579" type="line"/>
      <point x="445.7894736842105" y="443.7368421052631"/>
      <point x="384.5263157894737" y="490.13157894736844"/>
      <point x="323.9473684210526" y="537.1842105263157" type="curve"/>
      <point x="270.6052631578948" y="594.4736842105264"/>
      <point x="219.92105263157896" y="652.078947368421"/>
      <point x="169.89473684210526" y="712.0" type="curve"/>
      <point x="97.21052631578947" y="631.3947368421052" type="line"/>
      <point x="160.1052631578947" y="587.0"/>
      <point x="222.68421052631578" y="539.9473684210526"/>
      <point x="282.60526315789474" y="491.89473684210526" type="curve"/>
      <point x="335.2894736842106" y="435.6052631578948"/>
      <point x="386.63157894736844" y="377.3421052631579"/>
    </contour>
    <contour>
      <point x="101.73684210526315" y="390.1315789473684" type="line"/>
      <point x="171.3947368421053" y="424.0526315789474"/>
      <point x="241.71052631578948" y="455.65789473684214"/>
      <point x="313.36842105263156" y="486.60526315789474" type="curve"/>
      <point x="387.9736842105263" y="505.02631578947364"/>
      <point x="463.2631578947368" y="522.4473684210527"/>
      <point x="538.8684210526316" y="537.8684210526317" type="curve"/>
      <point x="504.8157894736842" y="640.6052631578947" type="line"/>
      <point x="435.15789473684214" y="606.0263157894736"/>
      <point x="364.8421052631579" y="574.421052631579"/>
      <point x="294.1842105263158" y="544.4736842105264" type="curve"/>
      <point x="218.57894736842104" y="525.0526315789474"/>
      <point x="143.6315789473684" y="507.9736842105263"/>
      <point x="67.02631578947368" y="492.8684210526316" type="curve"/>
    </contour>
    <contour>
      <point x="201.6052631578947" y="301.34210526315786" type="curve"/>
      <point x="308.3157894736842" y="278.2105263157894" type="line"/>
      <point x="314.7368421052631" y="355.5"/>
      <point x="323.4736842105263" y="432.7894736842105"/>
      <point x="332.86842105263156" y="509.7631578947368" type="curve"/>
      <point x="355.7894736842105" y="583.078947368421"/>
      <point x="378.7105263157895" y="656.7368421052631"/>
      <point x="404.2894736842106" y="730.0526315789474" type="curve"/>
      <point x="298.2368421052632" y="752.5263157894736" type="line"/>
      <point x="291.8157894736842" y="675.2368421052631"/>
      <point x="283.07894736842104" y="598.6052631578948"/>
      <point x="273.6842105263158" y="522.0" type="curve"/>
      <point x="250.76315789473682" y="447.6578947368421"/>
      <point x="227.84210526315786" y="374.0"/>
    </contour>
  </outline>
</glyph>
<glyph name="plus" format="2">
  <advance width="600.078947368421"/>
  <unicode hex="002B"/>
  <outline>
    <contour>
      <point x="181.36842105263156" y="51.18421052631579" type="curve"/>
      <point x="334.13157894736844" y="51.18421052631579" type="line"/>
      <point x="343.81578947368416" y="120.02631578947368"/>
      <point x="356.7894736842105" y="185.89473684210526"/>
      <point x="368.7631578947369" y="242.10526315789474" type="curve"/>
      <point x="394.8157894736842" y="364.34210526315786" type="line"/>
      <point x="407.44736842105266" y="422.5263157894737"/>
      <point x="422.07894736842104" y="488.0526315789474"/>
      <point x="442.00000000000006" y="557.2368421052631" type="curve"/>
      <point x="289.2368421052631" y="557.2368421052631" type="line"/>
      <point x="279.5526315789474" y="488.3947368421053"/>
      <point x="266.57894736842104" y="422.5263157894737"/>
      <point x="253.9473684210526" y="363.6842105263158" type="curve"/>
      <point x="227.89473684210523" y="242.10526315789474" type="line"/>
      <point x="215.92105263157893" y="185.89473684210526"/>
      <point x="201.2894736842105" y="120.02631578947368"/>
    </contour>
    <contour>
      <point x="46.07894736842105" y="230.6315789473684" type="line"/>
      <point x="116.92105263157895" y="235.92105263157893"/>
      <point x="182.44736842105263" y="236.57894736842104"/>
      <point x="239.3157894736842" y="236.57894736842104" type="curve"/>
      <point x="355.3684210526316" y="236.57894736842104" type="line"/>
      <point x="412.2368421052632" y="236.57894736842104"/>
      <point x="477.7631578947369" y="235.92105263157893"/>
      <point x="545.2894736842106" y="230.6315789473684" type="curve"/>
      <point x="576.9736842105264" y="377.7894736842106" type="line"/>
      <point x="506.7894736842105" y="372.5"/>
      <point x="441.2631578947368" y="371.8421052631579"/>
      <point x="384.39473684210526" y="371.8421052631579" type="curve"/>
      <point x="268.3421052631579" y="371.8421052631579" type="line"/>
      <point x="211.47368421052633" y="371.8421052631579"/>
      <point x="145.94736842105263" y="372.5"/>
      <point x="77.76315789473684" y="377.7894736842106" type="curve"/>
    </contour>
  </outline>
</glyph>
<glyph name="comma" format="2">
  <advance width="252.1578947368421"/>
  <unicode hex="002C"/>
  <outline>
    <contour>
      <point x="-73.55263157894737" y="-157.0" type="curve"/>
      <point x="13.368421052631572" y="-155.3421052631579" type="line"/>
      <point x="61.026315789473685" y="-111.26315789473684"/>
      <point x="160.13157894736844" y="-14.44736842105263"/>
      <point x="176.42105263157896" y="65.0" type="curve" smooth="yes"/>
      <point x="187.3421052631579" y="118.94736842105263"/>
      <point x="172.44736842105263" y="161.60526315789477"/>
      <point x="116.23684210526318" y="174.1578947368421" type="curve"/>
      <point x="32.68421052631579" y="167.89473684210526" type="line"/>
      <point x="33.315789473684205" y="123.5"/>
      <point x="28.0" y="79.10526315789474"/>
      <point x="19.710526315789473" y="38.65789473684211" type="curve"/>
      <point x="7.052631578947367" y="-22.28947368421052"/>
      <point x="-31.10526315789474" y="-98.65789473684211"/>
    </contour>
  </outline>
</glyph>
<glyph name="hyphen" format="2">
  <advance width="426.57894736842104"/>
  <unicode hex="002D"/>
  <outline>
    <contour>
      <point x="45.42105263157895" y="227.3421052631579" type="line"/>
      <point x="104.97368421052632" y="232.6315789473684"/>
      <point x="160.8684210526316" y="233.28947368421052"/>
      <point x="209.10526315789474" y="233.28947368421052" type="curve"/>
      <point x="257.3421052631579" y="233.28947368421052"/>
      <point x="313.2368421052632" y="232.6315789473684"/>
      <point x="371.47368421052636" y="227.3421052631579" type="curve"/>
      <point x="402.1578947368421" y="374.50000000000006" type="line"/>
      <point x="342.2631578947368" y="369.2105263157895"/>
      <point x="285.7105263157895" y="368.5526315789474"/>
      <point x="237.4736842105263" y="368.5526315789474" type="curve"/>
      <point x="189.23684210526315" y="368.5526315789474"/>
      <point x="134.0" y="369.2105263157895"/>
      <point x="76.10526315789474" y="374.50000000000006" type="curve"/>
    </contour>
  </outline>
</glyph>
<glyph name="slash" format="2">
  <advance width="468.92105263157896"/>
  <unicode hex="002F"/>
  <outline>
    <contour>
      <point x="-42.28947368421053" y="0.0" type="curve"/>
      <point x="138.5" y="0.0" type="line"/>
      <point x="172.34210526315792" y="74.0"/>
      <point x="207.42105263157893" y="137.0"/>
      <point x="261.1842105263158" y="228.0" type="curve"/>
      <point x="405.10526315789474" y="474.0" type="line"/>
      <point x="461.8684210526316" y="571.0"/>
      <point x="500.92105263157896" y="636.0"/>
      <point x="555.8947368421053" y="713.0" type="curve"/>
      <point x="375.7631578947369" y="713.0" type="line"/>
      <point x="340.2368421052631" y="636.0"/>
      <point x="303.5" y="571.0"/>
      <point x="248.39473684210526" y="476.6578947368421" type="curve"/>
      <point x="102.81578947368422" y="228.0" type="line"/>
      <point x="49.052631578947356" y="137.0"/>
      <point x="10.000000000000004" y="74.0"/>
    </contour>
  </outline>
</glyph>
<glyph name="zero" format="2">
  <advance width="666.0263157894736"/>
  <unicode hex="0030"/>
  <outline>
    <contour>
      <point x="313.13157894736844" y="-12.947368421052632" type="curve" smooth="yes"/>
      <point x="495.3947368421053" y="-12.947368421052632"/>
      <point x="593.3684210526316" y="99.97368421052632"/>
      <point x="638.3684210526316" y="312.60526315789474" type="curve" smooth="yes"/>
      <point x="683.3947368421053" y="528.0"/>
      <point x="606.1052631578948" y="702.578947368421"/>
      <point x="395.6578947368421" y="702.578947368421" type="curve" smooth="yes"/>
      <point x="207.05263157894737" y="702.578947368421"/>
      <point x="110.65789473684211" y="582.6578947368421"/>
      <point x="68.0" y="376.39473684210526" type="curve" smooth="yes"/>
      <point x="25.289473684210527" y="169.92105263157893"/>
      <point x="92.97368421052632" y="-12.947368421052632"/>
    </contour>
    <contour>
      <point x="318.3947368421053" y="121.02631578947368" type="curve"/>
      <point x="226.42105263157896" y="126.65789473684211"/>
      <point x="205.6842105263158" y="229.0"/>
      <point x="233.2105263157895" y="360.52631578947364" type="curve" smooth="yes"/>
      <point x="260.3421052631579" y="489.7894736842105"/>
      <point x="306.7631578947369" y="562.3157894736842"/>
      <point x="392.3684210526316" y="567.9473684210526" type="curve"/>
      <point x="476.2631578947368" y="562.3157894736842"/>
      <point x="503.65789473684214" y="463.7105263157894"/>
      <point x="474.47368421052636" y="327.4736842105263" type="curve" smooth="yes"/>
      <point x="447.3421052631579" y="200.8421052631579"/>
      <point x="403.63157894736844" y="126.65789473684211"/>
    </contour>
  </outline>
</glyph>
<glyph name="one" format="2">
  <advance width="461.9473684210526"/>
  <unicode hex="0031"/>
  <outline>
    <contour>
      <point x="97.81578947368422" y="420.02631578947364" type="line"/>
      <point x="181.44736842105263" y="466.0"/>
      <point x="267.0526315789474" y="503.39473684210526"/>
      <point x="352.34210526315786" y="539.4736842105264" type="curve"/>
      <point x="388.9473684210526" y="692.578947368421" type="line"/>
      <point x="287.5" y="648.578947368421"/>
      <point x="186.39473684210526" y="604.921052631579"/>
      <point x="85.26315789473685" y="570.5" type="curve"/>
    </contour>
    <contour>
      <point x="146.02631578947367" y="0.0" type="curve"/>
      <point x="333.0" y="0.0" type="line"/>
      <point x="340.1052631578948" y="71.05263157894737"/>
      <point x="348.50000000000006" y="132.76315789473685"/>
      <point x="366.15789473684214" y="215.73684210526315" type="curve"/>
      <point x="415.47368421052636" y="448.3157894736842" type="line"/>
      <point x="432.15789473684214" y="529.3684210526316"/>
      <point x="452.13157894736844" y="609.0526315789474"/>
      <point x="478.3421052631579" y="687.9473684210526" type="curve"/>
      <point x="388.9473684210526" y="692.578947368421" type="line"/>
      <point x="283.10526315789474" y="621.2894736842105" type="line"/>
      <point x="274.3684210526317" y="552.2105263157895"/>
      <point x="261.3421052631579" y="485.1578947368421"/>
      <point x="246.6578947368421" y="416.07894736842104" type="curve"/>
      <point x="204.57894736842104" y="215.73684210526315" type="line"/>
      <point x="186.92105263157893" y="132.76315789473685"/>
      <point x="169.28947368421052" y="71.05263157894737"/>
    </contour>
  </outline>
</glyph>
<glyph name="two" format="2">
  <advance width="570.6315789473684"/>
  <unicode hex="0032"/>
  <outline>
    <contour>
      <point x="-9.526315789473685" y="0.0" type="line"/>
      <point x="475.07894736842104" y="0.0" type="line"/>
      <point x="507.7368421052631" y="153.39473684210526" type="line"/>
      <point x="437.57894736842104" y="139.55263157894737"/>
      <point x="370.02631578947364" y="137.89473684210526"/>
      <point x="303.1578947368421" y="137.89473684210526" type="curve"/>
      <point x="180.44736842105266" y="137.89473684210526" type="line"/>
      <point x="197.31578947368422" y="102.55263157894738" type="line"/>
      <point x="310.05263157894734" y="177.97368421052633" type="line"/>
      <point x="467.52631578947364" y="282.8421052631579"/>
      <point x="544.2894736842105" y="359.7105263157895"/>
      <point x="566.6578947368421" y="466.2368421052632" type="curve" smooth="yes"/>
      <point x="594.921052631579" y="600.2894736842105"/>
      <point x="516.6052631578948" y="702.578947368421"/>
      <point x="350.9736842105263" y="702.578947368421" type="curve" smooth="yes"/>
      <point x="285.6315789473684" y="702.578947368421"/>
      <point x="186.3157894736842" y="671.4736842105262"/>
      <point x="123.10526315789474" y="653.421052631579" type="curve"/>
      <point x="105.0" y="489.7368421052632" type="line"/>
      <point x="186.18421052631578" y="535.1052631578946"/>
      <point x="279.13157894736844" y="566.6315789473684"/>
      <point x="311.49999999999994" y="566.6315789473684" type="curve"/>
      <point x="381.44736842105266" y="564.3157894736843"/>
      <point x="412.2631578947368" y="524.2105263157895"/>
      <point x="399.1578947368421" y="464.02631578947364" type="curve" smooth="yes"/>
      <point x="381.078947368421" y="378.9473684210526"/>
      <point x="285.5263157894737" y="305.7105263157895"/>
      <point x="139.3421052631579" y="199.60526315789474" type="curve"/>
      <point x="96.86842105263158" y="169.1578947368421"/>
      <point x="57.026315789473685" y="143.97368421052633"/>
      <point x="15.55263157894737" y="120.13157894736842" type="curve"/>
    </contour>
  </outline>
</glyph>
<glyph name="four" format="2">
  <advance width="615.1165048543689"/>
  <unicode hex="0034"/>
  <outline>
    <contour>
      <point x="265.55339805825236" y="0.0" type="curve"/>
      <point x="452.6699029126214" y="0.0" type="line"/>
      <point x="455.0873786407767" y="66.47572815533981"/>
      <point x="466.08737864077676" y="122.05825242718447"/>
      <point x="482.8252427184466" y="201.64077669902915" type="curve"/>
      <point x="534.7184466019418" y="447.1067961165048" type="line"/>
      <point x="550.7184466019418" y="526.1067961165049"/>
      <point x="569.0873786407767" y="605.1067961165049"/>
      <point x="598.3009708737864" y="688.1067961165049" type="curve"/>
      <point x="408.81553398058253" y="688.1067961165049" type="line"/>
      <point x="380.50485436893206" y="646.5825242718446"/>
      <point x="343.7184466019417" y="604.7961165048544"/>
      <point x="306.56310679611653" y="563.6407766990292" type="curve"/>
      <point x="199.62135922330097" y="445.33009708737865" type="line"/>
      <point x="146.83495145631068" y="386.54368932038835"/>
      <point x="74.15533980582525" y="308.495145631068"/>
      <point x="26.7378640776699" y="263.2912621359223" type="curve"/>
      <point x="1.8349514563106757" y="143.252427184466" type="line"/>
      <point x="366.3592233009709" y="143.252427184466" type="line"/>
      <point x="426.04854368932035" y="143.252427184466"/>
      <point x="511.5825242718446" y="141.88349514563103"/>
      <point x="564.5339805825241" y="135.03883495145627" type="curve"/>
      <point x="597.2815533980581" y="289.93203883495147" type="line"/>
      <point x="541.5922330097087" y="282.0873786407767"/>
      <point x="454.0582524271844" y="281.0873786407767"/>
      <point x="394.36893203883494" y="281.0873786407767" type="curve"/>
      <point x="376.7864077669903" y="273.70873786407765" type="line"/>
      <point x="155.8834951456311" y="273.70873786407765" type="line"/>
      <point x="166.94174757281556" y="241.1456310679612" type="line"/>
      <point x="198.99029126213594" y="282.30097087378647"/>
      <point x="235.14563106796118" y="324.45631067961165"/>
      <point x="272.3009708737864" y="365.61165048543694" type="curve"/>
      <point x="412.5533980582524" y="519.8640776699029" type="line"/>
      <point x="456.3398058252427" y="568.6504854368933"/>
      <point x="497.75728155339806" y="612.3300970873787"/>
      <point x="540.1747572815534" y="649.9029126213593" type="curve"/>
      <point x="408.87378640776694" y="619.7184466019418" type="line"/>
      <point x="403.45631067961165" y="551.1941747572815"/>
      <point x="390.19417475728153" y="483.66990291262135"/>
      <point x="375.5631067961165" y="414.5145631067961" type="curve"/>
      <point x="335.62135922330094" y="224.59223300970874" type="line"/>
      <point x="320.9805825242718" y="201.64077669902915" type="line"/>
      <point x="304.24271844660194" y="122.05825242718447"/>
      <point x="291.87378640776694" y="66.47572815533981"/>
    </contour>
  </outline>
</glyph>
<glyph name="five" format="2">
  <advance width="584.7961165048544"/>
  <unicode hex="0035"/>
  <outline>
    <contour>
      <point x="238.73786407766988" y="-13.475728155339805" type="curve" smooth="yes"/>
      <point x="418.1747572815534" y="-13.475728155339805"/>
      <point x="506.0679611650486" y="60.73786407766989"/>
      <point x="534.5922330097088" y="197.83495145631065" type="curve" smooth="yes"/>
      <point x="564.8543689320389" y="344.3592233009708"/>
      <point x="479.54368932038835" y="441.7281553398058"/>
      <point x="366.49514563106794" y="441.7281553398058" type="curve" smooth="yes"/>
      <point x="328.07766990291265" y="441.7281553398058"/>
      <point x="298.92233009708747" y="431.4660194174757"/>
      <point x="266.873786407767" y="416.5728155339806" type="curve"/>
      <point x="254.6601941747573" y="416.5728155339806" type="line"/>
      <point x="261.9223300970874" y="449.88349514563106" type="line"/>
      <point x="273.55339805825247" y="499.82524271844665"/>
      <point x="286.92233009708735" y="551.3980582524272"/>
      <point x="304.39805825242723" y="601.3398058252427" type="curve"/>
      <point x="238.4368932038835" y="550.2718446601941" type="line"/>
      <point x="337.9611650485437" y="550.2718446601941" type="line"/>
      <point x="415.2233009708738" y="550.2718446601941"/>
      <point x="495.116504854369" y="549.2718446601941"/>
      <point x="570.2718446601942" y="534.9514563106795" type="curve"/>
      <point x="602.0194174757282" y="688.1067961165049" type="line"/>
      <point x="154.40776699029124" y="688.1067961165049" type="line"/>
      <point x="147.8834951456311" y="605.1553398058252"/>
      <point x="129.51456310679612" y="513.4660194174758"/>
      <point x="108.77669902912619" y="415.77669902912623" type="curve"/>
      <point x="84.66990291262134" y="299.9805825242719" type="line"/>
      <point x="152.90291262135923" y="294.873786407767" type="line"/>
      <point x="196.67961165048544" y="317.97087378640776"/>
      <point x="234.20388349514565" y="326.126213592233"/>
      <point x="273.1941747572816" y="326.126213592233" type="curve"/>
      <point x="343.2330097087379" y="323.75728155339806"/>
      <point x="385.42718446601947" y="286.61165048543694"/>
      <point x="371.48543689320394" y="216.5339805825243" type="curve" smooth="yes"/>
      <point x="358.1747572815534" y="149.87378640776703"/>
      <point x="312.13592233009706" y="124.62135922330098"/>
      <point x="239.10679611650485" y="122.25242718446604" type="curve"/>
      <point x="182.6893203883495" y="122.25242718446604"/>
      <point x="102.7378640776699" y="154.35922330097088"/>
      <point x="36.320388349514566" y="194.25242718446606" type="curve"/>
      <point x="-6.165048543689317" y="45.94174757281554" type="line"/>
      <point x="46.83495145631067" y="26.41747572815534"/>
      <point x="130.20388349514565" y="-13.475728155339805"/>
    </contour>
  </outline>
</glyph>
<glyph name="seven" format="2">
  <advance width="551.7894736842105"/>
  <unicode hex="0037"/>
  <outline>
    <contour>
      <point x="30.18421052631579" y="0.0" type="curve"/>
      <point x="236.65789473684217" y="0.0" type="line"/>
      <point x="272.57894736842104" y="76.13157894736842"/>
      <point x="316.10526315789474" y="151.94736842105263"/>
      <point x="363.89473684210526" y="226.73684210526315" type="curve"/>
      <point x="446.44736842105266" y="355.63157894736844" type="line"/>
      <point x="495.2631578947368" y="432.13157894736844"/>
      <point x="539.7368421052632" y="501.6315789473684"/>
      <point x="586.2105263157895" y="565.8947368421052" type="curve"/>
      <point x="611.9473684210526" y="687.9473684210526" type="line"/>
      <point x="117.0" y="687.9473684210526" type="line"/>
      <point x="84.34210526315789" y="532.578947368421" type="line"/>
      <point x="163.8157894736842" y="546.1052631578948"/>
      <point x="240.97368421052633" y="550.0526315789474"/>
      <point x="316.47368421052636" y="550.0526315789474" type="curve"/>
      <point x="444.42105263157896" y="550.0526315789474" type="line"/>
      <point x="401.5526315789474" y="581.7631578947369" type="line"/>
      <point x="378.7105263157895" y="535.0"/>
      <point x="352.2631578947369" y="489.89473684210526"/>
      <point x="320.86842105263156" y="441.1578947368421" type="curve"/>
      <point x="197.21052631578945" y="250.44736842105263" type="line"/>
      <point x="143.42105263157893" y="167.31578947368422"/>
      <point x="87.63157894736841" y="82.5"/>
    </contour>
  </outline>
</glyph>
<glyph name="less" format="2">
  <advance width="579.7368421052631"/>
  <unicode hex="003C"/>
  <outline>
    <contour>
      <point x="486.2631578947369" y="44.55263157894736" type="curve"/>
      <point x="518.6052631578948" y="195.02631578947367" type="line"/>
      <point x="464.0263157894737" y="209.92105263157896"/>
      <point x="407.42105263157896" y="232.78947368421055"/>
      <point x="353.8157894736842" y="255.3157894736842" type="curve"/>
      <point x="267.7105263157895" y="291.2894736842105" type="line"/>
      <point x="270.36842105263156" y="303.86842105263156" type="line"/>
      <point x="370.60526315789474" y="338.52631578947364" type="line"/>
      <point x="434.9473684210526" y="361.05263157894734"/>
      <point x="500.9736842105263" y="382.60526315789474"/>
      <point x="561.6578947368422" y="397.5" type="curve"/>
      <point x="595.9736842105264" y="563.1842105263158" type="line"/>
      <point x="520.4736842105264" y="530.2631578947369"/>
      <point x="448.9473684210526" y="504.2631578947369"/>
      <point x="387.39473684210526" y="482.2631578947369" type="curve"/>
      <point x="283.6578947368421" y="445.1578947368421" type="line"/>
      <point x="222.13157894736844" y="423.5"/>
      <point x="151.26315789473685" y="399.1578947368421"/>
      <point x="78.07894736842105" y="379.10526315789474" type="curve"/>
      <point x="45.73684210526316" y="228.6315789473684" type="line"/>
      <point x="110.89473684210526" y="208.57894736842104"/>
      <point x="171.10526315789474" y="184.23684210526315"/>
      <point x="223.28947368421052" y="162.57894736842104" type="curve"/>
      <point x="311.0" y="125.47368421052632" type="line"/>
      <point x="363.2105263157895" y="103.47368421052632"/>
      <point x="424.7368421052632" y="77.13157894736842"/>
    </contour>
  </outline>
</glyph>
<glyph name="equal" format="2">
  <advance width="579.7368421052631"/>
  <unicode hex="003D"/>
  <outline>
    <contour>
      <point x="27.36842105263157" y="109.18421052631578" type="line"/>
      <point x="97.86842105263159" y="114.4736842105263"/>
      <point x="163.39473684210526" y="115.13157894736841"/>
      <point x="220.26315789473685" y="115.13157894736841" type="curve"/>
      <point x="303.1578947368421" y="115.13157894736841" type="line"/>
      <point x="360.02631578947364" y="115.13157894736841"/>
      <point x="425.55263157894734" y="114.4736842105263"/>
      <point x="493.421052631579" y="109.18421052631578" type="curve"/>
      <point x="524.7631578947369" y="256.3421052631579" type="line"/>
      <point x="454.57894736842104" y="251.05263157894737"/>
      <point x="389.05263157894734" y="250.39473684210526"/>
      <point x="332.1842105263158" y="250.39473684210526" type="curve"/>
      <point x="249.28947368421055" y="250.39473684210526" type="line"/>
      <point x="192.42105263157896" y="250.39473684210526"/>
      <point x="126.89473684210527" y="251.05263157894737"/>
      <point x="58.710526315789465" y="256.3421052631579" type="curve"/>
    </contour>
    <contour>
      <point x="78.26315789473684" y="352.07894736842104" type="line"/>
      <point x="148.76315789473685" y="357.3684210526316"/>
      <point x="214.28947368421052" y="358.0263157894737"/>
      <point x="271.1578947368421" y="358.0263157894737" type="curve"/>
      <point x="354.05263157894734" y="358.0263157894737" type="line"/>
      <point x="410.9210526315789" y="358.0263157894737"/>
      <point x="476.4473684210526" y="357.3684210526316"/>
      <point x="544.3157894736843" y="352.07894736842104" type="curve"/>
      <point x="575.6578947368421" y="499.2368421052632" type="line"/>
      <point x="505.4736842105263" y="493.9473684210526"/>
      <point x="439.9473684210526" y="493.2894736842105"/>
      <point x="383.07894736842104" y="493.2894736842105" type="curve"/>
      <point x="300.1842105263158" y="493.2894736842105" type="line"/>
      <point x="243.31578947368422" y="493.2894736842105"/>
      <point x="177.78947368421055" y="493.9473684210526"/>
      <point x="109.60526315789474" y="499.2368421052632" type="curve"/>
    </contour>
  </outline>
</glyph>
<glyph name="greater" format="2">
  <advance width="579.7368421052631"/>
  <unicode hex="003E"/>
  <outline>
    <contour>
      <point x="7.052631578947368" y="44.55263157894736" type="line"/>
      <point x="82.55263157894737" y="77.47368421052632"/>
      <point x="154.07894736842107" y="103.47368421052632"/>
      <point x="215.6315789473684" y="125.47368421052632" type="curve"/>
      <point x="319.3684210526316" y="162.57894736842104" type="line"/>
      <point x="380.89473684210526" y="184.23684210526315"/>
      <point x="451.7631578947368" y="208.57894736842104"/>
      <point x="524.9473684210527" y="228.6315789473684" type="curve"/>
      <point x="557.2894736842105" y="379.10526315789474" type="line"/>
      <point x="492.13157894736844" y="399.1578947368421"/>
      <point x="431.9210526315789" y="423.5"/>
      <point x="379.7368421052632" y="445.1578947368421" type="curve"/>
      <point x="292.0263157894737" y="482.2631578947369" type="line"/>
      <point x="239.81578947368422" y="504.2631578947369"/>
      <point x="178.28947368421055" y="530.6052631578948"/>
      <point x="116.76315789473685" y="563.1842105263158" type="curve"/>
      <point x="84.42105263157895" y="412.7105263157895" type="line"/>
      <point x="139.0" y="397.8157894736842"/>
      <point x="195.60526315789474" y="374.94736842105266"/>
      <point x="249.21052631578945" y="352.42105263157896" type="curve"/>
      <point x="335.31578947368416" y="316.4473684210526" type="line"/>
      <point x="332.6578947368421" y="303.86842105263156" type="line"/>
      <point x="232.42105263157893" y="269.2105263157895" type="line"/>
      <point x="168.07894736842104" y="246.6842105263158"/>
      <point x="102.05263157894737" y="225.13157894736844"/>
      <point x="41.36842105263158" y="210.23684210526315" type="curve"/>
    </contour>
  </outline>
</glyph>
<glyph name="at" format="2">
  <advance width="892.7631578947369"/>
  <unicode hex="0040"/>
  <outline>
    <contour>
      <point x="485.1578947368421" y="-145.0263157894737" type="curve" smooth="yes"/>
      <point x="570.4736842105262" y="-145.0263157894737"/>
      <point x="684.8421052631579" y="-112.26315789473685"/>
      <point x="768.4736842105264" y="-78.23684210526316" type="curve"/>
      <point x="768.4736842105264" y="26.868421052631582" type="line"/>
      <point x="658.9210526315788" y="-27.39473684210526"/>
      <point x="545.6315789473683" y="-51.1578947368421"/>
      <point x="485.1578947368421" y="-55.473684210526315" type="curve"/>
      <point x="221.8421052631579" y="-51.1578947368421"/>
      <point x="103.05263157894737" y="118.3157894736842"/>
      <point x="150.68421052631578" y="336.2894736842105" type="curve" smooth="yes"/>
      <point x="186.78947368421052" y="502.86842105263156"/>
      <point x="299.57894736842104" y="603.6315789473684"/>
      <point x="480.1578947368421" y="607.9473684210526" type="curve"/>
      <point x="682.7894736842105" y="603.6315789473684"/>
      <point x="800.2631578947369" y="473.42105263157896"/>
      <point x="760.578947368421" y="273.6578947368421" type="curve" smooth="yes"/>
      <point x="747.8684210526316" y="209.44736842105263"/>
      <point x="694.578947368421" y="154.84210526315792"/>
      <point x="657.7368421052631" y="152.21052631578948" type="curve"/>
      <point x="616.5263157894736" y="155.5263157894737"/>
      <point x="602.7368421052631" y="182.23684210526315"/>
      <point x="619.0263157894736" y="260.39473684210526" type="curve"/>
      <point x="631.8157894736842" y="321.0" type="line"/>
      <point x="645.4736842105264" y="376.07894736842104"/>
      <point x="661.4473684210526" y="431.7894736842105"/>
      <point x="683.0789473684212" y="485.89473684210526" type="curve"/>
      <point x="560.6315789473684" y="479.60526315789474" type="line"/>
      <point x="543.9736842105262" y="427.89473684210526" type="line"/>
      <point x="533.7105263157895" y="427.89473684210526" type="line"/>
      <point x="508.63157894736844" y="467.4736842105263"/>
      <point x="460.8157894736842" y="491.2368421052632"/>
      <point x="420.6578947368421" y="491.2368421052632" type="curve" smooth="yes"/>
      <point x="327.9736842105263" y="491.2368421052632"/>
      <point x="262.5263157894737" y="411.05263157894734"/>
      <point x="241.8157894736842" y="309.2105263157895" type="curve" smooth="yes"/>
      <point x="216.15789473684208" y="182.6578947368421"/>
      <point x="270.05263157894734" y="69.05263157894737"/>
      <point x="381.84210526315786" y="69.05263157894737" type="curve" smooth="yes"/>
      <point x="415.9736842105263" y="69.05263157894737"/>
      <point x="463.3157894736842" y="92.36842105263159"/>
      <point x="500.7631578947368" y="135.07894736842107" type="curve"/>
      <point x="510.36842105263156" y="135.07894736842107" type="line"/>
      <point x="528.8684210526316" y="94.13157894736841"/>
      <point x="579.8684210526316" y="60.368421052631575"/>
      <point x="658.1578947368421" y="60.368421052631575" type="curve" smooth="yes"/>
      <point x="711.7368421052631" y="60.368421052631575"/>
      <point x="829.1315789473684" y="123.84210526315788"/>
      <point x="855.0526315789474" y="254.5" type="curve" smooth="yes"/>
      <point x="903.3157894736842" y="499.2631578947368"/>
      <point x="741.5263157894736" y="697.5"/>
      <point x="481.8157894736842" y="697.5" type="curve" smooth="yes"/>
      <point x="286.55263157894734" y="697.5"/>
      <point x="106.13157894736842" y="592.5526315789474"/>
      <point x="56.526315789473685" y="356.7368421052632" type="curve" smooth="yes"/>
      <point x="0.3157894736842106" y="91.21052631578948"/>
      <point x="159.76315789473682" y="-145.0263157894737"/>
    </contour>
    <contour>
      <point x="419.39473684210526" y="178.6578947368421" type="curve"/>
      <point x="371.0263157894737" y="180.6578947368421"/>
      <point x="351.13157894736844" y="230.10526315789474"/>
      <point x="362.9473684210526" y="287.13157894736844" type="curve" smooth="yes"/>
      <point x="374.05263157894734" y="339.9473684210526"/>
      <point x="404.6842105263158" y="376.65789473684214"/>
      <point x="452.2631578947368" y="379.3157894736842" type="curve"/>
      <point x="478.2631578947368" y="378.3421052631579"/>
      <point x="499.2894736842105" y="365.4736842105263"/>
      <point x="514.2368421052632" y="348.86842105263156" type="curve"/>
      <point x="487.36842105263156" y="223.60526315789474" type="line"/>
      <point x="466.6842105263158" y="193.1578947368421"/>
      <point x="442.3157894736842" y="180.6578947368421"/>
    </contour>
  </outline>
</glyph>
<glyph name="A" format="2">
  <advance width="723.921052631579"/>
  <unicode hex="0041"/>
  <anchor x="309.63157894736844" y="0.0" name="bottom"/>
  <anchor x="659.9736842105264" y="0.0" name="ogonek"/>
  <anchor x="458.3157894736842" y="713.0" name="top"/>
  <outline>
    <contour>
      <point x="-44.68421052631579" y="0.0" type="curve"/>
      <point x="166.10526315789477" y="0.0" type="line"/>
      <point x="193.42105263157893" y="75.86842105263158"/>
      <point x="226.73684210526318" y="155.73684210526315"/>
      <point x="262.6315789473684" y="230.26315789473685" type="curve"/>
      <point x="425.65789473684214" y="567.1315789473684" type="line"/>
      <point x="438.2368421052632" y="567.1315789473684" type="line"/>
      <point x="463.1578947368421" y="228.6052631578947" type="line"/>
      <point x="468.2894736842105" y="156.07894736842104"/>
      <point x="471.4736842105263" y="75.49999999999999"/>
      <point x="465.7105263157894" y="0.0" type="curve"/>
      <point x="663.921052631579" y="0.0" type="line"/>
      <point x="648.2631578947369" y="75.0"/>
      <point x="631.6052631578948" y="163.0"/>
      <point x="622.8684210526316" y="240.3684210526316" type="curve"/>
      <point x="595.3421052631579" y="486.3421052631579" type="line"/>
      <point x="585.6052631578948" y="574.0"/>
      <point x="582.5" y="639.0526315789474"/>
      <point x="585.3421052631579" y="713.0" type="curve"/>
      <point x="334.28947368421046" y="713.0" type="line"/>
      <point x="304.78947368421046" y="637.6842105263158"/>
      <point x="272.36842105263156" y="571.3421052631579"/>
      <point x="226.9736842105263" y="486.0263157894737" type="curve"/>
      <point x="97.42105263157895" y="243.0" type="line"/>
      <point x="56.02631578947368" y="166.0"/>
      <point x="5.315789473684209" y="75.68421052631578"/>
    </contour>
    <contour>
      <point x="174.71052631578948" y="145.76315789473682" type="line"/>
      <point x="522.3421052631579" y="145.76315789473682" type="line"/>
      <point x="533.6052631578948" y="274.44736842105266" type="line"/>
      <point x="219.5263157894737" y="274.44736842105266" type="line"/>
    </contour>
  </outline>
</glyph>
<glyph name="C" format="2">
  <advance width="682.7105263157895"/>
  <unicode hex="0043"/>
  <anchor x="343.0789473684211" y="0.0" name="bottom"/>
  <anchor x="489.65789473684214" y="713.0" name="top"/>
  <outline>
    <contour>
      <point x="384.2894736842105" y="-13.605263157894736" type="curve" smooth="yes"/>
      <point x="455.2368421052632" y="-13.605263157894736"/>
      <point x="534.2105263157895" y="6.394736842105263"/>
      <point x="588.5789473684212" y="27.18421052631579" type="curve"/>
      <point x="614.2631578947369" y="191.89473684210526" type="line"/>
      <point x="548.6578947368421" y="151.26315789473685"/>
      <point x="467.42105263157896" y="127.94736842105264"/>
      <point x="413.5526315789474" y="127.94736842105264" type="curve"/>
      <point x="265.3157894736842" y="131.60526315789477"/>
      <point x="214.5526315789474" y="253.99999999999997"/>
      <point x="240.73684210526318" y="378.5263157894737" type="curve" smooth="yes"/>
      <point x="271.2368421052632" y="523.9473684210526"/>
      <point x="367.10526315789474" y="577.8157894736842"/>
      <point x="465.6052631578947" y="581.4736842105262" type="curve"/>
      <point x="503.2894736842105" y="581.4736842105262"/>
      <point x="581.0526315789473" y="562.1578947368421"/>
      <point x="682.6578947368421" y="513.8947368421053" type="curve"/>
      <point x="729.5263157894736" y="676.2105263157895" type="line"/>
      <point x="668.5526315789475" y="697.5789473684212"/>
      <point x="573.8684210526317" y="727.6315789473684"/>
      <point x="482.7368421052632" y="727.6315789473684" type="curve" smooth="yes"/>
      <point x="251.1315789473684" y="727.6315789473684"/>
      <point x="110.97368421052632" y="614.6315789473684"/>
      <point x="66.63157894736841" y="401.63157894736844" type="curve" smooth="yes"/>
      <point x="19.999999999999993" y="179.8157894736842"/>
      <point x="134.1578947368421" y="-13.605263157894736"/>
    </contour>
  </outline>
</glyph>
<glyph name="D" format="2">
  <advance width="736.3684210526316"/>
  <unicode hex="0044"/>
  <anchor x="300.63157894736844" y="0.0" name="bottom"/>
  <anchor x="391.506" y="357.0" name="center"/>
  <anchor x="450.63157894736844" y="713.0" name="top"/>
  <outline>
    <contour>
      <point x="5.342105263157891" y="0.0" type="curve"/>
      <point x="92.0" y="0.0"/>
      <point x="177.9736842105263" y="-6.2631578947368425"/>
      <point x="287.6842105263158" y="-6.2631578947368425" type="curve"/>
      <point x="567.1052631578948" y="-6.2631578947368425"/>
      <point x="676.3947368421053" y="129.65789473684208"/>
      <point x="718.078947368421" y="331.6842105263158" type="curve" smooth="yes"/>
      <point x="760.7368421052632" y="539.9210526315788"/>
      <point x="655.1052631578947" y="717.9473684210526"/>
      <point x="428.94736842105266" y="717.9473684210526" type="curve"/>
      <point x="331.42105263157896" y="717.9473684210526"/>
      <point x="233.71052631578945" y="713.0"/>
      <point x="155.3421052631579" y="713.0" type="curve"/>
      <point x="147.57894736842104" y="634.6315789473684"/>
      <point x="138.18421052631578" y="566.6052631578947"/>
      <point x="118.52631578947367" y="473.65789473684214" type="curve"/>
      <point x="67.21052631578947" y="232.07894736842104" type="line"/>
      <point x="48.55263157894736" y="142.44736842105263"/>
      <point x="30.26315789473684" y="76.39473684210526"/>
    </contour>
    <contour>
      <point x="224.0" y="137.57894736842104" type="line"/>
      <point x="230.07894736842104" y="178.60526315789474"/>
      <point x="237.8157894736842" y="221.21052631578948"/>
      <point x="249.21052631578945" y="275.5" type="curve"/>
      <point x="282.7631578947368" y="434.2105263157894" type="line"/>
      <point x="294.8157894736842" y="491.1315789473684"/>
      <point x="305.52631578947364" y="532.421052631579"/>
      <point x="317.578947368421" y="575.421052631579" type="curve"/>
      <point x="388.05263157894734" y="575.421052631579" type="line"/>
      <point x="525.6578947368422" y="570.4473684210526"/>
      <point x="567.8421052631579" y="471.00000000000006"/>
      <point x="541.3421052631579" y="347.2368421052632" type="curve" smooth="yes"/>
      <point x="515.1578947368422" y="223.34210526315792"/>
      <point x="462.3684210526315" y="143.21052631578945"/>
      <point x="303.1578947368421" y="137.57894736842104" type="curve"/>
    </contour>
  </outline>
</glyph>
<glyph name="E" format="2">
  <advance width="599.9514563106796"/>
  <unicode hex="0045"/>
  <anchor x="258.15533980582524" y="0.0" name="bottom"/>
  <anchor x="495.9029126213593" y="0.0" name="ogonek"/>
  <anchor x="408.15533980582524" y="713.0" name="top"/>
  <anchor x="135.0" y="713.0" name="topleft"/>
  <outline>
    <contour>
      <point x="5.5048543689320315" y="0.0" type="curve"/>
      <point x="200.83495145631068" y="0.0" type="line"/>
      <point x="207.3106796116505" y="27.378640776699033" type="line"/>
      <point x="213.0970873786408" y="103.90291262135923"/>
      <point x="223.62135922330097" y="169.79611650485435"/>
      <point x="242.621359223301" y="259.5339805825243" type="curve"/>
      <point x="281.6699029126214" y="447.252427184466" type="line"/>
      <point x="301.0388349514564" y="539.7281553398058"/>
      <point x="320.14563106796123" y="607.3592233009708"/>
      <point x="345.3592233009709" y="685.6213592233009" type="curve"/>
      <point x="350.8349514563107" y="713.0" type="line"/>
      <point x="155.50485436893206" y="713.0" type="line"/>
      <point x="147.71844660194174" y="634.7378640776699"/>
      <point x="138.19417475728156" y="566.4757281553399"/>
      <point x="118.8252427184466" y="473.36893203883494" type="curve"/>
      <point x="67.45631067961165" y="232.15533980582524" type="line"/>
      <point x="48.45631067961164" y="142.41747572815532"/>
      <point x="30.34951456310679" y="76.52427184466019"/>
    </contour>
    <contour>
      <point x="168.45631067961168" y="0.0" type="line"/>
      <point x="499.3786407766991" y="0.0" type="line"/>
      <point x="532.3883495145632" y="153.57281553398062" type="line"/>
      <point x="464.33980582524276" y="142.3592233009709"/>
      <point x="395.02912621359224" y="139.99029126213594"/>
      <point x="316.4563106796117" y="139.99029126213594" type="curve"/>
      <point x="198.0970873786408" y="139.99029126213594" type="line"/>
    </contour>
    <contour>
      <point x="209.60194174757282" y="294.3495145631068" type="line"/>
      <point x="339.17475728155347" y="294.3495145631068" type="line"/>
      <point x="423.2233009708738" y="294.3495145631068"/>
      <point x="480.37864077669906" y="292.9805825242719"/>
      <point x="540.7961165048544" y="287.1359223300971" type="curve"/>
      <point x="571.6990291262135" y="432.91262135922335" type="line"/>
      <point x="511.54368932038835" y="425.4368932038835"/>
      <point x="453.3883495145631" y="424.0679611650486"/>
      <point x="366.97087378640776" y="424.0679611650486" type="curve"/>
      <point x="236.76699029126215" y="424.0679611650486" type="line"/>
    </contour>
    <contour>
      <point x="278.2330097087378" y="573.0097087378641" type="line"/>
      <point x="395.3300970873787" y="573.0097087378641" type="line"/>
      <point x="489.53398058252435" y="573.0097087378641"/>
      <point x="553.8446601941748" y="568.9029126213593"/>
      <point x="613.5242718446601" y="559.4271844660195" type="curve"/>
      <point x="645.5339805825242" y="713.0" type="line"/>
      <point x="307.50485436893206" y="713.0" type="line"/>
    </contour>
  </outline>
</glyph>
<glyph name="F" format="2">
  <advance width="580.8684210526316"/>
  <unicode hex="0046"/>
  <outline>
    <contour>
      <point x="5.342105263157891" y="0.0" type="curve"/>
      <point x="200.8947368421053" y="0.0" type="line"/>
      <point x="207.6578947368421" y="76.39473684210526"/>
      <point x="217.0526315789474" y="141.76315789473682"/>
      <point x="236.05263157894737" y="232.07894736842104" type="curve"/>
      <point x="281.44736842105266" y="447.0" type="line"/>
      <point x="300.7631578947369" y="539.6052631578948"/>
      <point x="320.05263157894746" y="607.2894736842105"/>
      <point x="345.63157894736844" y="685.6578947368421" type="curve"/>
      <point x="350.89473684210526" y="713.0" type="line"/>
      <point x="155.3421052631579" y="713.0" type="line"/>
      <point x="147.57894736842104" y="634.6315789473684"/>
      <point x="138.18421052631578" y="566.6052631578947"/>
      <point x="118.52631578947367" y="473.65789473684214" type="curve"/>
      <point x="67.21052631578947" y="232.07894736842104" type="line"/>
      <point x="48.55263157894736" y="142.44736842105263"/>
      <point x="30.26315789473684" y="76.39473684210526"/>
    </contour>
    <contour>
      <point x="203.05263157894737" y="279.89473684210526" type="line"/>
      <point x="329.15789473684214" y="279.89473684210526" type="line"/>
      <point x="413.2894736842105" y="279.89473684210526"/>
      <point x="469.71052631578954" y="278.57894736842104"/>
      <point x="530.157894736842" y="272.3157894736842" type="curve"/>
      <point x="562.8157894736842" y="426.39473684210526" type="line"/>
      <point x="503.07894736842104" y="418.7894736842105"/>
      <point x="445.0" y="417.4736842105263"/>
      <point x="358.2105263157895" y="417.4736842105263" type="curve"/>
      <point x="231.76315789473685" y="417.4736842105263" type="line"/>
    </contour>
    <contour>
      <point x="274.3684210526316" y="569.5" type="line"/>
      <point x="387.8684210526316" y="569.5" type="line"/>
      <point x="482.07894736842104" y="569.5"/>
      <point x="546.2368421052632" y="565.2105263157895"/>
      <point x="606.0526315789473" y="556.2894736842105" type="curve"/>
      <point x="638.7105263157895" y="713.0" type="line"/>
      <point x="304.3947368421053" y="713.0" type="line"/>
    </contour>
  </outline>
</glyph>
<glyph name="G" format="2">
  <advance width="727.1315789473684"/>
  <unicode hex="0047"/>
  <anchor x="343.0789473684211" y="0.0" name="bottom"/>
  <anchor x="493.0789473684211" y="713.0" name="top"/>
  <outline>
    <contour>
      <point x="401.94736842105266" y="-12.947368421052632" type="curve" smooth="yes"/>
      <point x="471.3421052631579" y="-12.947368421052632"/>
      <point x="575.4736842105264" y="7.7368421052631575"/>
      <point x="631.7894736842105" y="20.868421052631582" type="curve"/>
      <point x="634.3947368421053" y="177.6315789473684" type="line"/>
      <point x="558.1052631578947" y="140.6578947368421"/>
      <point x="495.2894736842106" y="124.65789473684211"/>
      <point x="412.81578947368416" y="124.65789473684211" type="curve"/>
      <point x="263.89473684210526" y="128.31578947368422"/>
      <point x="211.92105263157896" y="250.05263157894737"/>
      <point x="239.42105263157896" y="379.8421052631579" type="curve" smooth="yes"/>
      <point x="270.92105263157896" y="528.6052631578947"/>
      <point x="376.9473684210526" y="578.4736842105262"/>
      <point x="471.5" y="581.4736842105262" type="curve"/>
      <point x="511.18421052631584" y="581.4736842105262"/>
      <point x="593.9473684210526" y="561.1315789473684"/>
      <point x="702.2105263157895" y="509.7894736842105" type="curve"/>
      <point x="749.078947368421" y="671.4473684210527" type="line"/>
      <point x="680.8157894736842" y="694.5263157894738"/>
      <point x="576.1842105263158" y="727.6315789473684"/>
      <point x="475.1052631578948" y="727.6315789473684" type="curve" smooth="yes"/>
      <point x="254.3157894736842" y="727.6315789473684"/>
      <point x="112.28947368421052" y="619.2105263157895"/>
      <point x="66.63157894736841" y="401.6315789473684" type="curve" smooth="yes"/>
      <point x="20.97368421052631" y="184.3684210526316"/>
      <point x="123.92105263157893" y="-12.947368421052632"/>
    </contour>
    <contour>
      <point x="455.65789473684214" y="20.868421052631575" type="curve"/>
      <point x="631.7894736842105" y="20.868421052631582" type="line"/>
      <point x="640.8421052631578" y="94.76315789473684"/>
      <point x="650.5" y="148.02631578947367"/>
      <point x="662.4736842105262" y="204.60526315789474" type="curve"/>
      <point x="676.1315789473683" y="270.5263157894737"/>
      <point x="690.7368421052631" y="317.13157894736844"/>
      <point x="710.6315789473684" y="370.0526315789474" type="curve"/>
      <point x="521.6315789473684" y="370.0526315789474" type="line"/>
      <point x="519.8947368421053" y="317.13157894736844"/>
      <point x="514.5263157894736" y="270.5263157894737"/>
      <point x="500.86842105263156" y="204.60526315789474" type="curve"/>
      <point x="488.89473684210526" y="148.02631578947367"/>
      <point x="475.6052631578948" y="94.76315789473684"/>
    </contour>
  </outline>
</glyph>
<glyph name="H" format="2">
  <advance width="757.2368421052631"/>
  <unicode hex="0048"/>
  <anchor x="326.2894736842105" y="0.0" name="bottom"/>
  <anchor x="401.2894736842105" y="357.0" name="center"/>
  <anchor x="476.2894736842105" y="713.0" name="top"/>
  <anchor x="137.94736842105263" y="713.0" name="topleft"/>
  <outline>
    <contour>
      <point x="447.07894736842104" y="0.0" type="curve"/>
      <point x="646.578947368421" y="0.0" type="line"/>
      <point x="653.3421052631579" y="76.39473684210526"/>
      <point x="662.7368421052631" y="141.76315789473682"/>
      <point x="681.7368421052632" y="232.07894736842104" type="curve"/>
      <point x="733.0526315789474" y="473.65789473684214" type="line"/>
      <point x="752.7105263157895" y="566.6052631578947"/>
      <point x="771.0" y="634.6315789473684"/>
      <point x="796.578947368421" y="713.0" type="curve"/>
      <point x="597.078947368421" y="713.0" type="line"/>
      <point x="589.3157894736843" y="634.6315789473684"/>
      <point x="579.921052631579" y="566.6052631578947"/>
      <point x="560.2631578947369" y="473.65789473684214" type="curve"/>
      <point x="508.94736842105266" y="232.07894736842104" type="line"/>
      <point x="490.2894736842105" y="142.44736842105263"/>
      <point x="472.0" y="76.39473684210526"/>
    </contour>
    <contour>
      <point x="5.342105263157891" y="0.0" type="curve"/>
      <point x="204.8421052631579" y="0.0" type="line"/>
      <point x="211.6052631578947" y="76.39473684210526"/>
      <point x="221.0" y="141.76315789473682"/>
      <point x="239.99999999999997" y="232.07894736842104" type="curve"/>
      <point x="291.3157894736842" y="473.65789473684214" type="line"/>
      <point x="310.9736842105263" y="566.6052631578947"/>
      <point x="329.2631578947369" y="634.6315789473684"/>
      <point x="354.8421052631579" y="713.0" type="curve"/>
      <point x="155.3421052631579" y="713.0" type="line"/>
      <point x="147.57894736842104" y="634.6315789473684"/>
      <point x="138.18421052631578" y="566.6052631578947"/>
      <point x="118.52631578947367" y="473.65789473684214" type="curve"/>
      <point x="67.21052631578947" y="232.07894736842104" type="line"/>
      <point x="48.55263157894736" y="142.44736842105263"/>
      <point x="30.26315789473684" y="76.39473684210526"/>
    </contour>
    <contour>
      <point x="204.5" y="287.13157894736844" type="line"/>
      <point x="569.7631578947369" y="287.13157894736844" type="line"/>
      <point x="600.4473684210526" y="430.63157894736844" type="line"/>
      <point x="235.1842105263158" y="430.63157894736844" type="line"/>
    </contour>
  </outline>
</glyph>
<glyph name="I" format="2">
  <advance width="325.36842105263156"/>
  <unicode hex="0049"/>
  <anchor x="106.89473684210526" y="0.0" name="bottom"/>
  <anchor x="208.1315789473684" y="0.0" name="ogonek"/>
  <anchor x="256.89473684210526" y="713.0" name="top"/>
  <anchor x="130.39473684210526" y="713.0" name="topleft"/>
  <outline>
    <contour>
      <point x="8.63157894736841" y="0.0" type="curve"/>
      <point x="211.42105263157896" y="0.0" type="line"/>
      <point x="218.18421052631578" y="76.39473684210526"/>
      <point x="227.57894736842107" y="141.76315789473682"/>
      <point x="246.57894736842104" y="232.07894736842104" type="curve"/>
      <point x="297.8947368421053" y="473.65789473684214" type="line"/>
      <point x="317.5526315789474" y="566.6052631578947"/>
      <point x="335.842105263158" y="634.6315789473684"/>
      <point x="361.421052631579" y="713.0" type="curve"/>
      <point x="158.6315789473684" y="713.0" type="line"/>
      <point x="150.86842105263156" y="634.6315789473684"/>
      <point x="141.4736842105263" y="566.6052631578947"/>
      <point x="121.81578947368419" y="473.65789473684214" type="curve"/>
      <point x="70.49999999999999" y="232.07894736842104" type="line"/>
      <point x="51.84210526315788" y="142.44736842105263"/>
      <point x="33.552631578947356" y="76.39473684210526"/>
    </contour>
  </outline>
</glyph>
<glyph name="J" format="2">
  <advance width="327.57894736842104"/>
  <unicode hex="004A"/>
  <anchor x="111.39473684210526" y="0.0" name="bottom"/>
  <anchor x="261.39473684210526" y="713.0" name="top"/>
  <outline>
    <contour>
      <point x="-88.02631578947368" y="-154.73684210526315" type="curve"/>
      <point x="88.34210526315792" y="-154.73684210526315" type="line"/>
      <point x="135.6578947368421" y="-108.42105263157895"/>
      <point x="201.9736842105263" y="-36.76315789473684"/>
      <point x="224.94736842105263" y="71.13157894736842" type="curve" smooth="yes"/>
      <point x="242.23684210526318" y="153.23684210526315"/>
      <point x="250.63157894736844" y="241.0"/>
      <point x="270.2631578947368" y="334.1578947368421" type="curve"/>
      <point x="300.10526315789474" y="473.65789473684214" type="line"/>
      <point x="319.7631578947368" y="566.6052631578947"/>
      <point x="338.0526315789474" y="634.6315789473684"/>
      <point x="363.63157894736844" y="713.0" type="curve"/>
      <point x="164.13157894736844" y="713.0" type="line"/>
      <point x="156.3684210526316" y="634.6315789473684"/>
      <point x="146.97368421052633" y="566.6052631578947"/>
      <point x="127.3157894736842" y="473.65789473684214" type="curve"/>
      <point x="95.07894736842105" y="322.86842105263156" type="line"/>
      <point x="43.57894736842105" y="80.05263157894737" type="line"/>
      <point x="25.236842105263158" y="-6.315789473684208"/>
      <point x="-22.631578947368425" y="-84.52631578947368"/>
    </contour>
  </outline>
</glyph>
<glyph name="K" format="2">
  <advance width="704.921052631579"/>
  <unicode hex="004B"/>
  <anchor x="308.2894736842105" y="0.0" name="bottom"/>
  <anchor x="458.2894736842105" y="713.0" name="top"/>
  <outline>
    <contour>
      <point x="424.84210526315786" y="0.0" type="curve"/>
      <point x="647.5526315789474" y="0.0" type="line"/>
      <point x="602.3947368421053" y="62.28947368421052"/>
      <point x="542.0526315789473" y="167.1315789473684"/>
      <point x="499.7631578947368" y="245.0263157894737" type="curve"/>
      <point x="406.5" y="414.7894736842106" type="line"/>
      <point x="405.86842105263156" y="337.57894736842104" type="line"/>
      <point x="547.0263157894738" y="483.13157894736844" type="line"/>
      <point x="622.2894736842105" y="560.0526315789474"/>
      <point x="696.8947368421052" y="635.9999999999999"/>
      <point x="783.1315789473686" y="713.0" type="curve"/>
      <point x="546.8157894736843" y="713.0" type="line"/>
      <point x="498.7631578947368" y="646.8157894736842"/>
      <point x="458.02631578947364" y="598.3947368421053"/>
      <point x="410.57894736842104" y="546.921052631579" type="curve"/>
      <point x="309.60526315789474" y="438.2631578947369" type="line"/>
      <point x="269.57894736842104" y="438.2631578947369" type="line"/>
      <point x="241.5263157894737" y="303.3157894736842" type="line"/>
      <point x="283.84210526315786" y="303.3157894736842" type="line"/>
      <point x="351.1578947368421" y="169.68421052631578" type="line"/>
      <point x="377.21052631578954" y="118.23684210526316"/>
      <point x="402.60526315789474" y="65.44736842105263"/>
    </contour>
    <contour>
      <point x="5.342105263157891" y="0.0" type="curve"/>
      <point x="204.1842105263158" y="0.0" type="line"/>
      <point x="210.94736842105263" y="76.39473684210526"/>
      <point x="220.34210526315792" y="141.76315789473682"/>
      <point x="239.3421052631579" y="232.07894736842104" type="curve"/>
      <point x="290.65789473684214" y="473.65789473684214" type="line"/>
      <point x="310.3157894736842" y="566.6052631578947"/>
      <point x="328.6052631578948" y="634.6315789473684"/>
      <point x="354.18421052631584" y="713.0" type="curve"/>
      <point x="155.3421052631579" y="713.0" type="line"/>
      <point x="147.57894736842104" y="634.6315789473684"/>
      <point x="138.18421052631578" y="566.6052631578947"/>
      <point x="118.52631578947367" y="473.65789473684214" type="curve"/>
      <point x="67.21052631578947" y="232.07894736842104" type="line"/>
      <point x="48.55263157894736" y="142.44736842105263"/>
      <point x="30.26315789473684" y="76.39473684210526"/>
    </contour>
  </outline>
</glyph>
<glyph name="L" format="2">
  <advance width="574.5526315789474"/>
  <unicode hex="004C"/>
  <anchor x="252.52631578947367" y="0.0" name="bottom"/>
  <anchor x="463.2894736842105" y="358.9736842105263" name="center"/>
  <anchor x="328.68421052631584" y="713.0" name="top"/>
  <anchor x="358.81578947368416" y="499.2631578947368" name="topright"/>
  <outline>
    <contour>
      <point x="5.342105263157891" y="0.0" type="curve"/>
      <point x="204.8421052631579" y="0.0" type="line"/>
      <point x="211.10526315789474" y="27.68421052631579" type="line"/>
      <point x="217.21052631578945" y="104.07894736842105"/>
      <point x="227.60526315789474" y="170.1315789473684"/>
      <point x="246.26315789473682" y="259.7631578947368" type="curve"/>
      <point x="291.3157894736842" y="473.65789473684214" type="line"/>
      <point x="310.9736842105263" y="566.6052631578947"/>
      <point x="329.2631578947369" y="634.6315789473684"/>
      <point x="354.8421052631579" y="713.0" type="curve"/>
      <point x="155.3421052631579" y="713.0" type="line"/>
      <point x="147.57894736842104" y="634.6315789473684"/>
      <point x="138.18421052631578" y="566.6052631578947"/>
      <point x="118.52631578947367" y="473.65789473684214" type="curve"/>
      <point x="67.21052631578947" y="232.07894736842104" type="line"/>
      <point x="48.55263157894736" y="142.44736842105263"/>
      <point x="30.26315789473684" y="76.39473684210526"/>
    </contour>
    <contour>
      <point x="168.21052631578945" y="0.0" type="line"/>
      <point x="493.10526315789474" y="0.0" type="line"/>
      <point x="528.3947368421053" y="167.89473684210526" type="line"/>
      <point x="456.2368421052632" y="155.68421052631578"/>
      <point x="396.4210526315789" y="150.07894736842104"/>
      <point x="294.4736842105263" y="150.07894736842104" type="curve"/>
      <point x="200.21052631578945" y="150.07894736842104" type="line"/>
    </contour>
  </outline>
</glyph>
<glyph name="M" format="2">
  <advance width="963.8157894736843"/>
  <unicode hex="004D"/>
  <anchor x="428.92105263157896" y="0.0" name="bottom"/>
  <anchor x="578.921052631579" y="713.0" name="top"/>
  <outline>
    <contour>
      <point x="-16.78947368421053" y="0.0" type="curve"/>
      <point x="173.5263157894737" y="0.0" type="line"/>
      <point x="193.55263157894734" y="95.97368421052632"/>
      <point x="216.8421052631579" y="184.94736842105263"/>
      <point x="242.3421052631579" y="261.13157894736844" type="curve"/>
      <point x="297.0263157894737" y="425.57894736842104" type="line"/>
      <point x="308.57894736842104" y="425.57894736842104" type="line"/>
      <point x="337.9473684210526" y="248.3421052631579" type="line"/>
      <point x="351.1052631578948" y="166.10526315789474"/>
      <point x="358.7105263157895" y="73.73684210526315"/>
      <point x="362.60526315789474" y="0.0" type="curve"/>
      <point x="502.8157894736842" y="0.0" type="line"/>
      <point x="538.2631578947368" y="75.47368421052632"/>
      <point x="582.4736842105262" y="164.10526315789474"/>
      <point x="628.6052631578948" y="249.02631578947367" type="curve"/>
      <point x="724.578947368421" y="425.57894736842104" type="line"/>
      <point x="736.1315789473683" y="425.57894736842104" type="line"/>
      <point x="721.3684210526316" y="261.13157894736844" type="line"/>
      <point x="714.6578947368421" y="184.94736842105263"/>
      <point x="700.6578947368422" y="96.34210526315789"/>
      <point x="680.0526315789474" y="0.0" type="curve"/>
      <point x="875.2894736842106" y="0.0" type="line"/>
      <point x="874.0526315789475" y="75.73684210526315"/>
      <point x="874.7894736842105" y="145.42105263157896"/>
      <point x="882.1315789473684" y="232.07894736842104" type="curve"/>
      <point x="902.1578947368421" y="472.3421052631579" type="line"/>
      <point x="909.5" y="559.0263157894738"/>
      <point x="919.7894736842105" y="633.6315789473684"/>
      <point x="933.3947368421052" y="713.0" type="curve"/>
      <point x="731.8684210526316" y="713.0" type="line"/>
      <point x="694.421052631579" y="629.5526315789473"/>
      <point x="656.0263157894738" y="558.7105263157895"/>
      <point x="614.0" y="484.57894736842104" type="curve"/>
      <point x="490.2631578947368" y="266.8421052631579" type="line"/>
      <point x="479.0263157894737" y="266.8421052631579" type="line"/>
      <point x="442.63157894736844" y="484.57894736842104" type="line"/>
      <point x="430.5" y="558.7105263157895"/>
      <point x="419.0263157894737" y="631.5263157894738"/>
      <point x="417.44736842105266" y="713.0" type="curve"/>
      <point x="222.1842105263158" y="713.0" type="line"/>
      <point x="204.10526315789474" y="632.6315789473684"/>
      <point x="182.42105263157896" y="558.3421052631579"/>
      <point x="153.42105263157896" y="472.3421052631579" type="curve"/>
      <point x="73.44736842105264" y="232.07894736842104" type="line"/>
      <point x="44.44736842105264" y="145.73684210526315"/>
      <point x="15.842105263157892" y="73.76315789473685"/>
    </contour>
  </outline>
</glyph>
<glyph name="N" format="2">
  <advance width="757.7105263157895"/>
  <unicode hex="004E"/>
  <anchor x="326.3421052631579" y="0.0" name="bottom"/>
  <anchor x="476.3421052631579" y="713.0" name="top"/>
  <outline>
    <contour>
      <point x="5.342105263157891" y="0.0" type="curve"/>
      <point x="193.6578947368421" y="0.0" type="line"/>
      <point x="200.42105263157893" y="76.39473684210526"/>
      <point x="209.81578947368422" y="141.76315789473682"/>
      <point x="228.8157894736842" y="232.07894736842104" type="curve"/>
      <point x="272.42105263157896" y="439.2894736842105" type="line"/>
      <point x="284.3157894736842" y="439.2894736842105" type="line"/>
      <point x="362.3421052631579" y="268.4210526315789" type="line"/>
      <point x="408.1052631578948" y="168.3421052631579"/>
      <point x="443.1315789473685" y="84.76315789473684"/>
      <point x="468.5526315789474" y="0.0" type="curve"/>
      <point x="646.0263157894736" y="0.0" type="line"/>
      <point x="652.7894736842104" y="76.39473684210526"/>
      <point x="662.1842105263157" y="141.76315789473682"/>
      <point x="681.1842105263157" y="232.07894736842104" type="curve"/>
      <point x="732.5" y="473.65789473684214" type="line"/>
      <point x="752.1578947368421" y="566.6052631578947"/>
      <point x="770.4473684210526" y="634.6315789473684"/>
      <point x="796.0263157894736" y="713.0" type="curve"/>
      <point x="607.7105263157895" y="713.0" type="line"/>
      <point x="599.9473684210527" y="634.6315789473684"/>
      <point x="590.5526315789474" y="566.6052631578947"/>
      <point x="570.8947368421053" y="473.65789473684214" type="curve"/>
      <point x="528.6052631578948" y="275.07894736842104" type="line"/>
      <point x="516.0526315789474" y="275.07894736842104" type="line"/>
      <point x="440.3421052631579" y="444.60526315789474" type="line"/>
      <point x="403.6578947368421" y="526.2105263157895"/>
      <point x="370.2368421052632" y="613.4736842105265"/>
      <point x="338.42105263157896" y="713.0" type="curve"/>
      <point x="155.3421052631579" y="713.0" type="line"/>
      <point x="147.57894736842104" y="634.6315789473684"/>
      <point x="138.18421052631578" y="566.6052631578947"/>
      <point x="118.52631578947367" y="473.65789473684214" type="curve"/>
      <point x="67.21052631578947" y="232.07894736842104" type="line"/>
      <point x="48.55263157894736" y="142.44736842105263"/>
      <point x="30.26315789473684" y="76.39473684210526"/>
    </contour>
  </outline>
</glyph>
<glyph name="P" format="2">
  <advance width="654.6504854368932"/>
  <unicode hex="0050"/>
  <outline>
    <contour>
      <point x="381.12621359223306" y="244.0776699029126" type="curve"/>
      <point x="564.4854368932039" y="244.0776699029126"/>
      <point x="641.126213592233" y="320.55339805825236"/>
      <point x="670.6019417475728" y="463.45631067961165" type="curve" smooth="yes"/>
      <point x="705.9223300970873" y="632.8446601941747"/>
      <point x="622.3883495145632" y="718.1067961165049"/>
      <point x="448.1165048543689" y="718.1067961165049" type="curve"/>
      <point x="321.89320388349506" y="718.1067961165049"/>
      <point x="225.93203883495147" y="713.0"/>
      <point x="155.50485436893206" y="713.0" type="curve"/>
      <point x="297.1359223300972" y="578.4854368932038" type="line"/>
      <point x="413.52427184466023" y="578.4854368932038" type="line" smooth="yes"/>
      <point x="464.82524271844665" y="578.4854368932038"/>
      <point x="513.3786407766991" y="550.3786407766991"/>
      <point x="496.4368932038835" y="470.56310679611653" type="curve" smooth="yes"/>
      <point x="481.3883495145631" y="399.8446601941748"/>
      <point x="447.6116504854369" y="376.16504854368935"/>
      <point x="367.2233009708738" y="376.16504854368935" type="curve" smooth="yes"/>
      <point x="246.82524271844665" y="376.16504854368935" type="line"/>
      <point x="219.66019417475732" y="246.44660194174756" type="line"/>
      <point x="259.29126213592235" y="246.44660194174756"/>
      <point x="331.495145631068" y="244.0776699029126"/>
    </contour>
    <contour>
      <point x="5.5048543689320315" y="0.0" type="curve"/>
      <point x="202.4660194174757" y="0.0" type="line"/>
      <point x="209.25242718446603" y="76.52427184466019"/>
      <point x="218.14563106796115" y="141.78640776699024"/>
      <point x="237.14563106796118" y="232.15533980582524" type="curve"/>
      <point x="282.6699029126214" y="447.252427184466" type="line"/>
      <point x="302.0388349514564" y="539.7281553398058"/>
      <point x="321.14563106796123" y="607.3592233009708"/>
      <point x="346.99029126213594" y="685.6213592233009" type="curve"/>
      <point x="155.50485436893206" y="713.0" type="line"/>
      <point x="147.71844660194174" y="634.7378640776699"/>
      <point x="138.19417475728156" y="566.4757281553399"/>
      <point x="118.8252427184466" y="473.36893203883494" type="curve"/>
      <point x="67.45631067961165" y="232.15533980582524" type="line"/>
      <point x="48.45631067961164" y="142.41747572815532"/>
      <point x="30.349514563106787" y="76.52427184466019"/>
    </contour>
  </outline>
</glyph>
<glyph name="R" format="2">
  <advance width="698.9126213592233"/>
  <unicode hex="0052"/>
  <anchor x="297.2718446601942" y="0.0" name="bottom"/>
  <anchor x="438.0485436893204" y="713.0" name="top"/>
  <outline>
    <contour>
      <point x="422.747572815534" y="0.0" type="curve"/>
      <point x="639.7669902912621" y="0.0" type="line"/>
      <point x="606.9805825242718" y="53.262135922330096"/>
      <point x="562.4077669902912" y="141.10679611650485"/>
      <point x="532.8349514563106" y="207.84466019417476" type="curve"/>
      <point x="467.05825242718447" y="351.3203883495146" type="line"/>
      <point x="389.55339805825247" y="290.20388349514565" type="line"/>
      <point x="566.5436893203884" y="289.57281553398064"/>
      <point x="644.8155339805825" y="353.56310679611653"/>
      <point x="671.5533980582524" y="480.1456310679611" type="curve" smooth="yes"/>
      <point x="704.1359223300971" y="633.5825242718447"/>
      <point x="617.4951456310679" y="718.1067961165049"/>
      <point x="441.8543689320388" y="718.1067961165049" type="curve"/>
      <point x="338.37864077669906" y="718.1067961165049"/>
      <point x="234.51456310679612" y="713.0"/>
      <point x="155.50485436893203" y="713.0" type="curve"/>
      <point x="257.22330097087377" y="578.8543689320388" type="line"/>
      <point x="408.2621359223301" y="578.8543689320388" type="line" smooth="yes"/>
      <point x="459.9320388349515" y="578.8543689320388"/>
      <point x="507.8543689320388" y="554.378640776699"/>
      <point x="491.9126213592233" y="478.93203883495147" type="curve" smooth="yes"/>
      <point x="475.2330097087379" y="401.42718446601947"/>
      <point x="435.9805825242719" y="382.22330097087377"/>
      <point x="361.8058252427184" y="382.22330097087377" type="curve" smooth="yes"/>
      <point x="236.98058252427185" y="382.22330097087377" type="line"/>
      <point x="211.6601941747573" y="261.7281553398058" type="line"/>
      <point x="384.87378640776706" y="261.7281553398058" type="line"/>
      <point x="297.73786407766994" y="342.3203883495146" type="line"/>
      <point x="371.93203883495136" y="154.252427184466" type="line"/>
      <point x="391.13592233009706" y="107.5728155339806"/>
      <point x="409.60194174757277" y="58.52427184466019"/>
    </contour>
    <contour>
      <point x="5.5048543689320315" y="0.0" type="curve"/>
      <point x="202.4660194174757" y="0.0" type="line"/>
      <point x="209.252427184466" y="76.52427184466019"/>
      <point x="218.1456310679612" y="141.78640776699024"/>
      <point x="237.14563106796118" y="232.15533980582524" type="curve"/>
      <point x="282.66990291262135" y="447.252427184466" type="line"/>
      <point x="302.03883495145635" y="539.7281553398058"/>
      <point x="321.14563106796123" y="607.3592233009709"/>
      <point x="346.99029126213594" y="685.6213592233009" type="curve"/>
      <point x="155.50485436893206" y="713.0" type="line"/>
      <point x="147.71844660194174" y="634.7378640776699"/>
      <point x="138.19417475728156" y="566.4757281553399"/>
      <point x="118.8252427184466" y="473.36893203883494" type="curve"/>
      <point x="67.45631067961165" y="232.15533980582524" type="line"/>
      <point x="48.45631067961164" y="142.41747572815532"/>
      <point x="30.349514563106787" y="76.52427184466019"/>
    </contour>
  </outline>
</glyph>
<glyph name="S" format="2">
  <advance width="602.1165048543689"/>
  <unicode hex="0053"/>
  <anchor x="249.95145631067965" y="0.0" name="bottom"/>
  <anchor x="399.95145631067965" y="713.0" name="top"/>
  <outline>
    <contour>
      <point x="275.58252427184476" y="-13.475728155339805" type="curve" smooth="yes"/>
      <point x="450.43689320388347" y="-13.475728155339805"/>
      <point x="531.2815533980582" y="45.048543689320404"/>
      <point x="559.126213592233" y="177.9029126213592" type="curve" smooth="yes"/>
      <point x="581.2330097087379" y="283.06796116504853"/>
      <point x="539.495145631068" y="350.8543689320389"/>
      <point x="387.70873786407765" y="413.00970873786406" type="curve" smooth="yes"/>
      <point x="297.8349514563107" y="450.36893203883494"/>
      <point x="267.8932038834952" y="481.0485436893204"/>
      <point x="277.9417475728156" y="528.7669902912621" type="curve" smooth="yes"/>
      <point x="287.3592233009709" y="573.5922330097087"/>
      <point x="333.2330097087378" y="585.009708737864"/>
      <point x="381.4271844660194" y="587.378640776699" type="curve"/>
      <point x="416.05825242718447" y="587.378640776699"/>
      <point x="493.53398058252435" y="565.6407766990292"/>
      <point x="578.6407766990291" y="522.3786407766991" type="curve"/>
      <point x="623.2330097087379" y="677.0582524271845" type="line"/>
      <point x="565.495145631068" y="693.4757281553398"/>
      <point x="452.16504854368935" y="727.7378640776699"/>
      <point x="365.63106796116506" y="727.7378640776699" type="curve" smooth="yes"/>
      <point x="204.7766990291262" y="727.7378640776699"/>
      <point x="124.5145631067961" y="665.5242718446601"/>
      <point x="100.0388349514563" y="547.1456310679612" type="curve" smooth="yes"/>
      <point x="74.19417475728154" y="423.18446601941747"/>
      <point x="136.14563106796118" y="356.50485436893206"/>
      <point x="259.1359223300971" y="306.19417475728153" type="curve" smooth="yes"/>
      <point x="344.06796116504853" y="271.3592233009709"/>
      <point x="391.2718446601942" y="241.41747572815538"/>
      <point x="380.8543689320388" y="191.33009708737868" type="curve" smooth="yes"/>
      <point x="370.1747572815534" y="138.66990291262135"/>
      <point x="326.40776699029124" y="127.14563106796118"/>
      <point x="274.1067961165049" y="124.77669902912623" type="curve"/>
      <point x="212.58252427184468" y="124.77669902912623"/>
      <point x="123.15533980582525" y="157.51456310679612"/>
      <point x="49.999999999999986" y="199.03883495145635" type="curve"/>
      <point x="7.514563106796109" y="48.83495145631068" type="line"/>
      <point x="63.88349514563108" y="26.67961165048544"/>
      <point x="156.4660194174757" y="-13.475728155339805"/>
    </contour>
  </outline>
</glyph>
<glyph name="T" format="2">
  <advance width="646.2105263157895"/>
  <unicode hex="0054"/>
  <anchor x="271.94736842105266" y="0.0" name="bottom"/>
  <anchor x="338.39473684210526" y="318.8421052631579" name="center"/>
  <anchor x="421.94736842105266" y="713.0" name="top"/>
  <outline>
    <contour>
      <point x="171.71052631578948" y="0.0" type="curve"/>
      <point x="370.5526315789474" y="0.0" type="line"/>
      <point x="377.3157894736842" y="76.39473684210526"/>
      <point x="386.7105263157895" y="141.76315789473682"/>
      <point x="405.7105263157895" y="232.07894736842104" type="curve"/>
      <point x="451.7631578947369" y="447.0" type="line"/>
      <point x="471.0789473684211" y="539.6052631578948"/>
      <point x="490.3684210526316" y="607.2894736842105"/>
      <point x="515.9473684210526" y="685.6578947368421" type="curve"/>
      <point x="521.2105263157895" y="713.0" type="line"/>
      <point x="322.36842105263156" y="713.0" type="line"/>
      <point x="316.7631578947368" y="685.6578947368421" type="line"/>
      <point x="310.00000000000006" y="607.2894736842105"/>
      <point x="299.2894736842106" y="539.2631578947369"/>
      <point x="279.63157894736844" y="447.0" type="curve"/>
      <point x="233.57894736842107" y="232.07894736842104" type="line"/>
      <point x="214.92105263157896" y="142.44736842105263"/>
      <point x="196.63157894736844" y="76.39473684210526"/>
    </contour>
    <contour>
      <point x="88.1842105263158" y="545.1052631578948" type="line"/>
      <point x="142.57894736842104" y="556.9736842105264"/>
      <point x="198.6578947368421" y="562.921052631579"/>
      <point x="273.7894736842105" y="562.921052631579" type="curve"/>
      <point x="332.89473684210526" y="562.921052631579" type="line"/>
      <point x="364.2368421052632" y="713.0" type="line"/>
      <point x="123.47368421052632" y="713.0" type="line"/>
    </contour>
    <contour>
      <point x="447.3157894736842" y="562.921052631579" type="line"/>
      <point x="506.42105263157896" y="562.921052631579" type="line"/>
      <point x="581.5526315789474" y="562.921052631579"/>
      <point x="635.3421052631579" y="557.3157894736843"/>
      <point x="684.1315789473684" y="545.1052631578948" type="curve"/>
      <point x="719.421052631579" y="713.0" type="line"/>
      <point x="478.65789473684214" y="713.0" type="line"/>
    </contour>
  </outline>
</glyph>
<glyph name="V" format="2">
  <advance width="715.3684210526316"/>
  <unicode hex="0056"/>
  <anchor x="306.02631578947364" y="0.0" name="bottom"/>
  <anchor x="456.02631578947364" y="713.0" name="top"/>
  <outline>
    <contour>
      <point x="178.07894736842104" y="0.0" type="curve"/>
      <point x="432.7368421052632" y="0.0" type="line"/>
      <point x="461.5526315789474" y="72.34210526315789"/>
      <point x="502.36842105263156" y="158.3684210526316"/>
      <point x="538.421052631579" y="226.3421052631579" type="curve"/>
      <point x="654.3157894736842" y="450.0" type="line"/>
      <point x="694.3947368421052" y="527.6578947368421"/>
      <point x="751.4473684210527" y="629.9736842105264"/>
      <point x="807.7368421052632" y="713.0" type="curve"/>
      <point x="578.8684210526316" y="713.0" type="line"/>
      <point x="546.421052631579" y="622.6842105263158"/>
      <point x="503.6578947368421" y="520.0"/>
      <point x="462.9736842105263" y="430.3684210526316" type="curve"/>
      <point x="344.65789473684214" y="174.81578947368422" type="line"/>
      <point x="332.0789473684211" y="174.81578947368422" type="line"/>
      <point x="317.8157894736842" y="429.0263157894737" type="line"/>
      <point x="313.2631578947369" y="517.6842105263158"/>
      <point x="309.0" y="623.3684210526316"/>
      <point x="310.07894736842104" y="713.0" type="curve"/>
      <point x="103.31578947368419" y="713.0" type="line"/>
      <point x="125.92105263157893" y="629.6315789473684"/>
      <point x="139.3421052631579" y="526.6315789473683"/>
      <point x="146.76315789473685" y="449.6578947368421" type="curve"/>
      <point x="168.0263157894737" y="226.3421052631579" type="line"/>
      <point x="173.78947368421052" y="158.3421052631579"/>
      <point x="177.60526315789474" y="71.65789473684211"/>
    </contour>
  </outline>
</glyph>
<glyph name="W" format="2">
  <advance width="1046.3684210526314"/>
  <unicode hex="0057"/>
  <anchor x="468.0526315789474" y="0.0" name="bottom"/>
  <anchor x="618.0526315789474" y="713.0" name="top"/>
  <outline>
    <contour>
      <point x="144.3421052631579" y="0.0" type="curve"/>
      <point x="368.47368421052636" y="0.0" type="line"/>
      <point x="393.1578947368421" y="77.10526315789473"/>
      <point x="427.57894736842104" y="169.31578947368422"/>
      <point x="460.2105263157895" y="244.44736842105263" type="curve"/>
      <point x="554.7368421052631" y="465.42105263157896" type="line"/>
      <point x="567.3157894736843" y="465.42105263157896" type="line"/>
      <point x="571.2894736842105" y="244.44736842105263" type="line"/>
      <point x="572.3947368421052" y="168.0"/>
      <point x="570.5526315789473" y="77.44736842105263"/>
      <point x="566.0526315789473" y="0.0" type="curve"/>
      <point x="798.421052631579" y="0.0" type="line"/>
      <point x="822.1578947368421" y="69.31578947368422"/>
      <point x="861.8947368421052" y="154.3421052631579"/>
      <point x="895.6052631578948" y="225.3421052631579" type="curve"/>
      <point x="1002.0526315789474" y="450.0" type="line"/>
      <point x="1039.1052631578948" y="528.6842105263158"/>
      <point x="1090.7631578947369" y="630.2894736842105"/>
      <point x="1142.0526315789473" y="713.0" type="curve"/>
      <point x="916.4736842105262" y="713.0" type="line"/>
      <point x="889.1052631578947" y="628.6315789473684"/>
      <point x="853.3421052631579" y="529.8421052631578"/>
      <point x="819.3684210526316" y="445.81578947368416" type="curve"/>
      <point x="721.8157894736842" y="204.76315789473685" type="line"/>
      <point x="709.2368421052631" y="204.76315789473685" type="line"/>
      <point x="709.2105263157895" y="444.5" type="line"/>
      <point x="709.078947368421" y="530.8947368421052"/>
      <point x="711.5789473684209" y="627.9473684210526"/>
      <point x="718.7105263157896" y="713.0" type="curve"/>
      <point x="515.6842105263156" y="713.0" type="line"/>
      <point x="487.34210526315786" y="628.9736842105264"/>
      <point x="448.9736842105263" y="528.1842105263158"/>
      <point x="415.36842105263156" y="446.1578947368421" type="curve"/>
      <point x="315.89473684210526" y="204.76315789473685" type="line"/>
      <point x="303.3157894736842" y="204.76315789473685" type="line"/>
      <point x="306.2105263157895" y="442.10526315789474" type="line"/>
      <point x="307.0526315789474" y="527.8157894736842"/>
      <point x="312.15789473684214" y="628.6052631578947"/>
      <point x="320.60526315789474" y="713.0" type="curve"/>
      <point x="101.0" y="713.0" type="line"/>
      <point x="119.55263157894737" y="630.3157894736842"/>
      <point x="127.60526315789474" y="527.3157894736842"/>
      <point x="132.3157894736842" y="448.2894736842105" type="curve"/>
      <point x="143.44736842105263" y="225.0" type="line"/>
      <point x="147.15789473684208" y="155.3421052631579"/>
      <point x="148.23684210526315" y="71.6578947368421"/>
    </contour>
  </outline>
</glyph>
<glyph name="X" format="2">
  <advance width="724.1315789473684"/>
  <unicode hex="0058"/>
  <outline>
    <contour>
      <point x="-38.28947368421053" y="0.0" type="curve"/>
      <point x="196.92105263157893" y="0.0" type="line"/>
      <point x="223.7105263157895" y="52.89473684210526"/>
      <point x="251.6842105263158" y="99.05263157894738"/>
      <point x="282.0263157894737" y="142.6315789473684" type="curve"/>
      <point x="355.4473684210526" y="250.78947368421052" type="line"/>
      <point x="368.0263157894737" y="250.78947368421052" type="line"/>
      <point x="402.2631578947369" y="142.9736842105263" type="line"/>
      <point x="416.1578947368421" y="100.76315789473684"/>
      <point x="430.0789473684211" y="52.89473684210526"/>
      <point x="437.4473684210526" y="0.0" type="curve"/>
      <point x="659.078947368421" y="0.0" type="line"/>
      <point x="617.0526315789474" y="71.71052631578948"/>
      <point x="586.6315789473684" y="140.0263157894737"/>
      <point x="556.1578947368422" y="219.6578947368421" type="curve"/>
      <point x="496.52631578947376" y="375.9736842105263" type="line"/>
      <point x="487.2631578947369" y="330.6842105263158" type="line"/>
      <point x="613.8421052631579" y="501.1842105263158" type="line"/>
      <point x="659.921052631579" y="562.7894736842105"/>
      <point x="717.3421052631579" y="637.3684210526316"/>
      <point x="790.9473684210527" y="713.0" type="curve"/>
      <point x="554.7368421052631" y="713.0" type="line"/>
      <point x="524.6578947368421" y="657.5"/>
      <point x="493.60526315789474" y="603.2894736842105"/>
      <point x="461.60526315789474" y="557.078947368421" type="curve"/>
      <point x="399.65789473684214" y="465.0526315789474" type="line"/>
      <point x="387.0789473684211" y="465.0526315789474" type="line"/>
      <point x="359.3157894736842" y="556.3947368421052" type="line"/>
      <point x="345.421052631579" y="602.2631578947368"/>
      <point x="333.13157894736844" y="657.1315789473684"/>
      <point x="324.4736842105264" y="713.0" type="curve"/>
      <point x="110.07894736842105" y="713.0" type="line"/>
      <point x="153.73684210526318" y="634.3157894736843"/>
      <point x="178.8684210526316" y="564.6842105263157"/>
      <point x="202.99999999999997" y="496.05263157894734" type="curve"/>
      <point x="255.2894736842105" y="348.42105263157896" type="line"/>
      <point x="264.8684210526316" y="390.42105263157896" type="line"/>
      <point x="131.89473684210526" y="209.5263157894737" type="line"/>
      <point x="75.44736842105262" y="132.92105263157893"/>
      <point x="23.684210526315795" y="66.94736842105262"/>
    </contour>
  </outline>
</glyph>
<glyph name="Y" format="2">
  <advance width="684.2631578947369"/>
  <unicode hex="0059"/>
  <anchor x="291.94736842105266" y="0.0" name="bottom"/>
  <anchor x="443.2631578947369" y="713.0" name="top"/>
  <anchor x="117.34210526315788" y="713.0" name="topleft"/>
  <outline>
    <contour>
      <point x="271.5263157894737" y="248.68421052631578" type="line"/>
      <point x="423.2368421052632" y="248.68421052631578" type="line"/>
      <point x="630.6842105263157" y="530.6052631578947" type="line"/>
      <point x="674.3684210526317" y="590.5"/>
      <point x="721.0526315789474" y="651.421052631579"/>
      <point x="779.9210526315791" y="713.0" type="curve"/>
      <point x="544.7368421052631" y="713.0" type="line"/>
      <point x="507.4210526315789" y="633.0263157894738"/>
      <point x="484.44736842105266" y="592.5"/>
      <point x="443.6842105263158" y="526.8947368421053" type="curve"/>
      <point x="382.0263157894737" y="427.8157894736842" type="line"/>
      <point x="370.10526315789474" y="427.8157894736842" type="line"/>
      <point x="346.3157894736842" y="529.2631578947369" type="line"/>
      <point x="331.36842105263156" y="592.8421052631579"/>
      <point x="324.8421052631579" y="632.0"/>
      <point x="316.71052631578954" y="713.0" type="curve"/>
      <point x="102.02631578947367" y="713.0" type="line"/>
      <point x="139.92105263157896" y="641.7631578947369"/>
      <point x="160.57894736842107" y="590.8421052631579"/>
      <point x="180.28947368421052" y="530.6052631578947" type="curve"/>
    </contour>
    <contour>
      <point x="193.02631578947364" y="0.0" type="curve"/>
      <point x="393.18421052631584" y="0.0" type="line"/>
      <point x="399.9473684210526" y="76.39473684210526"/>
      <point x="409.3421052631579" y="141.76315789473682"/>
      <point x="428.3421052631579" y="232.07894736842104" type="curve"/>
      <point x="462.47368421052636" y="393.7631578947369" type="line"/>
      <point x="289.02631578947364" y="393.7631578947369" type="line"/>
      <point x="254.89473684210523" y="232.07894736842104" type="line"/>
      <point x="236.23684210526315" y="142.44736842105263"/>
      <point x="217.9473684210526" y="76.39473684210526"/>
    </contour>
  </outline>
</glyph>
<glyph name="Z" format="2">
  <advance width="688.6052631578948"/>
  <unicode hex="005A"/>
  <anchor x="291.8157894736842" y="0.0" name="bottom"/>
  <anchor x="366.8157894736842" y="357.0" name="center"/>
  <anchor x="441.8157894736842" y="713.0" name="top"/>
  <outline>
    <contour>
      <point x="-14.105263157894736" y="0.0" type="line"/>
      <point x="595.6842105263158" y="0.0" type="line"/>
      <point x="630.0" y="161.65789473684214" type="line"/>
      <point x="557.4473684210526" y="147.44736842105266"/>
      <point x="444.05263157894734" y="142.84210526315792"/>
      <point x="367.10526315789474" y="142.84210526315792" type="curve"/>
      <point x="206.5263157894737" y="142.84210526315792" type="line"/>
      <point x="222.47368421052636" y="87.89473684210527" type="line"/>
      <point x="524.7894736842106" y="398.9473684210526" type="line"/>
      <point x="587.078947368421" y="464.2368421052632"/>
      <point x="650.6842105263158" y="528.8684210526316"/>
      <point x="712.6578947368421" y="582.6315789473683" type="curve"/>
      <point x="740.0526315789474" y="713.0" type="line"/>
      <point x="146.5" y="713.0" type="line"/>
      <point x="112.52631578947368" y="549.0526315789473" type="line"/>
      <point x="203.1315789473684" y="565.2105263157895"/>
      <point x="287.39473684210526" y="570.1578947368421"/>
      <point x="360.3157894736842" y="570.1578947368421" type="curve"/>
      <point x="537.2631578947368" y="570.1578947368421" type="line"/>
      <point x="514.2631578947368" y="622.3684210526316" type="line"/>
      <point x="220.8421052631579" y="316.2631578947368" type="line"/>
      <point x="156.26315789473685" y="248.68421052631578"/>
      <point x="65.92105263157895" y="155.6578947368421"/>
      <point x="9.342105263157897" y="110.26315789473685" type="curve"/>
    </contour>
  </outline>
</glyph>
<glyph name="bracketleft" format="2">
  <advance width="410.7894736842105"/>
  <unicode hex="005B"/>
  <outline>
    <contour>
      <point x="-15.34210526315789" y="-123.84210526315789" type="curve"/>
      <point x="151.5789473684211" y="-123.84210526315789" type="line"/>
      <point x="156.84210526315792" y="-96.15789473684211" type="line"/>
      <point x="163.60526315789477" y="-19.763157894736842"/>
      <point x="173.34210526315792" y="46.28947368421053"/>
      <point x="192.00000000000003" y="135.92105263157896" type="curve"/>
      <point x="270.7105263157895" y="509.13157894736844" type="line"/>
      <point x="290.0263157894737" y="601.3947368421053"/>
      <point x="308.3157894736843" y="669.421052631579"/>
      <point x="334.2368421052632" y="747.7894736842105" type="curve"/>
      <point x="340.50000000000006" y="775.1315789473684" type="line"/>
      <point x="173.57894736842104" y="775.1315789473684" type="line"/>
      <point x="163.8421052631579" y="697.1052631578948"/>
      <point x="154.10526315789474" y="628.3947368421052"/>
      <point x="134.78947368421052" y="536.4736842105264" type="curve"/>
      <point x="44.55263157894737" y="108.23684210526315" type="line"/>
      <point x="25.894736842105267" y="18.94736842105263"/>
      <point x="7.605263157894742" y="-47.44736842105263"/>
    </contour>
    <contour>
      <point x="118.89473684210526" y="-123.84210526315789" type="line"/>
      <point x="309.0" y="-123.84210526315789" type="line"/>
      <point x="336.7105263157895" y="9.131578947368428" type="line"/>
      <point x="291.0" y="2.2105263157894806"/>
      <point x="242.28947368421052" y="0.23684210526316463"/>
      <point x="188.55263157894734" y="0.23684210526316463" type="curve"/>
      <point x="144.6315789473684" y="0.23684210526316463" type="line"/>
    </contour>
    <contour>
      <point x="270.89473684210526" y="651.0526315789474" type="line"/>
      <point x="316.42105263157896" y="651.0526315789474" type="line"/>
      <point x="381.15789473684214" y="651.0526315789474"/>
      <point x="425.2105263157895" y="647.1052631578948"/>
      <point x="466.2631578947369" y="642.1578947368421" type="curve"/>
      <point x="494.97368421052636" y="775.1315789473684" type="line"/>
      <point x="297.2894736842105" y="775.1315789473684" type="line"/>
    </contour>
  </outline>
</glyph>
<glyph name="backslash" format="2">
  <advance width="468.92105263157896"/>
  <unicode hex="005C"/>
  <outline>
    <contour>
      <point x="243.92105263157896" y="0.0" type="curve"/>
      <point x="410.5" y="0.0" type="line"/>
      <point x="387.2368421052632" y="74.0"/>
      <point x="369.89473684210526" y="137.0"/>
      <point x="352.8157894736842" y="228.0" type="curve"/>
      <point x="305.6315789473684" y="475.6578947368421" type="line"/>
      <point x="287.89473684210526" y="570.0"/>
      <point x="277.15789473684214" y="636.3421052631579"/>
      <point x="272.97368421052636" y="713.0" type="curve"/>
      <point x="107.71052631578947" y="713.0" type="line"/>
      <point x="133.31578947368422" y="636.0"/>
      <point x="147.68421052631578" y="571.3421052631579"/>
      <point x="165.42105263157893" y="474.3421052631579" type="curve"/>
      <point x="211.94736842105263" y="228.0" type="line"/>
      <point x="229.68421052631578" y="137.0"/>
      <point x="240.07894736842104" y="74.0"/>
    </contour>
  </outline>
</glyph>
<glyph name="asciicircum" format="2">
  <advance width="634.7368421052631"/>
  <unicode hex="005E"/>
  <outline>
    <contour>
      <point x="483.7894736842105" y="357.8157894736842" type="curve"/>
      <point x="611.5526315789474" y="359.4736842105263" type="line"/>
      <point x="569.1052631578947" y="469.2894736842105"/>
      <point x="529.342105263158" y="578.1315789473684"/>
      <point x="501.44736842105266" y="687.9473684210526" type="curve"/>
      <point x="289.57894736842104" y="687.9473684210526" type="line"/>
      <point x="226.65789473684208" y="580.7894736842105"/>
      <point x="149.57894736842104" y="470.6842105263158"/>
      <point x="70.39473684210526" y="361.4736842105263" type="curve"/>
      <point x="214.68421052631578" y="361.4736842105263" type="line"/>
      <point x="272.6578947368421" y="426.4210526315789"/>
      <point x="324.6842105263158" y="490.3947368421053"/>
      <point x="376.36842105263156" y="555.3421052631579" type="curve"/>
      <point x="388.2894736842105" y="555.3421052631579" type="line"/>
      <point x="418.4736842105263" y="489.39473684210526"/>
      <point x="447.65789473684214" y="423.7631578947368"/>
    </contour>
  </outline>
</glyph>
<glyph name="underscore" format="2">
  <advance width="432.63157894736844"/>
  <unicode hex="005F"/>
  <outline>
    <contour>
      <point x="-99.42105263157896" y="-172.89473684210526" type="line"/>
      <point x="-29.89473684210526" y="-170.23684210526315"/>
      <point x="39.57894736842106" y="-168.26315789473685"/>
      <point x="93.81578947368419" y="-166.94736842105263" type="curve"/>
      <point x="163.28947368421052" y="-166.94736842105263" type="line"/>
      <point x="216.21052631578948" y="-168.26315789473685"/>
      <point x="284.3684210526316" y="-170.23684210526315"/>
      <point x="353.21052631578954" y="-172.89473684210526" type="curve"/>
      <point x="382.57894736842104" y="-34.31578947368421" type="line"/>
      <point x="312.39473684210526" y="-36.973684210526315"/>
      <point x="242.92105263157896" y="-38.94736842105263"/>
      <point x="189.3421052631579" y="-40.26315789473684" type="curve"/>
      <point x="119.86842105263156" y="-40.26315789473684" type="line"/>
      <point x="66.28947368421053" y="-38.94736842105263"/>
      <point x="-1.8684210526315734" y="-36.973684210526315"/>
      <point x="-70.05263157894737" y="-34.31578947368421" type="curve"/>
    </contour>
  </outline>
</glyph>
<glyph name="a" format="2">
  <advance width="533.0000000000001"/>
  <unicode hex="0061"/>
  <anchor x="210.73786407766997" y="0.0" name="bottom"/>
  <anchor x="422.6990291262136" y="0.0" name="ogonek"/>
  <anchor x="316.73786407766994" y="499.47572815533977" name="top"/>
  <outline>
    <contour>
      <point x="138.873786407767" y="-12.106796116504855" type="curve" smooth="yes"/>
      <point x="198.76699029126212" y="-12.106796116504855"/>
      <point x="252.23300970873777" y="26.89320388349514"/>
      <point x="287.38834951456306" y="67.9514563106796" type="curve"/>
      <point x="298.8640776699029" y="67.9514563106796" type="line"/>
      <point x="300.126213592233" y="0.0" type="line"/>
      <point x="453.6990291262136" y="0.0" type="line"/>
      <point x="443.9611650485437" y="63.320388349514566"/>
      <point x="448.17475728155335" y="120.00970873786409"/>
      <point x="458.91262135922335" y="170.33009708737865" type="curve"/>
      <point x="467.69902912621365" y="211.36893203883494" type="line" smooth="yes"/>
      <point x="475.9611650485437" y="248.41747572815532"/>
      <point x="486.06796116504853" y="281.0485436893204"/>
      <point x="493.06796116504853" y="314.8932038834951" type="curve" smooth="yes"/>
      <point x="518.3300970873787" y="436.3203883495146"/>
      <point x="446.4271844660193" y="512.9514563106796"/>
      <point x="299.0" y="512.9514563106796" type="curve" smooth="yes"/>
      <point x="241.6796116504854" y="512.9514563106796"/>
      <point x="155.62135922330097" y="494.21359223300965"/>
      <point x="104.51456310679612" y="485.3203883495146" type="curve"/>
      <point x="79.98058252427184" y="343.5436893203883" type="line"/>
      <point x="147.6601941747573" y="367.06796116504853"/>
      <point x="231.5631067961165" y="385.0679611650485"/>
      <point x="254.08737864077673" y="385.0679611650485" type="curve" smooth="yes"/>
      <point x="322.81553398058253" y="385.0679611650485"/>
      <point x="354.1747572815534" y="355.86407766990294"/>
      <point x="344.495145631068" y="314.3592233009709" type="curve"/>
      <point x="189.8252427184466" y="290.31067961165047" type="line" smooth="yes"/>
      <point x="106.93203883495146" y="277.41747572815535"/>
      <point x="33.03883495145631" y="249.31067961165053"/>
      <point x="13.038834951456305" y="156.3106796116505" type="curve" smooth="yes"/>
      <point x="-6.5922330097087425" y="65.67961165048544"/>
      <point x="43.825242718446596" y="-12.106796116504855"/>
    </contour>
    <contour>
      <point x="213.54368932038838" y="108.19417475728156" type="curve" smooth="yes"/>
      <point x="181.76699029126218" y="108.19417475728156"/>
      <point x="159.71844660194174" y="128.39805825242718"/>
      <point x="166.2427184466019" y="164.0194174757282" type="curve" smooth="yes"/>
      <point x="172.76699029126212" y="198.37864077669903"/>
      <point x="201.9708737864078" y="209.79611650485435"/>
      <point x="238.7961165048544" y="217.95145631067962" type="curve" smooth="yes"/>
      <point x="295.6116504854369" y="230.63106796116506"/>
      <point x="312.1844660194176" y="237.15533980582526"/>
      <point x="326.33980582524276" y="247.89320388349512" type="curve"/>
      <point x="309.44660194174764" y="167.64077669902912" type="line"/>
      <point x="273.99029126213594" y="126.29126213592231"/>
      <point x="233.74757281553397" y="108.19417475728156"/>
    </contour>
  </outline>
</glyph>
<glyph name="b" format="2">
  <advance width="595.2631578947368"/>
  <unicode hex="0062"/>
  <outline>
    <contour>
      <point x="328.0263157894737" y="-13.605263157894736" type="curve" smooth="yes"/>
      <point x="446.0789473684211" y="-13.605263157894736"/>
      <point x="526.8684210526316" y="85.86842105263158"/>
      <point x="556.8684210526316" y="227.89473684210526" type="curve" smooth="yes"/>
      <point x="588.5263157894736" y="379.2105263157895"/>
      <point x="539.6842105263157" y="513.2105263157895"/>
      <point x="401.8157894736842" y="513.2105263157895" type="curve" smooth="yes"/>
      <point x="358.6578947368422" y="513.2105263157895"/>
      <point x="307.7631578947368" y="487.3684210526316"/>
      <point x="272.421052631579" y="448.13157894736844" type="curve"/>
      <point x="259.8421052631579" y="448.13157894736844" type="line"/>
      <point x="269.55263157894746" y="493.3421052631579" type="line"/>
      <point x="288.8684210526316" y="585.578947368421"/>
      <point x="313.7631578947369" y="669.1842105263157"/>
      <point x="340.36842105263156" y="747.8947368421052" type="curve"/>
      <point x="138.5" y="730.9736842105264" type="line"/>
      <point x="140.31578947368422" y="651.7368421052631"/>
      <point x="129.92105263157896" y="574.3947368421053"/>
      <point x="113.23684210526315" y="493.3421052631579" type="curve"/>
      <point x="54.57894736842105" y="215.73684210526315" type="line"/>
      <point x="36.921052631578945" y="132.76315789473685"/>
      <point x="19.289473684210524" y="71.05263157894737"/>
      <point x="-3.9736842105263177" y="0.0" type="curve"/>
      <point x="130.94736842105266" y="0.0" type="line"/>
      <point x="164.13157894736844" y="65.55263157894736" type="line"/>
      <point x="174.73684210526318" y="65.55263157894736" type="line"/>
      <point x="209.8421052631579" y="15.526315789473687"/>
      <point x="274.6052631578948" y="-13.605263157894736"/>
    </contour>
    <contour>
      <point x="282.63157894736844" y="121.02631578947368" type="curve"/>
      <point x="251.21052631578948" y="122.34210526315789"/>
      <point x="220.07894736842107" y="139.28947368421052"/>
      <point x="201.42105263157896" y="168.44736842105266" type="curve"/>
      <point x="235.68421052631578" y="331.0" type="line"/>
      <point x="260.7368421052632" y="360.65789473684214"/>
      <point x="295.2105263157895" y="379.55263157894734"/>
      <point x="323.18421052631584" y="380.55263157894734" type="curve"/>
      <point x="389.7631578947369" y="377.55263157894734"/>
      <point x="413.7368421052632" y="311.9736842105263"/>
      <point x="398.8947368421053" y="239.78947368421052" type="curve" smooth="yes"/>
      <point x="384.7631578947369" y="172.1578947368421"/>
      <point x="346.3947368421053" y="124.6842105263158"/>
    </contour>
  </outline>
</glyph>
<glyph name="c" format="2">
  <advance width="483.57894736842104"/>
  <unicode hex="0063"/>
  <anchor x="226.8157894736842" y="0.0" name="bottom"/>
  <anchor x="329.05263157894734" y="499.2631578947368" name="top"/>
  <outline>
    <contour>
      <point x="285.55263157894734" y="-11.631578947368421" type="curve" smooth="yes"/>
      <point x="325.3157894736843" y="-11.631578947368421"/>
      <point x="374.6842105263158" y="1.7631578947368416"/>
      <point x="401.6842105263158" y="11.815789473684209" type="curve"/>
      <point x="422.07894736842104" y="149.1842105263158" type="line"/>
      <point x="389.6842105263158" y="131.1315789473684"/>
      <point x="344.63157894736844" y="117.42105263157895"/>
      <point x="315.8157894736842" y="117.07894736842105" type="curve" smooth="yes"/>
      <point x="228.1578947368421" y="119.07894736842105"/>
      <point x="174.8684210526316" y="171.92105263157896"/>
      <point x="195.6842105263158" y="265.68421052631584" type="curve" smooth="yes"/>
      <point x="212.50000000000003" y="340.1052631578947"/>
      <point x="261.7105263157894" y="375.55263157894734"/>
      <point x="327.34210526315786" y="380.55263157894734" type="curve"/>
      <point x="353.8157894736843" y="380.55263157894734"/>
      <point x="401.94736842105266" y="367.8421052631579"/>
      <point x="459.2368421052631" y="338.13157894736844" type="curve"/>
      <point x="497.86842105263156" y="473.7894736842105" type="line"/>
      <point x="455.89473684210526" y="489.84210526315786"/>
      <point x="387.6578947368421" y="512.5526315789474"/>
      <point x="327.0263157894737" y="512.5526315789474" type="curve" smooth="yes"/>
      <point x="169.39473684210526" y="512.5526315789474"/>
      <point x="67.6842105263158" y="419.5263157894737"/>
      <point x="38.36842105263158" y="280.2368421052631" type="curve" smooth="yes"/>
      <point x="1.4210526315789487" y="103.76315789473685"/>
      <point x="103.5" y="-11.631578947368421"/>
    </contour>
  </outline>
</glyph>
<glyph name="d" format="2">
  <advance width="586.4736842105262"/>
  <unicode hex="0064"/>
  <anchor x="263.8684210526316" y="0.0" name="bottom"/>
  <anchor x="293.60526315789474" y="249.6315789473684" name="center"/>
  <anchor x="417.1842105263158" y="729.578947368421" name="top"/>
  <anchor x="618.7105263157895" y="499.2631578947368" name="topright"/>
  <outline>
    <contour>
      <point x="194.10526315789474" y="-13.605263157894736" type="curve" smooth="yes"/>
      <point x="242.1578947368421" y="-13.605263157894736"/>
      <point x="299.94736842105266" y="13.473684210526317"/>
      <point x="343.60526315789474" y="66.76315789473684" type="curve"/>
      <point x="354.2105263157895" y="66.76315789473684" type="line"/>
      <point x="348.7631578947368" y="0.0" type="line"/>
      <point x="492.55263157894734" y="0.0" type="line"/>
      <point x="499.65789473684214" y="71.05263157894737"/>
      <point x="508.05263157894734" y="132.76315789473685"/>
      <point x="525.7105263157895" y="215.73684210526315" type="curve"/>
      <point x="584.3684210526316" y="493.3421052631579" type="line"/>
      <point x="603.6842105263157" y="585.578947368421"/>
      <point x="628.5789473684209" y="669.1842105263157"/>
      <point x="655.1842105263157" y="747.8947368421052" type="curve"/>
      <point x="453.3157894736843" y="730.9736842105264" type="line"/>
      <point x="455.13157894736844" y="651.7368421052631"/>
      <point x="444.7368421052632" y="574.3947368421053"/>
      <point x="428.0526315789474" y="493.3421052631579" type="curve"/>
      <point x="418.0" y="446.07894736842104" type="line"/>
      <point x="405.4210526315789" y="446.07894736842104" type="line"/>
      <point x="375.6578947368421" y="486.71052631578954"/>
      <point x="318.1315789473685" y="513.2105263157895"/>
      <point x="267.89473684210526" y="513.2105263157895" type="curve" smooth="yes"/>
      <point x="149.8421052631579" y="513.2105263157895"/>
      <point x="69.05263157894737" y="413.7368421052632"/>
      <point x="39.05263157894736" y="271.7105263157895" type="curve" smooth="yes"/>
      <point x="7.394736842105259" y="120.39473684210526"/>
      <point x="56.23684210526316" y="-13.605263157894736"/>
    </contour>
    <contour>
      <point x="272.7368421052632" y="119.05263157894737" type="curve"/>
      <point x="206.1578947368421" y="121.71052631578948"/>
      <point x="181.84210526315792" y="187.97368421052633"/>
      <point x="197.0263157894737" y="259.8157894736842" type="curve" smooth="yes"/>
      <point x="211.5" y="328.1315789473684"/>
      <point x="249.5263157894737" y="374.92105263157896"/>
      <point x="313.2894736842105" y="378.57894736842104" type="curve"/>
      <point x="345.7368421052632" y="376.92105263157896"/>
      <point x="376.52631578947364" y="361.3421052631579"/>
      <point x="395.18421052631584" y="337.65789473684214" type="curve"/>
      <point x="361.6052631578948" y="177.5" type="line"/>
      <point x="338.94736842105266" y="141.6842105263158"/>
      <point x="305.1578947368421" y="120.39473684210526"/>
    </contour>
  </outline>
</glyph>
<glyph name="e" format="2">
  <advance width="526.6310679611651"/>
  <unicode hex="0065"/>
  <anchor x="226.6796116504854" y="0.0" name="bottom"/>
  <anchor x="367.3398058252427" y="0.0" name="ogonek"/>
  <anchor x="328.26213592233006" y="499.47572815533977" name="top"/>
  <outline>
    <contour>
      <point x="280.95145631067965" y="-13.475728155339805" type="curve" smooth="yes"/>
      <point x="337.9514563106796" y="-13.475728155339805"/>
      <point x="407.1165048543688" y="3.155339805825241"/>
      <point x="438.9029126213592" y="15.41747572815534" type="curve"/>
      <point x="459.6990291262136" y="150.5631067961165" type="line"/>
      <point x="399.85436893203877" y="126.30097087378638"/>
      <point x="345.22330097087377" y="115.03883495145632"/>
      <point x="315.28155339805824" y="115.03883495145632" type="curve" smooth="yes"/>
      <point x="221.61165048543688" y="115.03883495145632"/>
      <point x="165.3009708737864" y="158.9126213592233"/>
      <point x="183.98058252427185" y="253.2621359223301" type="curve"/>
      <point x="189.45631067961165" y="277.9029126213591" type="line"/>
      <point x="209.50485436893203" y="359.88349514563106"/>
      <point x="257.9611650485437" y="399.504854368932"/>
      <point x="306.6796116504855" y="402.87378640776694" type="curve"/>
      <point x="357.6601941747573" y="399.504854368932"/>
      <point x="378.91262135922324" y="353.7766990291262"/>
      <point x="365.38834951456306" y="297.1067961165048" type="curve" smooth="yes"/>
      <point x="363.38834951456306" y="288.84466019417476"/>
      <point x="360.38834951456306" y="278.84466019417476"/>
      <point x="357.38834951456306" y="269.84466019417476" type="curve"/>
      <point x="483.5339805825243" y="224.31067961165047" type="line"/>
      <point x="489.9029126213592" y="242.04854368932038"/>
      <point x="495.5339805825243" y="261.3106796116504"/>
      <point x="500.9029126213592" y="283.5242718446602" type="curve" smooth="yes"/>
      <point x="534.6407766990292" y="422.6407766990291"/>
      <point x="461.6893203883495" y="512.9514563106796"/>
      <point x="303.5728155339806" y="512.9514563106796" type="curve" smooth="yes"/>
      <point x="162.66990291262138" y="512.9514563106796"/>
      <point x="66.14563106796116" y="417.47572815533977"/>
      <point x="36.51456310679611" y="272.73786407766994" type="curve" smooth="yes"/>
      <point x="0.5145631067961134" y="96.41747572815534"/>
      <point x="99.94174757281552" y="-13.475728155339805"/>
    </contour>
    <contour>
      <point x="86.05825242718446" y="224.31067961165047" type="line"/>
      <point x="483.5339805825243" y="224.31067961165047" type="line"/>
      <point x="496.747572815534" y="287.90291262135923" type="line"/>
      <point x="407.7184466019417" y="312.52427184466023" type="line"/>
      <point x="99.27184466019418" y="305.67961165048547" type="line"/>
    </contour>
  </outline>
</glyph>
<glyph name="f" format="2">
  <advance width="410.6315789473684"/>
  <unicode hex="0066"/>
  <outline>
    <contour>
      <point x="33.578947368421055" y="0.0" type="curve"/>
      <point x="215.28947368421055" y="0.0" type="line"/>
      <point x="222.39473684210526" y="71.05263157894737"/>
      <point x="230.78947368421052" y="132.76315789473685"/>
      <point x="248.44736842105263" y="215.73684210526315" type="curve"/>
      <point x="302.7894736842105" y="473.42105263157896" type="line"/>
      <point x="313.0263157894737" y="499.2631578947368" type="line"/>
      <point x="303.5263157894737" y="507.0"/>
      <point x="297.7105263157895" y="530.5789473684212"/>
      <point x="301.7368421052632" y="549.6842105263157" type="curve" smooth="yes"/>
      <point x="311.5263157894737" y="595.921052631579"/>
      <point x="340.65789473684214" y="618.578947368421"/>
      <point x="387.6052631578948" y="618.578947368421" type="curve" smooth="yes"/>
      <point x="406.7368421052631" y="618.578947368421"/>
      <point x="444.31578947368416" y="609.578947368421"/>
      <point x="474.55263157894734" y="598.6052631578948" type="curve"/>
      <point x="512.8421052631578" y="730.2894736842104" type="line"/>
      <point x="472.71052631578954" y="738.6315789473684"/>
      <point x="411.6578947368421" y="747.2894736842105"/>
      <point x="381.0263157894737" y="747.2894736842105" type="curve" smooth="yes"/>
      <point x="280.5" y="747.2894736842105"/>
      <point x="188.5263157894737" y="704.9473684210526"/>
      <point x="157.60526315789474" y="563.2368421052631" type="curve" smooth="yes"/>
      <point x="139.13157894736844" y="474.57894736842104"/>
      <point x="119.5" y="348.57894736842104"/>
      <point x="102.78947368421053" y="265.7368421052632" type="curve"/>
      <point x="92.13157894736842" y="215.73684210526315" type="line"/>
      <point x="74.47368421052632" y="132.76315789473685"/>
      <point x="56.84210526315789" y="71.05263157894737"/>
    </contour>
    <contour>
      <point x="43.07894736842105" y="369.57894736842104" type="line"/>
      <point x="171.86842105263156" y="385.7631578947368" type="line"/>
      <point x="241.71052631578948" y="385.7631578947368" type="line"/>
      <point x="299.8421052631579" y="384.4473684210526"/>
      <point x="354.0263157894737" y="379.49999999999994"/>
      <point x="414.4736842105263" y="369.57894736842104" type="curve"/>
      <point x="441.86842105263156" y="499.2631578947368" type="line"/>
      <point x="70.47368421052632" y="499.2631578947368" type="line"/>
    </contour>
  </outline>
</glyph>
<glyph name="g" format="2">
  <advance width="553.1650485436893"/>
  <unicode hex="0067"/>
  <anchor x="212.80582524271844" y="-192.0" name="bottom"/>
  <anchor x="310.4174757281553" y="499.47572815533977" name="top"/>
  <outline>
    <contour>
      <point x="183.05825242718447" y="-204.10679611650482" type="curve" smooth="yes"/>
      <point x="306.4854368932038" y="-204.10679611650482"/>
      <point x="435.28155339805824" y="-161.8446601941748"/>
      <point x="460.8640776699029" y="-41.77669902912621" type="curve" smooth="yes"/>
      <point x="482.0776699029126" y="58.815533980582536"/>
      <point x="412.4854368932038" y="115.07766990291262"/>
      <point x="292.33980582524265" y="115.07766990291262" type="curve" smooth="yes"/>
      <point x="249.18446601941753" y="115.07766990291262" type="line" smooth="yes"/>
      <point x="219.71844660194174" y="115.07766990291262"/>
      <point x="194.51456310679615" y="121.33980582524272"/>
      <point x="198.14563106796118" y="140.12621359223303" type="curve" smooth="yes"/>
      <point x="201.14563106796118" y="155.6504854368932"/>
      <point x="231.50485436893206" y="164.33009708737865"/>
      <point x="284.17475728155335" y="171.2233009708738" type="curve" smooth="yes"/>
      <point x="371.4854368932039" y="183.22330097087382"/>
      <point x="459.69902912621353" y="218.0097087378641"/>
      <point x="479.69902912621353" y="318.2621359223302" type="curve" smooth="yes"/>
      <point x="490.06796116504853" y="370.0485436893204"/>
      <point x="476.6504854368932" y="413.7281553398058"/>
      <point x="435.66019417475724" y="451.62135922330094" type="curve"/>
      <point x="394.0679611650485" y="406.81553398058253" type="line"/>
      <point x="450.4854368932039" y="404.4466019417476"/>
      <point x="504.4271844660194" y="396.9708737864078"/>
      <point x="562.4757281553398" y="378.54368932038835" type="curve"/>
      <point x="588.3786407766991" y="501.58252427184465" type="line"/>
      <point x="430.6504854368932" y="501.58252427184465" type="line" smooth="yes"/>
      <point x="367.4854368932039" y="501.58252427184465"/>
      <point x="342.2718446601942" y="512.9514563106796"/>
      <point x="264.31067961165047" y="512.9514563106796" type="curve" smooth="yes"/>
      <point x="142.8252427184466" y="512.9514563106796"/>
      <point x="74.14563106796115" y="452.7864077669903"/>
      <point x="56.883495145631066" y="368.1067961165049" type="curve" smooth="yes"/>
      <point x="39.359223300970875" y="283.116504854369"/>
      <point x="91.44660194174757" y="221.00970873786406"/>
      <point x="139.66990291262132" y="194.26213592233012" type="curve"/>
      <point x="139.66990291262132" y="183.78640776699027" type="line"/>
      <point x="99.72815533980582" y="173.15533980582526"/>
      <point x="58.40776699029127" y="153.89320388349515"/>
      <point x="49.40776699029127" y="110.04854368932038" type="curve" smooth="yes"/>
      <point x="39.40776699029127" y="61.94174757281554"/>
      <point x="72.7766990291262" y="35.203883495145625"/>
      <point x="90.20388349514563" y="26.466019417475728" type="curve"/>
      <point x="90.20388349514563" y="16.621359223300967" type="line"/>
      <point x="47.57281553398059" y="6.359223300970872"/>
      <point x="-12.90291262135923" y="-18.951456310679614"/>
      <point x="-23.533980582524276" y="-68.47572815533981" type="curve" smooth="yes"/>
      <point x="-44.64077669902914" y="-167.16504854368935"/>
      <point x="70.84466019417475" y="-204.10679611650482"/>
    </contour>
    <contour>
      <point x="201.74757281553394" y="-98.61165048543688" type="curve"/>
      <point x="147.85436893203882" y="-97.24271844660193"/>
      <point x="103.87378640776697" y="-80.08737864077668"/>
      <point x="110.0291262135922" y="-51.46601941747572" type="curve" smooth="yes"/>
      <point x="115.18446601941746" y="-27.737864077669904"/>
      <point x="155.80582524271844" y="-10.582524271844665"/>
      <point x="190.58252427184462" y="-3.902912621359226" type="curve"/>
      <point x="220.25242718446603" y="-3.902912621359226" type="line" smooth="yes"/>
      <point x="295.747572815534" y="-3.902912621359226"/>
      <point x="320.70873786407765" y="-27.737864077669904"/>
      <point x="314.7087378640777" y="-53.04854368932039" type="curve" smooth="yes"/>
      <point x="310.4466019417476" y="-71.88349514563106"/>
      <point x="273.71844660194176" y="-93.98058252427182"/>
    </contour>
    <contour>
      <point x="249.00970873786403" y="260.4368932038835" type="curve"/>
      <point x="219.7572815533981" y="275.22330097087377"/>
      <point x="186.45631067961168" y="297.0582524271844"/>
      <point x="194.24271844660197" y="336.14563106796123" type="curve" smooth="yes"/>
      <point x="201.02912621359226" y="370.97087378640776"/>
      <point x="232.54368932038832" y="388.1747572815534"/>
      <point x="272.631067961165" y="388.9126213592233" type="curve"/>
      <point x="321.93203883495147" y="387.43689320388347"/>
      <point x="353.81553398058253" y="356.02912621359224"/>
      <point x="344.7669902912621" y="316.6796116504854" type="curve" smooth="yes"/>
      <point x="335.3495145631068" y="275.2233009708738"/>
      <point x="287.4660194174757" y="263.33009708737865"/>
    </contour>
  </outline>
</glyph>
<glyph name="k" format="2">
  <advance width="582.4473684210526"/>
  <unicode hex="006B"/>
  <anchor x="239.02631578947367" y="0.0" name="bottom"/>
  <anchor x="392.34210526315786" y="729.578947368421" name="top"/>
  <outline>
    <contour>
      <point x="326.8421052631579" y="0.0" type="curve"/>
      <point x="530.1578947368422" y="0.0" type="line"/>
      <point x="482.2894736842105" y="60.94736842105263"/>
      <point x="442.3684210526316" y="122.21052631578948"/>
      <point x="404.7631578947369" y="183.1578947368421" type="curve"/>
      <point x="335.4473684210526" y="299.7894736842105" type="line"/>
      <point x="358.21052631578954" y="230.78947368421052" type="line"/>
      <point x="441.60526315789474" y="319.05263157894734" type="line"/>
      <point x="499.21052631578954" y="379.3421052631579"/>
      <point x="557.5" y="438.9736842105263"/>
      <point x="621.7368421052631" y="499.2631578947368" type="curve"/>
      <point x="413.07894736842104" y="499.2631578947368" type="line"/>
      <point x="383.2631578947368" y="456.1842105263158"/>
      <point x="347.842105263158" y="413.42105263157896"/>
      <point x="311.44736842105266" y="370.3421052631579" type="curve"/>
      <point x="251.13157894736844" y="300.2105263157895" type="line"/>
      <point x="215.8684210526316" y="300.2105263157895" type="line"/>
      <point x="194.07894736842107" y="197.21052631578948" type="line"/>
      <point x="228.60526315789474" y="197.21052631578948" type="line"/>
      <point x="270.3157894736842" y="121.34210526315789" type="line"/>
      <point x="292.3421052631579" y="80.89473684210526"/>
      <point x="312.3947368421052" y="40.44736842105263"/>
    </contour>
    <contour>
      <point x="-3.9736842105263177" y="0.0" type="curve"/>
      <point x="177.73684210526318" y="0.0" type="line"/>
      <point x="184.1842105263158" y="63.1578947368421"/>
      <point x="191.26315789473685" y="118.28947368421052"/>
      <point x="204.31578947368422" y="184.81578947368422" type="curve"/>
      <point x="269.55263157894746" y="493.3421052631579" type="line"/>
      <point x="288.8684210526316" y="585.578947368421"/>
      <point x="313.7631578947369" y="669.1842105263157"/>
      <point x="340.36842105263156" y="747.8947368421052" type="curve"/>
      <point x="138.5" y="730.9736842105264" type="line"/>
      <point x="140.31578947368422" y="651.7368421052632"/>
      <point x="129.92105263157896" y="574.3947368421053"/>
      <point x="113.23684210526315" y="493.3421052631579" type="curve"/>
      <point x="54.57894736842105" y="215.73684210526315" type="line"/>
      <point x="36.921052631578945" y="132.76315789473685"/>
      <point x="19.289473684210524" y="71.05263157894737"/>
    </contour>
  </outline>
</glyph>
<glyph name="l" format="2">
  <advance width="280.10526315789474"/>
  <unicode hex="006C"/>
  <anchor x="87.05263157894737" y="0.0" name="bottom"/>
  <anchor x="177.3421052631579" y="409.0" name="center"/>
  <anchor x="235.78947368421052" y="729.578947368421" name="top"/>
  <anchor x="300.6052631578947" y="499.2631578947368" name="topright"/>
  <outline>
    <contour>
      <point x="-3.9736842105263177" y="0.0" type="curve"/>
      <point x="177.73684210526318" y="0.0" type="line"/>
      <point x="184.8421052631579" y="71.05263157894737"/>
      <point x="193.23684210526315" y="132.76315789473685"/>
      <point x="210.89473684210526" y="215.73684210526315" type="curve"/>
      <point x="269.55263157894746" y="493.3421052631579" type="line"/>
      <point x="288.8684210526316" y="585.578947368421"/>
      <point x="313.7631578947369" y="669.1842105263157"/>
      <point x="340.36842105263156" y="747.8947368421052" type="curve"/>
      <point x="138.5" y="730.9736842105264" type="line"/>
      <point x="140.31578947368422" y="651.7368421052631"/>
      <point x="129.92105263157896" y="574.3947368421053"/>
      <point x="113.23684210526315" y="493.3421052631579" type="curve"/>
      <point x="54.57894736842105" y="215.73684210526315" type="line"/>
      <point x="36.921052631578945" y="132.76315789473685"/>
      <point x="19.289473684210524" y="71.05263157894737"/>
    </contour>
  </outline>
</glyph>
<glyph name="m" format="2">
  <advance width="886.2105263157895"/>
  <unicode hex="006D"/>
  <anchor x="396.3684210526316" y="0.0" name="bottom"/>
  <anchor x="501.6842105263158" y="499.2631578947368" name="top"/>
  <outline>
    <contour>
      <point x="0.7105263157894717" y="0.0" type="curve"/>
      <point x="182.42105263157896" y="0.0" type="line"/>
      <point x="189.52631578947367" y="71.05263157894737"/>
      <point x="197.92105263157893" y="132.76315789473685"/>
      <point x="213.60526315789474" y="207.18421052631578" type="curve"/>
      <point x="235.68421052631578" y="311.18421052631584" type="line"/>
      <point x="267.05263157894734" y="343.921052631579"/>
      <point x="306.2368421052631" y="370.6842105263158"/>
      <point x="333.3684210526316" y="370.6842105263158" type="curve" smooth="yes"/>
      <point x="376.92105263157896" y="370.6842105263158"/>
      <point x="388.4473684210526" y="332.4473684210526"/>
      <point x="373.02631578947364" y="263.6578947368421" type="curve"/>
      <point x="361.9210526315789" y="207.18421052631578" type="line"/>
      <point x="346.2368421052632" y="132.76315789473682"/>
      <point x="329.26315789473676" y="71.05263157894737"/>
      <point x="307.31578947368416" y="0.0" type="curve"/>
      <point x="487.7105263157895" y="0.0" type="line"/>
      <point x="492.8421052631579" y="71.05263157894737"/>
      <point x="502.55263157894746" y="132.76315789473682"/>
      <point x="520.2105263157895" y="215.73684210526315" type="curve"/>
      <point x="528.2105263157895" y="254.3947368421052"/>
      <point x="540.1315789473684" y="292.5526315789474"/>
      <point x="546.1315789473684" y="320.8684210526316" type="curve" smooth="yes"/>
      <point x="552.4473684210527" y="350.13157894736844"/>
      <point x="554.1315789473684" y="376.39473684210526"/>
      <point x="551.5000000000001" y="399.6842105263158" type="curve"/>
      <point x="545.236842105263" y="401.05263157894734" type="line"/>
      <point x="540.6052631578948" y="470.84210526315786"/>
      <point x="497.92105263157896" y="513.2105263157895"/>
      <point x="422.5263157894737" y="513.2105263157895" type="curve" smooth="yes"/>
      <point x="366.0789473684211" y="513.2105263157895"/>
      <point x="298.2894736842106" y="471.3157894736842"/>
      <point x="253.65789473684208" y="422.4473684210526" type="curve"/>
      <point x="240.76315789473682" y="422.4473684210526" type="line"/>
      <point x="247.81578947368422" y="506.86842105263156" type="line"/>
      <point x="93.78947368421052" y="499.2631578947368" type="line"/>
      <point x="95.97368421052633" y="419.3421052631579"/>
      <point x="85.92105263157895" y="342.0"/>
      <point x="70.26315789473685" y="265.7368421052632" type="curve"/>
      <point x="59.263157894736835" y="215.73684210526315" type="line"/>
      <point x="41.60526315789473" y="132.76315789473685"/>
      <point x="23.973684210526315" y="71.05263157894737"/>
    </contour>
    <contour>
      <point x="609.8947368421052" y="0.0" type="curve"/>
      <point x="790.2894736842105" y="0.0" type="line"/>
      <point x="795.4210526315791" y="71.05263157894737"/>
      <point x="805.1315789473684" y="132.76315789473682"/>
      <point x="822.7894736842105" y="215.73684210526315" type="curve"/>
      <point x="830.7894736842105" y="254.3947368421052"/>
      <point x="842.7105263157895" y="292.5526315789474"/>
      <point x="848.7105263157895" y="320.8684210526316" type="curve" smooth="yes"/>
      <point x="873.7368421052632" y="437.60526315789474"/>
      <point x="827.078947368421" y="513.2105263157895"/>
      <point x="725.1052631578948" y="513.2105263157895" type="curve" smooth="yes"/>
      <point x="668.6578947368421" y="513.2105263157895"/>
      <point x="599.8157894736843" y="470.28947368421046"/>
      <point x="554.5" y="420.7368421052632" type="curve"/>
      <point x="540.2631578947369" y="420.7368421052632" type="line"/>
      <point x="538.2631578947369" y="311.18421052631584" type="line"/>
      <point x="569.6315789473683" y="343.9210526315789"/>
      <point x="608.8157894736843" y="370.6842105263158"/>
      <point x="635.9473684210526" y="370.6842105263158" type="curve" smooth="yes"/>
      <point x="679.5000000000001" y="370.6842105263158"/>
      <point x="691.0263157894736" y="332.4473684210526"/>
      <point x="675.6052631578947" y="263.6578947368421" type="curve"/>
      <point x="664.5" y="207.18421052631578" type="line"/>
      <point x="648.8157894736842" y="132.76315789473682"/>
      <point x="631.8421052631579" y="71.05263157894737"/>
    </contour>
  </outline>
</glyph>
<glyph name="n" format="2">
  <advance width="592.421052631579"/>
  <unicode hex="006E"/>
  <anchor x="244.63157894736838" y="0.0" name="bottom"/>
  <anchor x="349.9473684210526" y="499.2631578947368" name="top"/>
  <outline>
    <contour>
      <point x="0.7105263157894717" y="0.0" type="curve"/>
      <point x="182.42105263157896" y="0.0" type="line"/>
      <point x="189.52631578947367" y="71.05263157894737"/>
      <point x="197.92105263157893" y="132.76315789473685"/>
      <point x="213.60526315789474" y="207.18421052631578" type="curve"/>
      <point x="235.68421052631578" y="311.18421052631584" type="line"/>
      <point x="267.0526315789474" y="343.9210526315789"/>
      <point x="308.92105263157896" y="370.6842105263158"/>
      <point x="336.7368421052632" y="370.6842105263158" type="curve" smooth="yes"/>
      <point x="385.71052631578954" y="370.6842105263158"/>
      <point x="397.2368421052632" y="332.4473684210526"/>
      <point x="381.8157894736842" y="263.6578947368421" type="curve"/>
      <point x="370.7105263157895" y="207.18421052631578" type="line"/>
      <point x="355.02631578947376" y="132.76315789473682"/>
      <point x="338.05263157894734" y="71.05263157894737"/>
      <point x="316.10526315789474" y="0.0" type="curve"/>
      <point x="496.5" y="0.0" type="line"/>
      <point x="501.63157894736844" y="71.05263157894737"/>
      <point x="511.3421052631579" y="132.76315789473682"/>
      <point x="529.0" y="215.73684210526315" type="curve"/>
      <point x="537.0" y="254.3947368421052"/>
      <point x="548.921052631579" y="292.5526315789474"/>
      <point x="554.921052631579" y="320.8684210526316" type="curve" smooth="yes"/>
      <point x="579.9473684210527" y="437.6052631578948"/>
      <point x="533.2894736842105" y="513.2105263157895"/>
      <point x="426.2368421052632" y="513.2105263157895" type="curve" smooth="yes"/>
      <point x="367.4473684210526" y="513.2105263157895"/>
      <point x="298.94736842105266" y="471.3157894736842"/>
      <point x="253.65789473684208" y="422.44736842105266" type="curve"/>
      <point x="240.76315789473682" y="422.44736842105266" type="line"/>
      <point x="247.81578947368422" y="506.86842105263156" type="line"/>
      <point x="93.78947368421052" y="499.2631578947368" type="line"/>
      <point x="95.97368421052633" y="419.3421052631579"/>
      <point x="85.92105263157895" y="342.0"/>
      <point x="70.26315789473685" y="265.7368421052632" type="curve"/>
      <point x="59.263157894736835" y="215.73684210526315" type="line"/>
      <point x="41.60526315789473" y="132.76315789473685"/>
      <point x="23.973684210526315" y="71.05263157894737"/>
    </contour>
  </outline>
</glyph>
<glyph name="o" format="2">
  <advance width="597.6578947368421"/>
  <unicode hex="006F"/>
  <anchor x="245.99999999999997" y="0.0" name="bottom"/>
  <anchor x="298.6578947368421" y="249.6315789473684" name="center"/>
  <anchor x="364.2894736842105" y="0.0" name="ogonek"/>
  <anchor x="351.31578947368416" y="499.2631578947368" name="top"/>
  <anchor x="577.5" y="499.2631578947368" name="topright"/>
  <outline>
    <contour>
      <point x="276.60526315789474" y="-13.605263157894736" type="curve" smooth="yes"/>
      <point x="427.97368421052636" y="-13.605263157894736"/>
      <point x="529.3157894736843" y="78.10526315789474"/>
      <point x="560.2894736842106" y="223.31578947368422" type="curve" smooth="yes"/>
      <point x="592.2894736842106" y="372.9736842105263"/>
      <point x="507.7105263157894" y="513.2105263157895"/>
      <point x="321.39473684210526" y="513.2105263157895" type="curve" smooth="yes"/>
      <point x="173.4736842105263" y="513.2105263157895"/>
      <point x="69.02631578947368" y="425.92105263157896"/>
      <point x="37.71052631578947" y="276.94736842105266" type="curve" smooth="yes"/>
      <point x="7.05263157894737" y="128.6578947368421"/>
      <point x="84.3157894736842" y="-13.605263157894736"/>
    </contour>
    <contour>
      <point x="281.2368421052631" y="113.78947368421053" type="curve"/>
      <point x="208.5263157894737" y="118.10526315789475"/>
      <point x="179.2105263157895" y="184.71052631578945"/>
      <point x="195.0263157894737" y="261.7368421052632" type="curve" smooth="yes"/>
      <point x="209.81578947368422" y="334.0"/>
      <point x="253.97368421052633" y="381.5"/>
      <point x="319.42105263157896" y="385.8157894736842" type="curve"/>
      <point x="391.00000000000006" y="380.1842105263158"/>
      <point x="418.8157894736842" y="314.6578947368421"/>
      <point x="402.9736842105263" y="237.8684210526316" type="curve" smooth="yes"/>
      <point x="388.8421052631579" y="169.26315789473685"/>
      <point x="346.36842105263156" y="118.10526315789475"/>
    </contour>
  </outline>
</glyph>
<glyph name="p" format="2">
  <advance width="599.9473684210526"/>
  <unicode hex="0070"/>
  <outline>
    <contour>
      <point x="-40.631578947368425" y="-196.6315789473684" type="curve"/>
      <point x="145.3684210526316" y="-192.0" type="line"/>
      <point x="149.5" y="-120.94736842105263"/>
      <point x="157.23684210526315" y="-59.23684210526316"/>
      <point x="173.26315789473685" y="15.184210526315788" type="curve"/>
      <point x="182.6315789473684" y="57.65789473684211" type="line"/>
      <point x="192.57894736842104" y="57.65789473684211" type="line"/>
      <point x="225.0526315789474" y="12.894736842105264"/>
      <point x="283.89473684210526" y="-13.605263157894736"/>
      <point x="332.7105263157895" y="-13.605263157894736" type="curve" smooth="yes"/>
      <point x="450.7631578947369" y="-13.605263157894736"/>
      <point x="531.5526315789474" y="85.86842105263158"/>
      <point x="561.5526315789474" y="227.89473684210526" type="curve" smooth="yes"/>
      <point x="593.2105263157895" y="379.2105263157895"/>
      <point x="544.3684210526316" y="513.2105263157895"/>
      <point x="406.5" y="513.2105263157895" type="curve" smooth="yes"/>
      <point x="357.7368421052632" y="513.2105263157895"/>
      <point x="301.2368421052632" y="483.7368421052632"/>
      <point x="260.9473684210526" y="436.92105263157896" type="curve"/>
      <point x="247.71052631578948" y="436.92105263157896" type="line"/>
      <point x="253.73684210526315" y="506.86842105263156" type="line"/>
      <point x="93.78947368421052" y="499.2631578947368" type="line"/>
      <point x="95.97368421052633" y="419.3421052631579"/>
      <point x="85.92105263157895" y="342.0"/>
      <point x="70.26315789473685" y="265.7368421052632" type="curve"/>
      <point x="18.92105263157895" y="23.736842105263158" type="line"/>
      <point x="1.2631578947368407" y="-59.23684210526316"/>
      <point x="-17.368421052631582" y="-125.57894736842105"/>
    </contour>
    <contour>
      <point x="287.3157894736842" y="121.02631578947368" type="curve"/>
      <point x="255.89473684210526" y="122.34210526315789"/>
      <point x="224.76315789473685" y="139.28947368421052"/>
      <point x="206.10526315789474" y="168.44736842105266" type="curve"/>
      <point x="240.36842105263156" y="331.0" type="line"/>
      <point x="265.42105263157896" y="360.65789473684214"/>
      <point x="299.89473684210526" y="379.55263157894734"/>
      <point x="327.8684210526316" y="380.55263157894734" type="curve"/>
      <point x="394.44736842105266" y="377.55263157894734"/>
      <point x="418.42105263157896" y="311.9736842105263"/>
      <point x="403.5789473684211" y="239.78947368421052" type="curve" smooth="yes"/>
      <point x="389.44736842105266" y="172.1578947368421"/>
      <point x="351.0789473684211" y="124.6842105263158"/>
    </contour>
  </outline>
</glyph>
<glyph name="q" format="2">
  <advance width="588.2894736842105"/>
  <unicode hex="0071"/>
  <outline>
    <contour>
      <point x="269.52631578947376" y="-196.6315789473684" type="curve"/>
      <point x="452.2368421052631" y="-192.0" type="line"/>
      <point x="459.3421052631579" y="-120.94736842105263"/>
      <point x="467.7368421052632" y="-59.23684210526316"/>
      <point x="485.39473684210526" y="23.736842105263158" type="curve"/>
      <point x="537.0526315789474" y="265.7368421052632" type="line"/>
      <point x="553.3684210526316" y="344.3157894736842"/>
      <point x="576.3157894736842" y="424.63157894736844"/>
      <point x="607.8684210526316" y="506.86842105263156" type="curve"/>
      <point x="452.5263157894737" y="499.2631578947368" type="line"/>
      <point x="431.52631578947364" y="434.5263157894737" type="line"/>
      <point x="418.9473684210526" y="434.5263157894737" type="line"/>
      <point x="385.8684210526316" y="483.42105263157896"/>
      <point x="323.07894736842104" y="513.2105263157895"/>
      <point x="267.89473684210526" y="513.2105263157895" type="curve" smooth="yes"/>
      <point x="149.8421052631579" y="513.2105263157895"/>
      <point x="69.05263157894737" y="413.7368421052632"/>
      <point x="39.05263157894736" y="271.7105263157895" type="curve" smooth="yes"/>
      <point x="7.394736842105259" y="120.39473684210526"/>
      <point x="56.23684210526316" y="-13.605263157894736"/>
      <point x="194.10526315789474" y="-13.605263157894736" type="curve" smooth="yes"/>
      <point x="236.89473684210523" y="-13.605263157894736"/>
      <point x="286.13157894736844" y="9.526315789473685"/>
      <point x="324.52631578947364" y="54.92105263157895" type="curve"/>
      <point x="335.7894736842105" y="54.92105263157895" type="line"/>
      <point x="327.1052631578948" y="15.184210526315788" type="line"/>
      <point x="311.421052631579" y="-59.23684210526316"/>
      <point x="292.7894736842106" y="-125.57894736842105"/>
    </contour>
    <contour>
      <point x="272.7368421052632" y="119.05263157894737" type="curve"/>
      <point x="206.1578947368421" y="121.71052631578948"/>
      <point x="181.84210526315792" y="187.97368421052633"/>
      <point x="197.0263157894737" y="259.8157894736842" type="curve" smooth="yes"/>
      <point x="211.5" y="328.1315789473684"/>
      <point x="249.5263157894737" y="374.92105263157896"/>
      <point x="313.2894736842105" y="378.57894736842104" type="curve"/>
      <point x="345.7368421052632" y="376.92105263157896"/>
      <point x="376.52631578947364" y="361.3421052631579"/>
      <point x="395.8684210526316" y="337.65789473684214" type="curve"/>
      <point x="361.94736842105266" y="177.5" type="line"/>
      <point x="338.94736842105266" y="141.6842105263158"/>
      <point x="305.1578947368421" y="120.39473684210526"/>
    </contour>
  </outline>
</glyph>
<glyph name="r" format="2">
  <advance width="422.94736842105266"/>
  <unicode hex="0072"/>
  <anchor x="84.44736842105263" y="0.0" name="bottom"/>
  <anchor x="287.9473684210526" y="499.2631578947368" name="top"/>
  <outline>
    <contour>
      <point x="0.7105263157894717" y="0.0" type="curve"/>
      <point x="182.42105263157896" y="0.0" type="line"/>
      <point x="189.52631578947367" y="71.05263157894737"/>
      <point x="197.92105263157893" y="132.76315789473685"/>
      <point x="213.60526315789474" y="207.18421052631578" type="curve"/>
      <point x="229.6578947368421" y="279.7894736842105" type="line"/>
      <point x="269.5526315789474" y="337.4473684210526"/>
      <point x="318.7894736842106" y="355.55263157894734"/>
      <point x="343.68421052631584" y="355.55263157894734" type="curve" smooth="yes"/>
      <point x="361.02631578947364" y="355.55263157894734"/>
      <point x="380.3421052631579" y="350.57894736842104"/>
      <point x="411.2631578947369" y="339.92105263157896" type="curve"/>
      <point x="459.42105263157896" y="502.86842105263156" type="line"/>
      <point x="442.07894736842104" y="508.2105263157894"/>
      <point x="414.76315789473693" y="513.2105263157895"/>
      <point x="398.97368421052636" y="513.2105263157895" type="curve" smooth="yes"/>
      <point x="355.97368421052636" y="513.2105263157895"/>
      <point x="308.07894736842104" y="493.52631578947376"/>
      <point x="251.94736842105266" y="417.3157894736842" type="curve"/>
      <point x="239.05263157894737" y="417.3157894736842" type="line"/>
      <point x="247.81578947368422" y="506.86842105263156" type="line"/>
      <point x="93.78947368421052" y="499.2631578947368" type="line"/>
      <point x="95.97368421052633" y="419.3421052631579"/>
      <point x="85.92105263157895" y="342.0"/>
      <point x="70.26315789473685" y="265.7368421052632" type="curve"/>
      <point x="59.263157894736835" y="215.73684210526315" type="line"/>
      <point x="41.60526315789473" y="132.76315789473685"/>
      <point x="23.973684210526315" y="71.05263157894737"/>
    </contour>
  </outline>
</glyph>
<glyph name="u" format="2">
  <advance width="579.2631578947368"/>
  <unicode hex="0075"/>
  <anchor x="236.15789473684208" y="0.0" name="bottom"/>
  <anchor x="476.421052631579" y="0.0" name="ogonek"/>
  <anchor x="340.81578947368416" y="499.2631578947368" name="top"/>
  <anchor x="608.1578947368421" y="499.2631578947368" name="topright"/>
  <outline>
    <contour>
      <point x="163.23684210526318" y="-13.605263157894736" type="curve" smooth="yes"/>
      <point x="219.9736842105263" y="-13.605263157894736"/>
      <point x="288.4736842105263" y="28.289473684210527"/>
      <point x="333.7631578947368" y="77.1578947368421" type="curve"/>
      <point x="346.65789473684214" y="77.1578947368421" type="line"/>
      <point x="337.2105263157895" y="0.0" type="line"/>
      <point x="480.3684210526316" y="0.0" type="line"/>
      <point x="487.4736842105263" y="71.05263157894737"/>
      <point x="495.2105263157895" y="132.76315789473685"/>
      <point x="512.8684210526316" y="215.73684210526315" type="curve"/>
      <point x="525.1842105263157" y="272.3157894736842" type="line"/>
      <point x="544.8157894736842" y="365.8157894736842"/>
      <point x="562.4473684210526" y="428.2105263157895"/>
      <point x="585.3947368421053" y="499.2631578947368" type="curve"/>
      <point x="405.31578947368416" y="499.2631578947368" type="line"/>
      <point x="398.89473684210526" y="428.2105263157895"/>
      <point x="388.8421052631579" y="365.8157894736842"/>
      <point x="372.8157894736842" y="291.3947368421053" type="curve"/>
      <point x="350.42105263157896" y="185.13157894736844" type="line"/>
      <point x="319.05263157894734" y="152.39473684210526"/>
      <point x="277.1842105263158" y="125.63157894736842"/>
      <point x="251.42105263157896" y="125.63157894736842" type="curve" smooth="yes"/>
      <point x="202.44736842105266" y="125.63157894736842"/>
      <point x="190.921052631579" y="163.86842105263156"/>
      <point x="205.6842105263158" y="232.6578947368421" type="curve"/>
      <point x="217.76315789473688" y="291.3947368421053" type="line"/>
      <point x="232.78947368421055" y="365.8157894736842"/>
      <point x="251.421052631579" y="432.8421052631579"/>
      <point x="274.36842105263156" y="503.89473684210526" type="curve"/>
      <point x="91.31578947368422" y="499.2631578947368" type="line"/>
      <point x="84.89473684210526" y="428.2105263157895"/>
      <point x="77.47368421052632" y="367.13157894736844"/>
      <point x="57.5" y="272.3157894736842" type="curve"/>
      <point x="49.50000000000001" y="234.68421052631578"/>
      <point x="41.86842105263158" y="207.05263157894737"/>
      <point x="35.86842105263158" y="178.73684210526315" type="curve" smooth="yes"/>
      <point x="10.842105263157896" y="62.0"/>
      <point x="56.18421052631579" y="-13.605263157894736"/>
    </contour>
  </outline>
</glyph>
<glyph name="v" format="2">
  <advance width="553.2368421052631"/>
  <unicode hex="0076"/>
  <outline>
    <contour>
      <point x="134.21052631578945" y="0.0" type="curve"/>
      <point x="316.3684210526316" y="0.0" type="line"/>
      <point x="346.44736842105266" y="62.6578947368421"/>
      <point x="379.1578947368421" y="124.97368421052632"/>
      <point x="414.1842105263158" y="186.9736842105263" type="curve"/>
      <point x="464.5526315789474" y="276.2894736842106" type="line"/>
      <point x="506.2368421052631" y="350.60526315789474"/>
      <point x="549.2631578947369" y="425.60526315789474"/>
      <point x="598.2368421052632" y="499.2631578947368" type="curve"/>
      <point x="405.2631578947368" y="499.2631578947368" type="line"/>
      <point x="381.86842105263156" y="435.86842105263156"/>
      <point x="353.86842105263156" y="367.89473684210526"/>
      <point x="321.86842105263156" y="298.5526315789474" type="curve"/>
      <point x="262.2368421052632" y="168.55263157894737" type="line"/>
      <point x="249.6578947368421" y="168.55263157894737" type="line"/>
      <point x="242.3421052631579" y="298.5526315789474" type="line"/>
      <point x="238.5" y="367.89473684210526"/>
      <point x="237.6315789473684" y="436.5263157894737"/>
      <point x="239.42105263157896" y="503.89473684210526" type="curve"/>
      <point x="61.000000000000014" y="499.2631578947368" type="line"/>
      <point x="77.9736842105263" y="427.2631578947369"/>
      <point x="91.31578947368422" y="350.94736842105266"/>
      <point x="101.68421052631578" y="277.63157894736844" type="curve"/>
      <point x="114.71052631578948" y="188.97368421052633" type="line"/>
      <point x="123.73684210526315" y="127.0"/>
      <point x="130.78947368421052" y="62.6578947368421"/>
    </contour>
  </outline>
</glyph>
<glyph name="w" format="2">
  <advance width="837.6315789473684"/>
  <unicode hex="0077"/>
  <anchor x="363.05263157894734" y="0.0" name="bottom"/>
  <anchor x="467.7105263157894" y="499.2631578947368" name="top"/>
  <outline>
    <contour>
      <point x="109.21052631578947" y="0.0" type="curve"/>
      <point x="286.44736842105266" y="0.0" type="line"/>
      <point x="307.7894736842105" y="58.421052631578945"/>
      <point x="334.44736842105266" y="120.55263157894736"/>
      <point x="360.39473684210526" y="178.28947368421052" type="curve"/>
      <point x="410.60526315789474" y="290.07894736842104" type="line"/>
      <point x="421.86842105263156" y="290.07894736842104" type="line"/>
      <point x="426.7368421052631" y="182.26315789473685" type="line"/>
      <point x="428.8421052631579" y="123.55263157894737"/>
      <point x="430.63157894736844" y="57.73684210526316"/>
      <point x="427.78947368421046" y="0.0" type="curve"/>
      <point x="621.8421052631578" y="0.0" type="line"/>
      <point x="646.6052631578948" y="61.6578947368421"/>
      <point x="678.2894736842105" y="125.3157894736842"/>
      <point x="712.6315789473684" y="190.97368421052633" type="curve"/>
      <point x="758.3157894736842" y="277.97368421052636" type="line"/>
      <point x="797.3157894736842" y="352.60526315789474"/>
      <point x="835.6578947368422" y="424.60526315789474"/>
      <point x="883.6052631578947" y="499.2631578947368" type="curve"/>
      <point x="689.9736842105262" y="499.2631578947368" type="line"/>
      <point x="670.3421052631579" y="438.6315789473684"/>
      <point x="638.6842105263157" y="361.60526315789474"/>
      <point x="610.0789473684209" y="294.2894736842105" type="curve"/>
      <point x="553.8684210526316" y="161.6578947368421" type="line"/>
      <point x="542.2894736842105" y="161.6578947368421" type="line"/>
      <point x="539.7105263157894" y="292.63157894736844" type="line"/>
      <point x="538.578947368421" y="360.94736842105266"/>
      <point x="538.7631578947368" y="432.94736842105266"/>
      <point x="543.578947368421" y="499.2631578947368" type="curve"/>
      <point x="382.86842105263156" y="499.2631578947368" type="line"/>
      <point x="360.5" y="429.57894736842104"/>
      <point x="331.89473684210526" y="361.57894736842104"/>
      <point x="302.63157894736844" y="291.9473684210526" type="curve"/>
      <point x="247.44736842105263" y="161.6578947368421" type="line"/>
      <point x="235.8684210526316" y="161.6578947368421" type="line"/>
      <point x="232.94736842105263" y="290.5789473684211" type="line"/>
      <point x="231.8157894736842" y="358.5526315789474"/>
      <point x="231.31578947368422" y="435.2368421052632"/>
      <point x="236.1315789473684" y="503.89473684210526" type="curve"/>
      <point x="56.71052631578949" y="499.2631578947368" type="line"/>
      <point x="73.6578947368421" y="424.2631578947368"/>
      <point x="82.0" y="352.2894736842106"/>
      <point x="89.02631578947368" y="277.97368421052636" type="curve"/>
      <point x="97.73684210526316" y="189.63157894736844" type="line"/>
      <point x="103.76315789473684" y="125.97368421052632"/>
      <point x="108.78947368421055" y="62.6578947368421"/>
    </contour>
  </outline>
</glyph>
<glyph name="x" format="2">
  <advance width="577.7631578947369"/>
  <unicode hex="0078"/>
  <outline>
    <contour>
      <point x="-40.68421052631579" y="0.0" type="curve"/>
      <point x="163.23684210526318" y="0.0" type="line"/>
      <point x="181.92105263157893" y="37.81578947368421"/>
      <point x="197.5" y="64.60526315789474"/>
      <point x="221.78947368421055" y="103.39473684210526" type="curve"/>
      <point x="268.36842105263156" y="174.36842105263156" type="line"/>
      <point x="278.63157894736844" y="174.36842105263156" type="line"/>
      <point x="300.42105263157896" y="99.42105263157895" type="line"/>
      <point x="311.3157894736842" y="62.60526315789473"/>
      <point x="318.1578947368421" y="35.5"/>
      <point x="323.4210526315789" y="0.0" type="curve"/>
      <point x="515.078947368421" y="0.0" type="line"/>
      <point x="478.0526315789473" y="65.94736842105263"/>
      <point x="459.0" y="108.23684210526315"/>
      <point x="437.57894736842104" y="156.89473684210526" type="curve"/>
      <point x="385.7368421052632" y="275.7894736842105" type="line"/>
      <point x="387.0263157894737" y="242.71052631578948" type="line"/>
      <point x="478.8157894736842" y="351.0" type="line"/>
      <point x="521.2105263157895" y="400.6578947368421"/>
      <point x="549.5526315789473" y="433.2894736842105"/>
      <point x="610.2631578947367" y="499.2631578947368" type="curve"/>
      <point x="405.6842105263158" y="499.2631578947368" type="line"/>
      <point x="386.6842105263158" y="461.44736842105266"/>
      <point x="369.13157894736844" y="433.3421052631579"/>
      <point x="344.55263157894734" y="395.57894736842104" type="curve"/>
      <point x="298.7105263157895" y="326.6578947368421" type="line"/>
      <point x="287.47368421052636" y="326.6578947368421" type="line"/>
      <point x="267.10526315789474" y="396.2368421052632" type="line"/>
      <point x="257.2631578947368" y="432.3157894736842"/>
      <point x="249.421052631579" y="464.7368421052632"/>
      <point x="243.5" y="503.89473684210526" type="curve"/>
      <point x="63.71052631578947" y="499.2631578947368" type="line"/>
      <point x="96.42105263157895" y="436.94736842105266"/>
      <point x="112.13157894736841" y="399.3157894736842"/>
      <point x="132.23684210526315" y="348.9736842105263" type="curve"/>
      <point x="175.42105263157896" y="241.3421052631579" type="line"/>
      <point x="182.02631578947367" y="275.10526315789474" type="line"/>
      <point x="92.15789473684211" y="158.8684210526316" type="line"/>
      <point x="51.07894736842106" y="105.92105263157895"/>
      <point x="21.026315789473685" y="68.94736842105263"/>
    </contour>
  </outline>
</glyph>
<glyph name="y" format="2">
  <advance width="554.6052631578948"/>
  <unicode hex="0079"/>
  <anchor x="403.6052631578948" y="0.0" name="bottom"/>
  <anchor x="329.9736842105263" y="499.2631578947368" name="top"/>
  <outline>
    <contour>
      <point x="2.7368421052631478" y="-196.6315789473684" type="curve"/>
      <point x="197.02631578947367" y="-192.0" type="line"/>
      <point x="230.4736842105263" y="-120.0"/>
      <point x="277.5" y="-36.368421052631575"/>
      <point x="352.2105263157894" y="90.63157894736842" type="curve"/>
      <point x="435.2368421052631" y="230.94736842105263" type="line"/>
      <point x="509.2631578947368" y="356.60526315789474"/>
      <point x="545.9473684210526" y="418.2631578947368"/>
      <point x="596.9473684210526" y="499.2631578947368" type="curve"/>
      <point x="405.9473684210526" y="499.2631578947368" type="line"/>
      <point x="381.55263157894734" y="430.60526315789474"/>
      <point x="353.2105263157895" y="364.94736842105266"/>
      <point x="320.2105263157894" y="295.2631578947369" type="curve"/>
      <point x="258.2368421052632" y="163.28947368421055" type="line"/>
      <point x="245.65789473684214" y="163.28947368421055" type="line"/>
      <point x="239.0263157894737" y="295.57894736842104" type="line"/>
      <point x="234.8684210526316" y="366.57894736842104"/>
      <point x="234.3421052631579" y="432.89473684210526"/>
      <point x="237.44736842105263" y="503.89473684210526" type="curve"/>
      <point x="59.0263157894737" y="499.2631578947368" type="line"/>
      <point x="76.65789473684211" y="427.60526315789474"/>
      <point x="88.34210526315789" y="351.60526315789474"/>
      <point x="98.36842105263158" y="279.94736842105266" type="curve"/>
      <point x="110.73684210526316" y="189.94736842105263" type="line"/>
      <point x="120.42105263157895" y="121.97368421052632"/>
      <point x="126.15789473684211" y="52.28947368421053"/>
      <point x="130.57894736842104" y="-16.36842105263158" type="curve"/>
      <point x="143.10526315789474" y="18.368421052631582" type="line"/>
      <point x="105.10526315789473" y="-51.210526315789465"/>
      <point x="55.23684210526315" y="-127.05263157894738"/>
    </contour>
  </outline>
</glyph>
<glyph name="z" format="2">
  <advance width="517.5263157894736"/>
  <unicode hex="007A"/>
  <anchor x="204.76315789473685" y="0.0" name="bottom"/>
  <anchor x="257.42105263157896" y="249.6315789473684" name="center"/>
  <anchor x="310.07894736842104" y="499.2631578947368" name="top"/>
  <outline>
    <contour>
      <point x="-21.815789473684212" y="0.0" type="line"/>
      <point x="435.3947368421053" y="0.0" type="line"/>
      <point x="463.44736842105266" y="132.31578947368422" type="line"/>
      <point x="403.57894736842104" y="120.44736842105264"/>
      <point x="324.6315789473684" y="114.8421052631579"/>
      <point x="277.7894736842105" y="114.8421052631579" type="curve"/>
      <point x="174.3947368421053" y="114.8421052631579" type="line"/>
      <point x="190.57894736842107" y="82.8157894736842" type="line"/>
      <point x="347.86842105263156" y="245.1315789473684" type="line"/>
      <point x="397.1315789473684" y="295.7368421052631"/>
      <point x="461.10526315789474" y="355.7894736842105"/>
      <point x="504.2368421052632" y="393.34210526315786" type="curve"/>
      <point x="526.3421052631579" y="499.2631578947368" type="line"/>
      <point x="88.10526315789474" y="499.2631578947368" type="line"/>
      <point x="59.39473684210526" y="363.6578947368421" type="line"/>
      <point x="125.26315789473684" y="377.84210526315786"/>
      <point x="206.52631578947367" y="383.7631578947368"/>
      <point x="253.02631578947367" y="383.7631578947368" type="curve"/>
      <point x="348.0263157894737" y="383.7631578947368" type="line"/>
      <point x="325.92105263157896" y="426.10526315789474" type="line"/>
      <point x="162.39473684210526" y="252.28947368421052" type="line"/>
      <point x="116.47368421052632" y="203.05263157894737"/>
      <point x="59.55263157894736" y="147.42105263157896"/>
      <point x="-2.3421052631578947" y="92.07894736842107" type="curve"/>
    </contour>
  </outline>
</glyph>
<glyph name="braceleft" format="2">
  <advance width="449.63157894736844"/>
  <unicode hex="007B"/>
  <outline>
    <contour>
      <point x="254.4736842105263" y="-123.84210526315789" type="curve" smooth="yes"/>
      <point x="348.1842105263158" y="-123.84210526315789" type="line"/>
      <point x="374.57894736842104" y="3.868421052631586" type="line"/>
      <point x="340.2631578947369" y="0.8947368421052699"/>
      <point x="313.2631578947369" y="0.23684210526316463"/>
      <point x="296.2631578947369" y="0.23684210526316463" type="curve"/>
      <point x="249.23684210526315" y="2.868421052631586"/>
      <point x="235.39473684210526" y="34.684210526315795"/>
      <point x="243.44736842105263" y="80.23684210526316" type="curve" smooth="yes"/>
      <point x="263.3157894736842" y="187.78947368421052" type="line" smooth="yes"/>
      <point x="277.0" y="263.07894736842104"/>
      <point x="257.3157894736842" y="295.7105263157894"/>
      <point x="197.94736842105263" y="318.6578947368421" type="curve"/>
      <point x="200.26315789473682" y="330.57894736842104" type="line"/>
      <point x="268.9473684210526" y="357.1315789473684"/>
      <point x="303.57894736842104" y="395.2894736842105"/>
      <point x="323.2105263157895" y="474.2631578947368" type="curve" smooth="yes"/>
      <point x="349.10526315789474" y="583.1052631578948" type="line" smooth="yes"/>
      <point x="360.4736842105263" y="629.6842105263157"/>
      <point x="384.6578947368421" y="649.0789473684212"/>
      <point x="429.9736842105263" y="651.0526315789474" type="curve"/>
      <point x="447.99999999999994" y="651.0526315789474"/>
      <point x="475.3684210526316" y="650.3947368421053"/>
      <point x="506.421052631579" y="647.421052631579" type="curve"/>
      <point x="533.8157894736843" y="775.1315789473684" type="line"/>
      <point x="423.7368421052631" y="775.1315789473684" type="line" smooth="yes"/>
      <point x="306.5" y="775.1315789473684"/>
      <point x="229.81578947368422" y="729.6052631578947"/>
      <point x="207.55263157894737" y="623.2894736842105" type="curve"/>
      <point x="197.1842105263158" y="571.4736842105264"/>
      <point x="191.07894736842107" y="520.1842105263157"/>
      <point x="180.05263157894737" y="468.36842105263156" type="curve"/>
      <point x="167.6578947368421" y="408.10526315789474"/>
      <point x="128.39473684210526" y="380.7631578947368"/>
      <point x="83.97368421052632" y="380.7631578947368" type="curve" smooth="yes"/>
      <point x="44.131578947368425" y="380.7631578947368" type="line"/>
      <point x="21.026315789473685" y="270.1842105263158" type="line"/>
      <point x="60.868421052631575" y="270.1842105263158" type="line" smooth="yes"/>
      <point x="105.28947368421052" y="270.1842105263158"/>
      <point x="132.55263157894737" y="242.8421052631579"/>
      <point x="120.15789473684211" y="182.57894736842104" type="curve"/>
      <point x="111.44736842105263" y="141.6842105263158"/>
      <point x="99.10526315789475" y="101.13157894736842"/>
      <point x="90.39473684210527" y="60.23684210526316" type="curve"/>
      <point x="68.47368421052633" y="-45.05263157894736"/>
      <point x="134.1578947368421" y="-123.84210526315789"/>
    </contour>
  </outline>
</glyph>
<glyph name="bar" format="2">
  <advance width="284.2105263157895"/>
  <unicode hex="007C"/>
  <outline>
    <contour>
      <point x="-21.078947368421055" y="-160.57894736842104" type="curve"/>
      <point x="131.34210526315792" y="-160.57894736842104" type="line"/>
      <point x="148.42105263157896" y="-43.578947368421055"/>
      <point x="169.76315789473685" y="60.421052631578945"/>
      <point x="192.76315789473685" y="168.42105263157896" type="curve"/>
      <point x="252.76315789473685" y="450.42105263157896" type="line"/>
      <point x="275.7631578947369" y="558.421052631579"/>
      <point x="298.42105263157896" y="662.421052631579"/>
      <point x="331.3421052631579" y="779.421052631579" type="curve"/>
      <point x="178.92105263157893" y="779.421052631579" type="line"/>
      <point x="161.84210526315786" y="662.421052631579"/>
      <point x="140.49999999999997" y="558.421052631579"/>
      <point x="117.5" y="450.42105263157896" type="curve"/>
      <point x="57.5" y="168.42105263157896" type="line"/>
      <point x="34.5" y="60.421052631578945"/>
      <point x="11.184210526315788" y="-43.578947368421055"/>
    </contour>
  </outline>
</glyph>
<glyph name="asciitilde" format="2">
  <advance width="579.7368421052631"/>
  <unicode hex="007E"/>
  <outline>
    <contour>
      <point x="411.5526315789474" y="204.05263157894737" type="curve" smooth="yes"/>
      <point x="486.94736842105266" y="204.05263157894737"/>
      <point x="534.8157894736843" y="272.9736842105263"/>
      <point x="559.0263157894738" y="387.42105263157896" type="curve"/>
      <point x="466.86842105263156" y="387.42105263157896" type="line"/>
      <point x="453.1578947368421" y="356.42105263157896"/>
      <point x="440.7368421052632" y="341.0"/>
      <point x="414.1842105263158" y="338.3421052631579" type="curve"/>
      <point x="355.0" y="343.63157894736844"/>
      <point x="275.1315789473685" y="406.3421052631579"/>
      <point x="197.76315789473685" y="406.3421052631579" type="curve" smooth="yes"/>
      <point x="118.42105263157895" y="406.3421052631579"/>
      <point x="68.89473684210527" y="336.42105263157896"/>
      <point x="44.3421052631579" y="222.9736842105263" type="curve"/>
      <point x="136.5" y="222.9736842105263" type="line"/>
      <point x="150.21052631578948" y="253.9736842105263"/>
      <point x="165.28947368421052" y="269.39473684210526"/>
      <point x="192.81578947368422" y="272.05263157894734" type="curve"/>
      <point x="249.0526315789474" y="266.7631578947368"/>
      <point x="331.5526315789474" y="204.05263157894737"/>
    </contour>
  </outline>
</glyph>
<glyph name="sterling" format="2">
  <advance width="607.9473684210526"/>
  <unicode hex="00A3"/>
  <outline>
    <contour>
      <point x="-3.9736842105263177" y="0.0" type="line"/>
      <point x="523.578947368421" y="0.0" type="line"/>
      <point x="556.8947368421052" y="156.6842105263158" type="line"/>
      <point x="473.15789473684214" y="143.15789473684214"/>
      <point x="401.39473684210526" y="141.84210526315792"/>
      <point x="279.5789473684211" y="141.84210526315792" type="curve"/>
      <point x="145.39473684210526" y="141.84210526315792" type="line"/>
      <point x="168.5" y="115.60526315789474" type="line"/>
      <point x="266.7368421052632" y="180.78947368421055"/>
      <point x="283.7631578947368" y="234.6052631578947"/>
      <point x="294.1315789473684" y="283.07894736842104" type="curve" smooth="yes"/>
      <point x="327.1052631578947" y="441.10526315789474" type="line" smooth="yes"/>
      <point x="344.57894736842104" y="523.7368421052631"/>
      <point x="388.44736842105266" y="561.6842105263157"/>
      <point x="457.2894736842105" y="564.6578947368421" type="curve"/>
      <point x="484.76315789473693" y="564.6578947368421"/>
      <point x="534.2368421052632" y="551.9473684210526"/>
      <point x="593.5263157894738" y="521.921052631579" type="curve"/>
      <point x="639.0789473684209" y="665.7894736842105" type="line"/>
      <point x="589.8421052631578" y="681.1842105263157"/>
      <point x="510.39473684210526" y="702.578947368421"/>
      <point x="439.86842105263156" y="702.578947368421" type="curve" smooth="yes"/>
      <point x="288.42105263157896" y="702.578947368421"/>
      <point x="192.89473684210526" y="619.1315789473684"/>
      <point x="160.57894736842104" y="462.57894736842104" type="curve" smooth="yes"/>
      <point x="146.52631578947367" y="396.7105263157894"/>
      <point x="133.42105263157896" y="305.86842105263156"/>
      <point x="117.73684210526315" y="230.78947368421055" type="curve"/>
      <point x="109.05263157894737" y="193.63157894736844"/>
      <point x="93.65789473684211" y="142.07894736842104"/>
      <point x="14.526315789473683" y="88.1842105263158" type="curve"/>
    </contour>
    <contour>
      <point x="62.71052631578947" y="305.81578947368416" type="line"/>
      <point x="132.89473684210526" y="311.10526315789474"/>
      <point x="199.07894736842104" y="311.7631578947368"/>
      <point x="255.9473684210526" y="311.7631578947368" type="curve"/>
      <point x="295.1578947368421" y="311.7631578947368" type="line"/>
      <point x="352.0263157894737" y="311.7631578947368"/>
      <point x="416.8947368421053" y="311.10526315789474"/>
      <point x="485.0789473684211" y="305.81578947368416" type="curve"/>
      <point x="510.50000000000006" y="425.97368421052636" type="line"/>
      <point x="440.65789473684214" y="420.6842105263158"/>
      <point x="374.47368421052636" y="420.0263157894737"/>
      <point x="317.60526315789474" y="420.0263157894737" type="curve"/>
      <point x="278.39473684210526" y="420.0263157894737" type="line"/>
      <point x="221.52631578947367" y="420.0263157894737"/>
      <point x="156.6578947368421" y="420.6842105263158"/>
      <point x="88.13157894736841" y="425.97368421052636" type="curve"/>
    </contour>
  </outline>
</glyph>
<glyph name="currency" format="2">
  <advance width="655.2631578947369"/>
  <unicode hex="00A4"/>
  <outline>
    <contour>
      <point x="325.34210526315786" y="93.8157894736842" type="curve" smooth="yes"/>
      <point x="456.3157894736842" y="93.8157894736842"/>
      <point x="543.1052631578947" y="152.76315789473685"/>
      <point x="571.0263157894736" y="286.8157894736842" type="curve" smooth="yes"/>
      <point x="599.2894736842105" y="423.2105263157895"/>
      <point x="504.50000000000006" y="545.2105263157895"/>
      <point x="356.63157894736844" y="545.2105263157895" type="curve" smooth="yes"/>
      <point x="228.05263157894734" y="545.2105263157895"/>
      <point x="138.8421052631579" y="486.60526315789474"/>
      <point x="110.92105263157896" y="352.5526315789474" type="curve" smooth="yes"/>
      <point x="82.65789473684211" y="215.81578947368422"/>
      <point x="176.1052631578947" y="93.8157894736842"/>
    </contour>
    <contour>
      <point x="129.28947368421052" y="18.078947368421044" type="line"/>
      <point x="176.21052631578948" y="68.94736842105262"/>
      <point x="223.44736842105266" y="113.84210526315789"/>
      <point x="265.34210526315786" y="153.07894736842107" type="curve"/>
      <point x="170.3421052631579" y="254.02631578947367" type="line"/>
      <point x="129.10526315789474" y="215.44736842105263"/>
      <point x="80.21052631578947" y="171.8684210526316"/>
      <point x="26.684210526315788" y="128.60526315789474" type="curve"/>
    </contour>
    <contour>
      <point x="335.2368421052632" y="221.8684210526316" type="curve"/>
      <point x="274.4210526315789" y="226.5"/>
      <point x="234.76315789473688" y="275.23684210526324"/>
      <point x="246.5263157894737" y="334.07894736842104" type="curve" smooth="yes"/>
      <point x="256.63157894736844" y="385.9736842105263"/>
      <point x="296.0" y="415.1578947368421"/>
      <point x="349.3684210526316" y="419.13157894736844" type="curve"/>
      <point x="410.47368421052636" y="413.8421052631579"/>
      <point x="448.5" y="363.7894736842105"/>
      <point x="437.39473684210526" y="307.9210526315789" type="curve" smooth="yes"/>
      <point x="426.2894736842105" y="251.07894736842104"/>
      <point x="390.0" y="223.8684210526316"/>
    </contour>
    <contour>
      <point x="192.73684210526315" y="382.57894736842104" type="curve"/>
      <point x="291.3684210526316" y="474.2894736842105" type="line"/>
      <point x="252.13157894736844" y="516.5263157894736"/>
      <point x="208.55263157894737" y="564.421052631579"/>
      <point x="165.28947368421052" y="618.6052631578948" type="curve"/>
      <point x="57.73684210526316" y="517.9736842105262" type="line"/>
      <point x="108.92105263157893" y="471.39473684210526"/>
      <point x="154.15789473684208" y="423.81578947368416"/>
    </contour>
    <contour>
      <point x="520.6578947368421" y="22.078947368421048" type="curve"/>
      <point x="628.2105263157895" y="122.71052631578948" type="line"/>
      <point x="577.0263157894736" y="169.28947368421052"/>
      <point x="531.7894736842105" y="216.8684210526316"/>
      <point x="493.2105263157895" y="258.1052631578948" type="curve"/>
      <point x="394.57894736842104" y="166.3947368421053" type="line"/>
      <point x="433.81578947368416" y="124.1578947368421"/>
      <point x="477.39473684210526" y="76.26315789473684"/>
    </contour>
    <contour>
      <point x="515.6052631578947" y="386.6578947368421" type="line"/>
      <point x="556.842105263158" y="425.2368421052632"/>
      <point x="605.7368421052632" y="468.8157894736842"/>
      <point x="659.2631578947369" y="512.078947368421" type="curve"/>
      <point x="556.6578947368421" y="622.6052631578947" type="line"/>
      <point x="509.7368421052632" y="571.7368421052631"/>
      <point x="462.50000000000006" y="526.8421052631578"/>
      <point x="420.60526315789474" y="487.60526315789474" type="curve"/>
    </contour>
  </outline>
</glyph>
<glyph name="yen" format="2">
  <advance width="655.6315789473684"/>
  <unicode hex="00A5"/>
  <outline>
    <contour>
      <point x="256.1842105263158" y="243.26315789473682" type="line"/>
      <point x="400.9736842105263" y="243.26315789473682" type="line"/>
      <point x="597.078947368421" y="511.86842105263156" type="line"/>
      <point x="642.1052631578947" y="573.4473684210526"/>
      <point x="685.4736842105264" y="632.7105263157895"/>
      <point x="737.6842105263158" y="687.9473684210526" type="curve"/>
      <point x="518.6578947368422" y="687.9473684210526" type="line"/>
      <point x="482.7105263157894" y="610.9736842105264"/>
      <point x="461.4736842105263" y="575.5"/>
      <point x="423.7368421052632" y="514.578947368421" type="curve"/>
      <point x="361.7368421052632" y="414.1578947368421" type="line"/>
      <point x="350.47368421052636" y="414.1578947368421" type="line"/>
      <point x="328.7105263157895" y="509.2631578947369" type="line"/>
      <point x="315.1052631578948" y="567.8947368421052"/>
      <point x="308.92105263157896" y="611.6052631578948"/>
      <point x="302.13157894736844" y="687.9473684210526" type="curve"/>
      <point x="101.94736842105263" y="687.9473684210526" type="line"/>
      <point x="143.55263157894734" y="597.421052631579"/>
      <point x="154.57894736842107" y="562.8157894736842"/>
      <point x="171.28947368421052" y="509.89473684210526" type="curve"/>
    </contour>
    <contour>
      <point x="181.65789473684208" y="0.0" type="curve"/>
      <point x="371.60526315789474" y="0.0" type="line"/>
      <point x="375.07894736842104" y="73.39473684210526"/>
      <point x="387.7631578947369" y="136.44736842105263"/>
      <point x="405.7631578947369" y="220.76315789473682" type="curve"/>
      <point x="438.89473684210526" y="377.4736842105263" type="line"/>
      <point x="274.34210526315786" y="377.4736842105263" type="line"/>
      <point x="241.21052631578945" y="221.42105263157893" type="line"/>
      <point x="223.21052631578945" y="137.10526315789474"/>
      <point x="209.21052631578945" y="73.39473684210526"/>
    </contour>
    <contour>
      <point x="42.3421052631579" y="111.92105263157895" type="line"/>
      <point x="112.18421052631577" y="117.21052631578947"/>
      <point x="177.71052631578948" y="117.86842105263158"/>
      <point x="234.57894736842104" y="117.86842105263158" type="curve"/>
      <point x="366.94736842105266" y="117.86842105263158" type="line"/>
      <point x="423.8157894736842" y="117.86842105263158"/>
      <point x="489.34210526315786" y="117.21052631578947"/>
      <point x="557.8684210526316" y="111.92105263157895" type="curve"/>
      <point x="579.6578947368421" y="215.63157894736844" type="line"/>
      <point x="509.81578947368416" y="213.63157894736844"/>
      <point x="444.2894736842105" y="212.97368421052633"/>
      <point x="387.42105263157896" y="212.97368421052633" type="curve"/>
      <point x="255.05263157894737" y="212.97368421052633" type="line"/>
      <point x="198.1842105263158" y="212.97368421052633"/>
      <point x="132.6578947368421" y="213.63157894736844"/>
      <point x="64.13157894736842" y="215.63157894736844" type="curve"/>
    </contour>
    <contour>
      <point x="77.23684210526315" y="277.44736842105266" type="line"/>
      <point x="146.76315789473685" y="279.44736842105266"/>
      <point x="212.28947368421055" y="280.10526315789474"/>
      <point x="269.1578947368421" y="280.10526315789474" type="curve"/>
      <point x="401.5263157894737" y="280.10526315789474" type="line"/>
      <point x="458.39473684210526" y="280.10526315789474"/>
      <point x="523.9210526315788" y="279.44736842105266"/>
      <point x="592.7631578947368" y="277.44736842105266" type="curve"/>
      <point x="614.8947368421052" y="381.15789473684214" type="line"/>
      <point x="544.3947368421052" y="375.86842105263156"/>
      <point x="478.8684210526316" y="375.2105263157895"/>
      <point x="422.00000000000006" y="375.2105263157895" type="curve"/>
      <point x="289.63157894736844" y="375.2105263157895" type="line"/>
      <point x="232.76315789473685" y="375.2105263157895"/>
      <point x="167.23684210526315" y="375.86842105263156"/>
      <point x="99.36842105263156" y="381.15789473684214" type="curve"/>
    </contour>
  </outline>
</glyph>
<glyph name="copyright" format="2">
  <advance width="801.3684210526316"/>
  <unicode hex="00A9"/>
  <outline>
    <contour>
      <point x="424.1842105263158" y="-13.605263157894736" type="curve" smooth="yes"/>
      <point x="656.2894736842105" y="-13.605263157894736"/>
      <point x="785.0526315789474" y="138.71052631578948"/>
      <point x="785.0526315789474" y="344.6578947368421" type="curve" smooth="yes"/>
      <point x="785.0526315789474" y="542.6315789473684"/>
      <point x="662.9473684210526" y="702.578947368421"/>
      <point x="419.55263157894734" y="702.578947368421" type="curve" smooth="yes"/>
      <point x="179.5" y="702.578947368421"/>
      <point x="56.315789473684205" y="544.3157894736842"/>
      <point x="56.315789473684205" y="344.0" type="curve" smooth="yes"/>
      <point x="56.315789473684205" y="154.28947368421052"/>
      <point x="170.78947368421052" y="-13.605263157894736"/>
    </contour>
    <contour>
      <point x="433.1578947368421" y="155.3421052631579" type="curve" smooth="yes"/>
      <point x="474.1842105263158" y="155.3421052631579"/>
      <point x="516.1315789473684" y="166.73684210526315"/>
      <point x="544.1052631578948" y="173.44736842105263" type="curve"/>
      <point x="538.1052631578948" y="272.92105263157896" type="line"/>
      <point x="511.31578947368416" y="257.86842105263156"/>
      <point x="481.92105263157896" y="249.5"/>
      <point x="461.44736842105266" y="249.5" type="curve"/>
      <point x="397.6842105263158" y="250.8421052631579"/>
      <point x="359.8421052631579" y="285.8421052631579"/>
      <point x="359.8421052631579" y="346.3157894736842" type="curve" smooth="yes"/>
      <point x="359.8421052631579" y="403.2631578947369"/>
      <point x="393.1842105263158" y="433.5526315789474"/>
      <point x="438.34210526315786" y="436.2105263157895" type="curve"/>
      <point x="454.7105263157894" y="436.2105263157895"/>
      <point x="490.4473684210526" y="427.2105263157895"/>
      <point x="536.1315789473684" y="405.5263157894737" type="curve"/>
      <point x="544.7368421052632" y="507.63157894736844" type="line"/>
      <point x="514.7631578947369" y="517.9736842105264"/>
      <point x="469.4210526315789" y="533.0"/>
      <point x="425.1842105263158" y="533.0" type="curve" smooth="yes"/>
      <point x="305.6842105263158" y="533.0"/>
      <point x="243.31578947368422" y="451.6578947368421"/>
      <point x="243.31578947368422" y="343.0263157894737" type="curve" smooth="yes"/>
      <point x="243.31578947368422" y="234.39473684210526"/>
      <point x="312.57894736842104" y="155.3421052631579"/>
    </contour>
    <contour>
      <point x="423.5263157894737" y="71.6842105263158" type="curve"/>
      <point x="235.39473684210526" y="78.31578947368422"/>
      <point x="146.8684210526316" y="186.73684210526315"/>
      <point x="146.8684210526316" y="344.0" type="curve" smooth="yes"/>
      <point x="146.8684210526316" y="506.13157894736844"/>
      <point x="240.05263157894737" y="610.6578947368421"/>
      <point x="420.2105263157895" y="617.2894736842105" type="curve"/>
      <point x="602.0263157894736" y="610.6578947368421"/>
      <point x="694.5" y="506.15789473684214"/>
      <point x="694.5" y="344.6578947368421" type="curve" smooth="yes"/>
      <point x="694.5" y="179.52631578947367"/>
      <point x="598.3947368421052" y="78.31578947368422"/>
    </contour>
  </outline>
</glyph>
<glyph name="ordfeminine" format="2">
  <advance width="405.16504854368935"/>
  <unicode hex="00AA"/>
  <outline>
    <contour>
      <point x="169.35922330097085" y="329.15533980582524" type="curve" smooth="yes"/>
      <point x="214.62135922330094" y="329.15533980582524"/>
      <point x="254.93203883495144" y="357.52427184466023"/>
      <point x="283.08737864077665" y="395.7864077669903" type="curve"/>
      <point x="291.5631067961164" y="395.7864077669903" type="line"/>
      <point x="293.4563106796116" y="337.8932038834952" type="line"/>
      <point x="404.80582524271847" y="337.8932038834952" type="line"/>
      <point x="398.0679611650486" y="386.1067961165049"/>
      <point x="400.2815533980583" y="427.05825242718447"/>
      <point x="408.65048543689323" y="465.90291262135923" type="curve"/>
      <point x="415.1747572815534" y="496.8932038834951" type="line" smooth="yes"/>
      <point x="421.1747572815534" y="524.5242718446601"/>
      <point x="429.4368932038835" y="550.4660194174756"/>
      <point x="434.5436893203883" y="577.5242718446601" type="curve" smooth="yes"/>
      <point x="453.9126213592233" y="669.7378640776699"/>
      <point x="399.00970873786406" y="727.7378640776699"/>
      <point x="293.21359223300965" y="727.7378640776699" type="curve" smooth="yes"/>
      <point x="250.0" y="727.7378640776699"/>
      <point x="185.04854368932038" y="712.1067961165048"/>
      <point x="145.31067961165047" y="704.8446601941747" type="curve"/>
      <point x="128.252427184466" y="598.6601941747572" type="line"/>
      <point x="182.03883495145632" y="618.8155339805825"/>
      <point x="242.83495145631068" y="631.8155339805826"/>
      <point x="259.3592233009708" y="631.8155339805826" type="curve" smooth="yes"/>
      <point x="310.93203883495147" y="631.8155339805826"/>
      <point x="335.242718446602" y="609.7669902912621"/>
      <point x="327.4563106796116" y="578.990291262136" type="curve"/>
      <point x="211.35922330097088" y="560.2038834951456" type="line" smooth="yes"/>
      <point x="147.52427184466018" y="549.6796116504854"/>
      <point x="90.94174757281554" y="524.9999999999999"/>
      <point x="74.94174757281554" y="451.2621359223301" type="curve" smooth="yes"/>
      <point x="59.31067961165048" y="380.5242718446602"/>
      <point x="100.83495145631068" y="329.15533980582524"/>
    </contour>
    <contour>
      <point x="228.96116504854368" y="419.2330097087379" type="curve" smooth="yes"/>
      <point x="200.70873786407768" y="419.2330097087379"/>
      <point x="178.50485436893206" y="435.2815533980582"/>
      <point x="185.02912621359224" y="466.6407766990291" type="curve" smooth="yes"/>
      <point x="191.5533980582524" y="495.99999999999994"/>
      <point x="218.91262135922332" y="503.8932038834951"/>
      <point x="247.16504854368935" y="510.4174757281553" type="curve" smooth="yes"/>
      <point x="291.88349514563106" y="520.8349514563107"/>
      <point x="304.40776699029124" y="525.8349514563107"/>
      <point x="316.4563106796117" y="533.8349514563107" type="curve"/>
      <point x="301.3009708737864" y="464.6893203883496" type="line"/>
      <point x="276.3106796116505" y="430.01941747572823"/>
      <point x="249.05825242718447" y="419.2330097087379"/>
    </contour>
  </outline>
</glyph>
<glyph name="logicalnot" format="2">
  <advance width="579.7368421052631"/>
  <unicode hex="00AC"/>
  <outline>
    <contour>
      <point x="342.02631578947364" y="51.18421052631579" type="curve"/>
      <point x="493.1315789473685" y="51.18421052631579" type="line"/>
      <point x="502.47368421052636" y="119.68421052631578"/>
      <point x="515.7894736842105" y="185.23684210526315"/>
      <point x="527.7631578947369" y="241.44736842105263" type="curve"/>
      <point x="556.6315789473684" y="377.7894736842106" type="line"/>
      <point x="486.4473684210526" y="372.5"/>
      <point x="420.9210526315789" y="371.8421052631579"/>
      <point x="364.05263157894734" y="371.8421052631579" type="curve"/>
      <point x="268.0" y="371.8421052631579" type="line"/>
      <point x="211.13157894736844" y="371.8421052631579"/>
      <point x="145.60526315789474" y="372.5"/>
      <point x="77.42105263157895" y="377.7894736842106" type="curve"/>
      <point x="46.07894736842105" y="230.6315789473684" type="line"/>
      <point x="116.57894736842105" y="235.92105263157893"/>
      <point x="182.10526315789474" y="236.57894736842104"/>
      <point x="238.9736842105263" y="236.57894736842104" type="curve"/>
      <point x="335.0263157894737" y="236.57894736842104" type="line"/>
      <point x="384.94736842105266" y="236.57894736842104"/>
      <point x="442.8684210526316" y="235.92105263157893"/>
      <point x="502.1315789473684" y="230.6315789473684" type="curve"/>
      <point x="407.84210526315786" y="332.89473684210526" type="line"/>
      <point x="388.55263157894734" y="242.10526315789474" type="line"/>
      <point x="376.57894736842104" y="185.89473684210526"/>
      <point x="361.94736842105266" y="119.68421052631578"/>
    </contour>
  </outline>
</glyph>
<glyph name="registered" format="2">
  <advance width="579.1052631578948"/>
  <unicode hex="00AE"/>
  <outline>
    <contour>
      <point x="343.92105263157896" y="239.02631578947367" type="curve" smooth="yes"/>
      <point x="510.6578947368422" y="239.02631578947367"/>
      <point x="600.6842105263158" y="347.60526315789474"/>
      <point x="600.6842105263158" y="493.8157894736842" type="curve" smooth="yes"/>
      <point x="600.6842105263158" y="633.3947368421053"/>
      <point x="516.6315789473684" y="747.2894736842105"/>
      <point x="339.63157894736844" y="747.2894736842105" type="curve" smooth="yes"/>
      <point x="165.60526315789474" y="747.2894736842105"/>
      <point x="81.8421052631579" y="634.7368421052631"/>
      <point x="81.8421052631579" y="493.1578947368421" type="curve" smooth="yes"/>
      <point x="81.8421052631579" y="359.86842105263156"/>
      <point x="160.57894736842104" y="239.02631578947367"/>
    </contour>
    <contour>
      <point x="229.5" y="358.7894736842105" type="curve"/>
      <point x="306.89473684210526" y="358.7894736842105" type="line"/>
      <point x="302.2631578947368" y="390.7894736842105"/>
      <point x="300.9473684210526" y="417.7894736842105"/>
      <point x="300.9473684210526" y="452.7894736842105" type="curve"/>
      <point x="300.9473684210526" y="544.7894736842105" type="line"/>
      <point x="300.9473684210526" y="577.1578947368421"/>
      <point x="302.2631578947368" y="603.1842105263158"/>
      <point x="306.2368421052631" y="633.2105263157895" type="curve"/>
      <point x="227.5263157894737" y="643.7894736842105" type="line"/>
      <point x="232.81578947368422" y="611.7894736842105"/>
      <point x="233.47368421052633" y="583.7894736842105"/>
      <point x="233.47368421052633" y="548.7894736842105" type="curve"/>
      <point x="233.47368421052633" y="452.7894736842105" type="line"/>
      <point x="233.47368421052633" y="417.7894736842105"/>
      <point x="232.81578947368422" y="390.7894736842105"/>
    </contour>
    <contour>
      <point x="343.2631578947369" y="288.10526315789474" type="curve"/>
      <point x="193.18421052631578" y="292.07894736842104"/>
      <point x="135.5263157894737" y="381.89473684210526"/>
      <point x="135.5263157894737" y="493.1578947368421" type="curve" smooth="yes"/>
      <point x="135.5263157894737" y="611.2894736842105"/>
      <point x="197.1578947368421" y="694.8947368421052"/>
      <point x="340.2894736842105" y="698.8684210526316" type="curve"/>
      <point x="484.7368421052632" y="694.8947368421052"/>
      <point x="546.6578947368422" y="610.0"/>
      <point x="546.6578947368422" y="493.8157894736842" type="curve" smooth="yes"/>
      <point x="546.6578947368422" y="373.36842105263156"/>
      <point x="479.4736842105263" y="292.07894736842104"/>
    </contour>
    <contour>
      <point x="391.36842105263156" y="358.7894736842105" type="curve"/>
      <point x="480.7368421052632" y="358.7894736842105" type="line"/>
      <point x="462.36842105263156" y="380.7894736842105"/>
      <point x="440.3157894736842" y="413.4473684210526"/>
      <point x="421.2631578947369" y="442.10526315789474" type="curve"/>
      <point x="383.15789473684214" y="499.42105263157896" type="line"/>
      <point x="356.0526315789474" y="475.86842105263156" type="line"/>
      <point x="428.0263157894737" y="475.86842105263156"/>
      <point x="453.0526315789474" y="514.5263157894736"/>
      <point x="453.0526315789474" y="562.5" type="curve" smooth="yes"/>
      <point x="453.0526315789474" y="620.4736842105264"/>
      <point x="414.0526315789474" y="646.1052631578947"/>
      <point x="342.92105263157896" y="646.1052631578947" type="curve"/>
      <point x="295.68421052631584" y="646.1052631578947"/>
      <point x="258.42105263157896" y="643.7894736842105"/>
      <point x="227.5263157894737" y="643.7894736842105" type="curve"/>
      <point x="279.4473684210526" y="590.4736842105264" type="line"/>
      <point x="339.94736842105266" y="590.4736842105264" type="line" smooth="yes"/>
      <point x="355.7368421052632" y="590.4736842105264"/>
      <point x="382.60526315789474" y="589.1315789473684"/>
      <point x="382.60526315789474" y="554.6052631578947" type="curve" smooth="yes"/>
      <point x="382.60526315789474" y="522.421052631579"/>
      <point x="361.7894736842105" y="512.3684210526316"/>
      <point x="331.5526315789474" y="512.3684210526316" type="curve" smooth="yes"/>
      <point x="287.39473684210526" y="512.3684210526316" type="line"/>
      <point x="287.39473684210526" y="468.60526315789474" type="line"/>
      <point x="355.0263157894737" y="468.60526315789474" type="line"/>
      <point x="314.0" y="493.7631578947368" type="line"/>
      <point x="354.8157894736842" y="428.4473684210526" type="line"/>
      <point x="368.2105263157895" y="407.10526315789474"/>
      <point x="381.92105263157896" y="384.13157894736844"/>
    </contour>
  </outline>
</glyph>
<glyph name="degree" format="2">
  <advance width="512.5526315789474"/>
  <unicode hex="00B0"/>
  <outline>
    <contour>
      <point x="296.6578947368421" y="297.07894736842104" type="curve" smooth="yes"/>
      <point x="417.0" y="297.07894736842104"/>
      <point x="500.89473684210526" y="352.7105263157895"/>
      <point x="527.1842105263158" y="476.1842105263158" type="curve" smooth="yes"/>
      <point x="551.8157894736843" y="594.6842105263158"/>
      <point x="466.2894736842105" y="702.578947368421"/>
      <point x="321.68421052631584" y="702.578947368421" type="curve" smooth="yes"/>
      <point x="198.0" y="702.578947368421"/>
      <point x="116.42105263157895" y="640.6052631578948"/>
      <point x="92.76315789473684" y="528.0263157894736" type="curve" smooth="yes"/>
      <point x="64.8157894736842" y="398.6315789473684"/>
      <point x="148.68421052631578" y="297.07894736842104"/>
    </contour>
    <contour>
      <point x="302.9210526315789" y="405.7105263157895" type="curve"/>
      <point x="237.36842105263156" y="409.0263157894737"/>
      <point x="205.73684210526318" y="455.02631578947364"/>
      <point x="216.8421052631579" y="508.8947368421052" type="curve" smooth="yes"/>
      <point x="227.60526315789474" y="561.7368421052632"/>
      <point x="262.9473684210526" y="589.3157894736842"/>
      <point x="316.0789473684211" y="593.9473684210526" type="curve"/>
      <point x="376.9473684210526" y="589.3157894736842"/>
      <point x="409.60526315789474" y="539.2894736842105"/>
      <point x="399.1578947368421" y="489.7368421052631" type="curve" smooth="yes"/>
      <point x="387.05263157894734" y="432.57894736842104"/>
      <point x="351.4473684210526" y="409.68421052631584"/>
    </contour>
  </outline>
</glyph>
